
<svg xmlns="http://www.w3.org/2000/svg" version="1.1" xmlns:xlink="http://www.w3.org/1999/xlink" preserveAspectRatio="none" x="0px" y="0px" width="2200px" height="500px" viewBox="0 0 2200 500">
<defs>
<g id="castanheira_shopping_0_Layer0_0_MEMBER_0_MEMBER_0_FILL">
<path fill="#747373" stroke="none" d="
M -155.65 44.5
Q -149.75 44.5 -145.6 48.65 -144.4 49.85 -143.5 51.25
L -136 47.7
Q -137.55 45 -139.9 42.65 -146.45 36.1 -155.75 36.1 -165.05 36.1 -171.7 42.65 -178.25 49.3 -178.25 58.6 -178.25 67.9 -171.7 74.45 -165.05 81.1 -155.75 81.1 -146.45 81.1 -139.9 74.45 -137.5 72.1 -136 69.4
L -143.3 65.95
Q -144.25 67.45 -145.6 68.8 -149.75 73 -155.65 73 -161.55 73 -165.75 68.8 -169.9 64.65 -169.9 58.75 -169.9 52.85 -165.75 48.65 -161.55 44.5 -155.65 44.5
M -102.6 47.9
L -106.55 47.9
Q -108.55 47.9 -108.55 49.85
L -108.55 51.2
Q -112.8 47.9 -118.45 47.9 -125.35 47.9 -130.25 52.75 -135.05 57.65 -135.05 64.5 -135.05 71.35 -130.25 76.2 -125.35 81.1 -118.45 81.1 -112.8 81.1 -108.55 77.8
L -108.55 78.95
Q -108.55 80.9 -106.55 80.9
L -102.6 80.9
Q -100.6 80.9 -100.6 78.95
L -100.6 49.85
Q -100.6 47.9 -102.6 47.9
M -124.4 71.35
Q -127.2 68.55 -127.2 64.6 -127.2 60.6 -124.4 57.75 -121.55 54.95 -117.55 54.95 -113.55 54.95 -110.75 57.75 -109.25 59.25 -108.55 61.05 -107.9 62.7 -107.9 64.6 -107.9 66.5 -108.55 68.1 -109.25 69.9 -110.75 71.35 -113.55 74.2 -117.55 74.2 -121.55 74.2 -124.4 71.35
M -72.05 57.7
L -68.25 52.15
Q -75.95 46.9 -82.75 47.3 -92.3 47.65 -94.7 55.45 -96.95 62.7 -89.35 66.4 -85.3 68.35 -79.65 68.55 -76.3 68.75 -75.95 71.2 -75.45 74.4 -81.05 74.35 -85.75 74.35 -91.15 70.75
L -95.35 76.4
Q -90.75 79.5 -86.65 80.5 -82.6 81.45 -77.05 80.9 -68 80.1 -67.65 71.3 -67.4 63.15 -76.75 62.05 -87.75 60.65 -87 57.25 -86.5 54.85 -81.7 54.65 -76.95 54.4 -72.05 57.7
M -54.6 38.65
L -58.55 38.65
Q -60.55 38.65 -60.55 40.6
L -60.6 47.95 -64.85 47.95 -64.85 55.05 -60.65 55.05 -60.75 73.5
Q -60.4 81.4 -49.2 81.1 -45.75 80.95 -45.35 78.1
L -45.35 76.5
Q -45.5 74.15 -48.1 73.9 -49.9 74 -51.2 73.4 -52.45 72.75 -52.6 69.7
L -52.6 55.05 -47.8 55.05
Q -46.3 55.05 -45.95 53.9 -45.85 53.55 -45.85 53.15
L -45.85 49.95
Q -45.85 47.95 -47.8 47.95
L -52.6 47.95 -52.6 40.6
Q -52.6 38.65 -54.6 38.65
M -10.5 47.9
L -14.45 47.9
Q -16.45 47.9 -16.45 49.85
L -16.45 51.2
Q -20.7 47.9 -26.35 47.9 -33.25 47.9 -38.15 52.75 -42.95 57.65 -42.95 64.5 -42.95 71.35 -38.15 76.2 -33.25 81.1 -26.35 81.1 -20.7 81.1 -16.45 77.8
L -16.45 78.95
Q -16.45 80.9 -14.45 80.9
L -10.5 80.9
Q -8.5 80.9 -8.5 78.95
L -8.5 49.85
Q -8.5 47.9 -10.5 47.9
M -16.45 61.05
Q -15.8 62.7 -15.8 64.6 -15.8 66.5 -16.45 68.1 -17.15 69.9 -18.65 71.35 -21.45 74.2 -25.45 74.2 -29.45 74.2 -32.3 71.35 -35.1 68.55 -35.1 64.6 -35.1 60.6 -32.3 57.75 -29.45 54.95 -25.45 54.95 -21.45 54.95 -18.65 57.75 -17.15 59.25 -16.45 61.05
M 4.4 48.1
L 0.45 48.1
Q -1.55 48.1 -1.55 50.05
L -1.55 79.15
Q -1.55 81.1 0.45 81.1
L 4.4 81.1
Q 6.4 81.1 6.4 79.15
L 6.4 60.15
Q 6.85 55.45 11.5 55.3
L 16.1 55.3
Q 20 55.95 20.05 61.25
L 20.05 79.15
Q 20.05 81.1 22.05 81.1
L 26 81.1
Q 28 81.1 28 79.15
L 28 61.25
Q 28.2 49.15 18.35 47.95 10.9 47 6.4 51.2
L 6.4 50.05
Q 6.4 48.1 4.4 48.1
M 42.75 36.8
Q 42.75 36.5 42.7 36.25
L 34.85 36.25 34.85 79.15
Q 34.85 81.1 36.85 81.1
L 40.8 81.1
Q 42.8 81.1 42.8 79.15
L 42.8 60.15
Q 43.25 55.45 47.9 55.3
L 52.5 55.3
Q 56.4 55.95 56.45 61.25
L 56.45 79.15
Q 56.45 81.1 58.45 81.1
L 62.4 81.1
Q 64.4 81.1 64.4 79.15
L 64.4 61.25
Q 64.6 49.15 54.75 47.95 47.3 47 42.8 51.2
L 42.75 36.8
M 103.55 65.45
Q 103.7 64.5 103.7 64 103.7 56.95 98.7 51.85 93.65 46.9 86.6 46.9 79.55 46.9 74.55 51.85 69.5 56.95 69.5 64 69.5 71.05 74.55 76.05 79.55 81.1 86.6 81.1 93.65 81.1 98.7 76.05 99.9 74.85 100.8 73.55
L 94.8 69.55
Q 94.3 70.3 93.6 70.95 90.7 73.9 86.6 73.9 82.55 73.9 79.65 70.95 78.05 69.4 77.35 67.45
L 101.8 67.45 103.55 65.45
M 93.6 57
Q 95.55 58.95 96.2 61.5
L 77.05 61.5
Q 77.7 58.95 79.65 57 82.55 54.1 86.6 54.1 90.7 54.1 93.6 57
M 114.9 48.1
L 110.95 48.1
Q 108.95 48.1 108.95 50.05
L 108.95 79.15
Q 108.95 81.1 110.95 81.1
L 114.9 81.1
Q 116.9 81.1 116.9 79.15
L 116.9 50.05
Q 116.9 48.1 114.9 48.1
M 116.4 36.4
Q 114.95 35 112.95 35 110.9 35 109.5 36.4 108.05 37.85 108.05 39.85 108.05 41.9 109.5 43.3 110.9 44.75 112.95 44.75 114.95 44.75 116.4 43.3 117.8 41.9 117.8 39.85 117.8 37.85 116.4 36.4
M 129.5 48.1
L 125.55 48.1
Q 123.55 48.1 123.55 50.05
L 123.55 79.15
Q 123.55 81.1 125.55 81.1
L 129.5 81.1
Q 131.5 81.1 131.5 79.15
L 131.5 65.65
Q 131.55 60.5 136.15 58.1 138.8 56.7 143 56.2
L 143 48.1
Q 139.25 47.9 136.15 49.1 133.6 50 131.5 51.9
L 131.5 50.05
Q 131.5 48.1 129.5 48.1
M 176.25 48.1
L 172.3 48.1
Q 170.3 48.1 170.3 50.05
L 170.3 51.4
Q 166.05 48.1 160.4 48.1 153.5 48.1 148.6 52.95 143.8 57.85 143.8 64.7 143.8 71.55 148.6 76.4 153.5 81.3 160.4 81.3 166.05 81.3 170.3 78
L 170.3 79.15
Q 170.3 81.1 172.3 81.1
L 176.25 81.1
Q 178.25 81.1 178.25 79.15
L 178.25 50.05
Q 178.25 48.1 176.25 48.1
M 170.3 61.25
Q 170.95 62.9 170.95 64.8 170.95 66.7 170.3 68.3 169.6 70.1 168.1 71.55 165.3 74.4 161.3 74.4 157.3 74.4 154.45 71.55 151.65 68.75 151.65 64.8 151.65 60.8 154.45 57.95 157.3 55.15 161.3 55.15 165.3 55.15 168.1 57.95 169.6 59.45 170.3 61.25 Z"/>
</g>

<g id="castanheira_shopping_0_Layer0_0_MEMBER_0_MEMBER_1_FILL">
<path fill="#747373" stroke="none" d="
M -32.05 101.95
Q -36.5 101.95 -39.7 105.1 -42.85 108.3 -42.85 112.75 -42.85 117.2 -39.7 120.35 -36.5 123.55 -32.05 123.55 -27.6 123.55 -24.45 120.35 -21.25 117.2 -21.25 112.75 -21.25 108.3 -24.45 105.1 -27.6 101.95 -32.05 101.95
M -36.4 108.45
Q -34.55 106.65 -32.05 106.65 -29.55 106.65 -27.75 108.45 -25.95 110.25 -25.95 112.8 -25.95 115.3 -27.75 117.1 -29.55 118.9 -32.05 118.9 -34.55 118.9 -36.4 117.1 -38.15 115.3 -38.15 112.8 -38.15 110.25 -36.4 108.45
M -61.7 94.75
Q -61.7 94.55 -61.75 94.4
L -66.75 94.4 -66.75 121.55
Q -66.75 122.8 -65.45 122.8
L -62.95 122.8
Q -61.7 122.8 -61.7 121.55
L -61.7 109.55
Q -61.4 106.55 -58.45 106.45
L -55.55 106.45
Q -53.05 106.85 -53.05 110.2
L -53.05 121.55
Q -53.05 122.8 -51.75 122.8
L -49.25 122.8
Q -48 122.8 -48 121.55
L -48 110.2
Q -47.85 102.55 -54.1 101.8 -58.85 101.2 -61.7 103.85
L -61.7 94.75
M 3.4 120
Q 6.45 116.9 6.45 112.55 6.45 108.15 3.4 105.05 0.25 101.95 -4.15 101.95 -7.75 101.95 -10.45 104.05
L -10.45 103.2
Q -10.45 101.95 -11.75 101.95
L -14.25 101.95
Q -15.55 101.95 -15.55 103.2
L -15.55 129.6 -10.45 129.6 -10.45 121.05
Q -7.75 123.15 -4.15 123.15 0.25 123.15 3.4 120
M -4.7 106.45
Q -2.15 106.45 -0.35 108.25 1.45 110.05 1.45 112.6 1.45 115.15 -0.35 116.9 -2.15 118.75 -4.7 118.75 -7.25 118.75 -9.05 116.9 -10 116 -10.45 114.85 -10.85 113.8 -10.85 112.6 -10.85 111.4 -10.45 110.35 -10 109.2 -9.05 108.25 -7.25 106.45 -4.7 106.45
M 30.35 105.05
Q 27.2 101.95 22.8 101.95 19.2 101.95 16.5 104.05
L 16.5 103.2
Q 16.5 101.95 15.2 101.95
L 12.7 101.95
Q 11.4 101.95 11.4 103.2
L 11.4 129.6 16.5 129.6 16.5 121.05
Q 19.2 123.15 22.8 123.15 27.2 123.15 30.35 120 33.4 116.9 33.4 112.55 33.4 108.15 30.35 105.05
M 22.25 106.45
Q 24.8 106.45 26.6 108.25 28.4 110.05 28.4 112.6 28.4 115.15 26.6 116.9 24.8 118.75 22.25 118.75 19.7 118.75 17.9 116.9 16.95 116 16.5 114.85 16.1 113.8 16.1 112.6 16.1 111.4 16.5 110.35 16.95 109.2 17.9 108.25 19.7 106.45 22.25 106.45
M 43.65 103.35
Q 43.65 102.1 42.4 102.1
L 39.95 102.1
Q 38.7 102.1 38.7 103.35
L 38.7 121.55
Q 38.7 122.8 39.95 122.8
L 42.4 122.8
Q 43.65 122.8 43.65 121.55
L 43.65 103.35
M 73.6 112.55
Q 73.6 116.9 76.65 120 79.8 123.15 84.2 123.15 87.8 123.15 90.5 121.05
L 90.5 123.6
Q 89.5 126.1 84.7 126.25 80.7 126.3 78.4 123.85
L 75.15 127.8
Q 79.1 131.6 86.55 131.15 93.95 130.65 95.7 124.75
L 95.6 103.2
Q 95.6 101.95 94.3 101.95
L 91.8 101.95
Q 90.5 101.95 90.5 103.2
L 90.5 104.05
Q 87.8 101.95 84.2 101.95 79.8 101.95 76.65 105.05 73.6 108.15 73.6 112.55
M 80.4 116.9
Q 78.6 115.15 78.6 112.6 78.6 110.05 80.4 108.25 82.2 106.45 84.75 106.45 87.3 106.45 89.1 108.25 90.05 109.2 90.5 110.35 90.9 111.4 90.9 112.6 90.9 113.8 90.5 114.85 90.05 116 89.1 116.9 87.3 118.75 84.75 118.75 82.2 118.75 80.4 116.9
M 68.2 110.25
Q 68.35 102.6 62.1 101.85 57.4 101.25 54.55 103.9
L 54.55 103.2
Q 54.55 101.95 53.3 101.95
L 50.8 101.95
Q 49.55 101.95 49.55 103.2
L 49.55 121.55
Q 49.55 122.8 50.8 122.8
L 53.3 122.8
Q 54.55 122.8 54.55 121.55
L 54.55 109.55
Q 54.85 106.6 57.8 106.5
L 60.7 106.5
Q 63.15 106.9 63.2 110.25
L 63.2 121.55
Q 63.2 122.8 64.45 122.8
L 66.95 122.8
Q 68.2 122.8 68.2 121.55
L 68.2 110.25
M 39.05 94.75
Q 38.15 95.7 38.15 96.95 38.15 98.2 39.05 99.1 39.95 100 41.2 100 42.45 100 43.4 99.1 44.25 98.2 44.25 96.95 44.25 95.7 43.4 94.75 42.45 93.9 41.2 93.9 39.95 93.9 39.05 94.75 Z"/>
</g>

<g id="castanheira_shopping_0_Layer0_0_MEMBER_0_MEMBER_1_MEMBER_0_FILL">
<path fill="#747373" stroke="none" d="
M 910.65 235.9
Q 907.65 238.35 907.65 242.2 907.65 248.05 915.15 249.7
L 921.1 250.9
Q 924.8 251.75 924.8 254.15 924.8 255.85 923.35 256.85 921.85 257.85 919.4 257.85 916.50546875 257.8537109375 914.7 256.9 912.8833984375 255.938671875 911.6 254.9
L 908.8 259
Q 909.5955078125 259.8142578125 910.65 260.45 914.05 262.55 918.85 262.55 924.15 262.55 927.35 260.25 930.45 257.9 930.45 253.7 930.45 250.8 928.6 248.9 926.7 247 923.35 246.25
L 916.75 244.8
Q 913.5 244.05 913.5 241.75 913.5 240.15 914.7 239.1 915.9994140625 238.1529296875 918.5 238.15 921.0017578125 238.1912109375 924.1 240.45 924.93671875 241.0609375 925.35 241.5
L 928.1 237.35
Q 927.317578125 236.4525390625 926.25 235.7 923.15 233.5 918.5 233.5 913.6 233.5 910.65 235.9 Z"/>
</g>

<g id="castanheira_shopping_0_Layer0_0_MEMBER_1_FILL">
<path fill="#008385" stroke="none" d="
M 998.6 162.3
L 998.6 159.2 995.55 149
Q 976.8048828125 145.0427734375 964.2 137.15 958.091796875 133.2658203125 954.3 128.6 926.5423828125 98.17421875 932.35 58.3 927.1998046875 70.655078125 926.5 85.3 925.462109375 117.197265625 948.7 140.7 948.8251953125 140.8248046875 948.95 140.95 969.856640625 160.8185546875 998.6 162.3 Z"/>

<path fill="#00A8B5" stroke="none" d="
M 973.9 114.6
Q 981.2517578125 123.1361328125 993.4 130.3 992.8125 112.32578125 998.4 101.15 987.986328125 60.08515625 956 35.7 953.209375 33.5099609375 951.5 31.7 938.6169921875 43.2908203125 932.35 58.3 926.5423828125 98.17421875 954.3 128.6 958.091796875 133.2658203125 964.2 137.15 976.8048828125 145.0427734375 995.55 149
L 994.9 146.7
Q 980.4751953125 137.575 969.5 125.4 951.05859375 103.1859375 951 81 950.67890625 66.8322265625 954.9 57.4 952.6291015625 90.023828125 973.9 114.6 Z"/>

<path fill="#A41718" stroke="none" d="
M 1009.75 76.55
Q 1006.2154296875 82.57890625 1001.5 87.25
L 1002.8 89.45
Q 1018.10703125 84.8603515625 1029.4 68.8 1037.7291015625 56.381640625 1038.8 43.1 1027.61953125 69.51875 1009.75 76.55 Z"/>

<path fill="#D81D14" stroke="none" d="
M 1038.8 43.1
Q 1039.6689453125 33.0958984375 1036.4 22.6 1033.584375 15.3451171875 1030.4 7.7 1002.2806640625 16.7724609375 993.8 43 988.321875 62.5494140625 997.4 80.2 1012.96328125 63.473046875 1018 36.2 1021.9892578125 40.5861328125 1016.85 59.35 1014.700390625 67.251171875 1011.3 73.75 1010.571875 75.1974609375 1009.75 76.55 1027.61953125 69.51875 1038.8 43.1 Z"/>

<path fill="#F09200" stroke="none" d="
M 1010.55 157.85
L 1012.4 161.3
Q 1044.0119140625 155.1275390625 1060.3 132.8 1069.731640625 120.2658203125 1073.35 105.7 1053.9349609375 142.2484375 1021.9 148.25 1016.8509765625 153.1240234375 1010.55 157.85 Z"/>

<path fill="#FED100" stroke="none" d="
M 1075.1 76.8
Q 1074.3744140625 67.0845703125 1070.65 59.85 1029.961328125 63.4259765625 1013.15 95.6 1011.60078125 99.0697265625 1010.3 102.45 1008.9900390625 106.009375 1007.95 109.5 1002.1025390625 129.697265625 1007.05 147.6 1038.91484375 120.4171875 1047.8 91.7 1048.488671875 107.078125 1035.7 130.7 1030.7353515625 139.705078125 1021.9 148.25 1053.9349609375 142.2484375 1073.35 105.7 1076.76640625 92.1396484375 1075.1 76.8 Z"/>
</g>

<path id="Layer1_0_1_STROKES" stroke="#000000" stroke-width="1" stroke-linejoin="round" stroke-linecap="round" fill="none" d="
M 1038.85 154.6
Q 1039.65 144.6 1036.4 134.1 1033.6 126.85 1030.4 119.2 1002.3 128.25 993.8 154.5 988.3 174.05 997.4 191.7 1012.95 174.95 1018 147.7 1022 152.1 1016.85 170.85 1014.7 178.75 1011.35 185.25 1010.55 186.7 1009.75 188.1
M 1038.85 154.6
Q 1037.75 167.9 1029.4 180.3 1018.1 196.35 1002.8 200.95
L 1001.55 198.8
Q 1006.2 194.1 1009.75 188.1
M 1008 221
Q 1009 217.5 1010.35 213.95 1011.6 210.55 1013.2 207.15 1029.95 174.95 1070.65 171.35 1074.35 178.6 1075.1 188.3 1076.75 203.65 1073.4 217.25 1069.75 231.75 1060.3 244.3 1044 266.65 1012.4 272.8
L 1010.55 269.35
Q 1016.85 264.6 1021.9 259.75 1030.75 251.2 1035.75 242.2 1048.5 218.6 1047.8 203.2 1038.9 231.9 1007.1 259.1 1002.1 241.2 1008 221 Z
M 995.6 260.5
L 994.9 258.2
Q 980.5 249.1 969.5 236.9 951.05 214.7 951 192.5 950.7 178.35 954.9 168.9 952.65 201.5 973.9 226.1 981.25 234.65 993.4 241.8 992.8 223.85 998.4 212.65 988 171.6 956 147.2 953.2 145 951.5 143.2 938.6 154.8 932.35 169.85
M 995.6 260.5
L 998.6 270.7 998.6 273.8
Q 969.85 272.3 948.95 252.45 948.85 252.3 948.7 252.2 925.45 228.7 926.5 196.8 927.2 182.15 932.35 169.85"/>

<path id="Layer1_0_2_STROKES" stroke="#3A3A3A" stroke-width="1" stroke-linejoin="round" stroke-linecap="round" fill="none" d="
M 1038.85 154.6
Q 1027.6 181 1009.75 188.1
M 932.35 169.85
Q 926.55 209.65 954.35 240.1 958.1 244.75 964.2 248.65 976.8 256.55 995.6 260.5
M 1073.4 217.25
Q 1053.95 253.75 1021.9 259.75"/>

<path id="Layer1_0_3_STROKES" stroke="#000000" stroke-width="0.25" stroke-linejoin="round" stroke-linecap="round" fill="none" d="
M 1045.8 347.35
Q 1045.8 348.6 1044.95 349.5 1044.05 350.4 1042.8 350.4 1041.5 350.4 1040.6 349.5 1039.7 348.6 1039.7 347.35 1039.7 346.1 1040.6 345.2 1041.5 344.3 1042.8 344.3 1044.05 344.3 1044.95 345.2 1045.8 346.1 1045.8 347.35 Z
M 990.7 363
Q 990.7 364.2 991.1 365.25 991.55 366.4 992.5 367.3 994.3 369.15 996.85 369.15 999.4 369.15 1001.2 367.3 1003 365.55 1003 363 1003 360.45 1001.2 358.65 999.4 356.85 996.85 356.85 994.3 356.85 992.5 358.65 991.55 359.6 991.1 360.75 990.7 361.8 990.7 363 Z
M 989.8 352.35
L 987.3 352.35
Q 986 352.35 986 353.6
L 986 380 991.1 380 991.1 371.45
Q 993.8 373.55 997.4 373.55 1001.8 373.55 1004.95 370.4 1008 367.3 1008 362.95 1008 358.55 1004.95 355.45 1001.8 352.35 997.4 352.35 993.8 352.35 991.1 354.45
L 991.1 353.6
Q 991.1 352.35 989.8 352.35 Z
M 975.6 363.2
Q 975.6 365.7 973.8 367.5 972 369.3 969.5 369.3 967 369.3 965.15 367.5 963.4 365.7 963.4 363.2 963.4 360.65 965.15 358.85 967 357.05 969.5 357.05 972 357.05 973.8 358.85 975.6 360.65 975.6 363.2 Z
M 980.3 363.15
Q 980.3 367.6 977.1 370.75 973.95 373.95 969.5 373.95 965.05 373.95 961.85 370.75 958.7 367.6 958.7 363.15 958.7 358.7 961.85 355.5 965.05 352.35 969.5 352.35 973.95 352.35 977.1 355.5 980.3 358.7 980.3 363.15 Z
M 1052.35 352.35
L 1054.85 352.35
Q 1056.1 352.35 1056.1 353.6
L 1056.1 354.3
Q 1058.95 351.65 1063.65 352.25 1069.9 353 1069.75 360.65
L 1069.75 371.95
Q 1069.75 373.2 1068.5 373.2
L 1066 373.2
Q 1064.75 373.2 1064.75 371.95
L 1064.75 360.65
Q 1064.7 357.3 1062.25 356.9
L 1059.35 356.9
Q 1056.4 357 1056.1 359.95
L 1056.1 371.95
Q 1056.1 373.2 1054.85 373.2
L 1052.35 373.2
Q 1051.1 373.2 1051.1 371.95
L 1051.1 353.6
Q 1051.1 352.35 1052.35 352.35 Z
M 1045.25 371.95
L 1045.25 353.75
Q 1045.25 352.5 1043.95 352.5
L 1041.5 352.5
Q 1040.25 352.5 1040.25 353.75
L 1040.25 371.95
Q 1040.25 373.2 1041.5 373.2
L 1043.95 373.2
Q 1045.25 373.2 1045.25 371.95 Z
M 1017.65 363
Q 1017.65 364.2 1018.05 365.25 1018.5 366.4 1019.45 367.3 1021.25 369.15 1023.8 369.15 1026.35 369.15 1028.15 367.3 1029.95 365.55 1029.95 363 1029.95 360.45 1028.15 358.65 1026.35 356.85 1023.8 356.85 1021.25 356.85 1019.45 358.65 1018.5 359.6 1018.05 360.75 1017.65 361.8 1017.65 363 Z
M 1016.75 352.35
L 1014.25 352.35
Q 1012.95 352.35 1012.95 353.6
L 1012.95 380 1018.05 380 1018.05 371.45
Q 1020.75 373.55 1024.35 373.55 1028.75 373.55 1031.9 370.4 1034.95 367.3 1034.95 362.95 1034.95 358.55 1031.9 355.45 1028.75 352.35 1024.35 352.35 1020.75 352.35 1018.05 354.45
L 1018.05 353.6
Q 1018.05 352.35 1016.75 352.35 Z
M 1093.35 352.35
L 1095.85 352.35
Q 1097.15 352.35 1097.15 353.6
L 1097.25 375.15
Q 1095.5 381.05 1088.1 381.55 1080.65 382 1076.7 378.2
L 1079.95 374.25
Q 1082.25 376.7 1086.25 376.65 1091.05 376.5 1092.05 374
L 1092.05 371.45
Q 1089.35 373.55 1085.75 373.55 1081.35 373.55 1078.2 370.4 1075.15 367.3 1075.15 362.95 1075.15 358.55 1078.2 355.45 1081.35 352.35 1085.75 352.35 1089.35 352.35 1092.05 354.45
L 1092.05 353.6
Q 1092.05 352.35 1093.35 352.35 Z
M 1092.45 363
Q 1092.45 364.2 1092.05 365.25 1091.6 366.4 1090.65 367.3 1088.85 369.15 1086.3 369.15 1083.75 369.15 1081.95 367.3 1080.15 365.55 1080.15 363 1080.15 360.45 1081.95 358.65 1083.75 356.85 1086.3 356.85 1088.85 356.85 1090.65 358.65 1091.6 359.6 1092.05 360.75 1092.45 361.8 1092.45 363 Z
M 939.85 354.25
L 939.85 345.15
Q 939.85 344.95 939.8 344.8
L 934.8 344.8 934.8 371.95
Q 934.8 373.2 936.1 373.2
L 938.6 373.2
Q 939.85 373.2 939.85 371.95
L 939.85 359.95
Q 940.15 356.95 943.1 356.85
L 946 356.85
Q 948.5 357.25 948.5 360.6
L 948.5 371.95
Q 948.5 373.2 949.8 373.2
L 952.3 373.2
Q 953.55 373.2 953.55 371.95
L 953.55 360.6
Q 953.7 352.95 947.45 352.2 942.7 351.6 939.85 354.25 Z
M 910.65 371.95
Q 914.05 374.05 918.85 374.05 924.15 374.05 927.35 371.75 930.45 369.4 930.45 365.2 930.45 362.3 928.6 360.4 926.7 358.5 923.35 357.75
L 916.75 356.3
Q 913.5 355.55 913.5 353.25 913.5 351.65 914.7 350.6 916 349.65 918.5 349.7 921 349.7 924.1 351.95 924.95 352.55 925.35 353
L 928.1 348.9
Q 927.3 347.95 926.25 347.2 923.15 345 918.5 345 913.6 345 910.65 347.4 907.65 349.85 907.65 353.7 907.65 359.55 915.15 361.2
L 921.1 362.4
Q 924.8 363.25 924.8 365.65 924.8 367.35 923.35 368.35 921.85 369.35 919.4 369.35 916.5 369.35 914.7 368.4 912.9 367.45 911.6 366.4
L 908.85 370.5
Q 909.6 371.3 910.65 371.95 Z"/>

<path id="Layer1_1_1_STROKES" stroke="#000000" stroke-width="1" stroke-linejoin="round" stroke-linecap="round" fill="none" d="
M 855.95 208.35
Q 851.8 212.55 845.9 212.55 840 212.55 835.8 208.35 831.65 204.2 831.65 198.3 831.65 192.4 835.8 188.2 840 184.05 845.9 184.05 851.8 184.05 855.95 188.2 857.1728515625 189.4228515625 858.05 190.8
L 865.525 187.25
Q 864.0115234375 184.5615234375 861.65 182.2 855.1 175.65 845.8 175.65 836.5 175.65 829.85 182.2 823.3 188.85 823.3 198.15 823.3 207.45 829.85 214 836.5 220.65 845.8 220.65 855.1 220.65 861.65 214 864.03046875 211.6552734375 865.55 208.95
L 858.225 205.5
Q 857.300390625 207.015625 855.95 208.35 Z"/>

<path id="Layer1_2_1_STROKES" stroke="#000000" stroke-width="1" stroke-linejoin="round" stroke-linecap="round" fill="none" d="
M 895 187.1
L 898.95 187.1
Q 900.95 187.1 900.95 189.05
L 900.95 218.15
Q 900.95 220.1 898.95 220.1
L 895 220.1
Q 893 220.1 893 218.15
L 893 216.975
Q 888.7466796875 220.3 883.1 220.3 876.2 220.3 871.3 215.4 866.5 210.55 866.5 203.7 866.5 196.85 871.3 191.95 876.2 187.1 883.1 187.1 888.7466796875 187.1 893 190.4
L 893 189.05
Q 893 187.1 895 187.1 Z
M 893.65 203.8
Q 893.65 205.6859375 893 207.3 892.2892578125 209.0869140625 890.8 210.55 888 213.4 884 213.4 880 213.4 877.15 210.55 874.35 207.75 874.35 203.8 874.35 199.8 877.15 196.95 880 194.15 884 194.15 888 194.15 890.8 196.95 892.2892578125 198.4392578125 893 200.25 893.65 201.890234375 893.65 203.8 Z"/>

<path id="Layer1_3_1_STROKES" stroke="#000000" stroke-width="1" stroke-linejoin="round" stroke-linecap="round" fill="none" d="
M 929.5 196.6
L 933.3 191.05
Q 925.6 185.8 918.8 186.2 909.25 186.55 906.85 194.35 904.6 201.6 912.2 205.3 916.25 207.25 921.9 207.45 925.25 207.65 925.6 210.1 926.1 213.3 920.5 213.25 915.8 213.25 910.4 209.65
L 906.2 215.3
Q 910.8 218.4 914.9 219.4 918.95 220.35 924.5 219.8 933.55 219 933.9 210.2 934.15 202.05 924.8 200.95 913.8 199.55 914.55 196.15 915.05 193.75 919.85 193.55 924.6 193.3 929.5 196.6 Z"/>

<path id="Layer1_4_1_STROKES" stroke="#000000" stroke-width="1" stroke-linejoin="round" stroke-linecap="round" fill="none" d="
M 943 177.55
L 946.95 177.55
Q 948.95 177.55 948.95 179.5
L 948.95 186.85 953.75 186.85
Q 955.7 186.85 955.7 188.85
L 955.7 192.05
Q 955.6888671875 192.45234375 955.6 192.775 955.245703125 193.95 953.75 193.95
L 948.95 193.95 948.95 208.6
Q 949.076171875 211.654296875 950.35 212.275 951.6353515625 212.89765625 953.45 212.8 956.025 213.065234375 956.2 215.4
L 956.2 217
Q 955.7796875 219.827734375 952.35 220 941.1693359375 220.3140625 940.8 212.4
L 940.9 193.95 936.7 193.95 936.7 186.85 940.95 186.85 941 179.5
Q 941 177.55 943 177.55 Z"/>

<path id="Layer1_5_1_STROKES" stroke="#000000" stroke-width="1" stroke-linejoin="round" stroke-linecap="round" fill="none" d="
M 985.75 203.8
Q 985.75 205.7 985.1 207.3 984.4 209.1 982.9 210.55 980.1 213.4 976.1 213.4 972.1 213.4 969.25 210.55 966.45 207.75 966.45 203.8 966.45 199.8 969.25 196.95 972.1 194.15 976.1 194.15 980.1 194.15 982.9 196.95 984.4 198.45 985.1 200.25 985.75 201.9 985.75 203.8 Z
M 987.1 187.1
L 991.05 187.1
Q 993.05 187.1 993.05 189.05
L 993.05 218.15
Q 993.05 220.1 991.05 220.1
L 987.1 220.1
Q 985.1 220.1 985.1 218.15
L 985.1 217
Q 980.85 220.3 975.2 220.3 968.3 220.3 963.4 215.4 958.6 210.55 958.6 203.7 958.6 196.85 963.4 191.95 968.3 187.1 975.2 187.1 980.85 187.1 985.1 190.4
L 985.1 189.05
Q 985.1 187.1 987.1 187.1 Z"/>

<path id="Layer1_6_1_STROKES" stroke="#000000" stroke-width="1" stroke-linejoin="round" stroke-linecap="round" fill="none" d="
M 1002 187
L 1005.95 187
Q 1007.95 187 1007.95 188.95
L 1007.95 190.1
Q 1012.4623046875 185.8869140625 1019.9 186.85 1029.7689453125 188.035546875 1029.55 200.15
L 1029.55 218.05
Q 1029.55 220 1027.55 220
L 1023.6 220
Q 1021.6 220 1021.6 218.05
L 1021.6 200.15
Q 1021.5462890625 194.8412109375 1017.65 194.175
L 1013.05 194.2
Q 1008.4091796875 194.325390625 1007.95 199.05
L 1007.95 218.05
Q 1007.95 220 1005.95 220
L 1002 220
Q 1000 220 1000 218.05
L 1000 188.95
Q 1000 187 1002 187 Z"/>

<path id="Layer1_7_1_STROKES" stroke="#000000" stroke-width="1" stroke-linejoin="round" stroke-linecap="round" fill="none" d="
M 1044.35 190.1
L 1044.3 175.7
Q 1044.3 175.4 1044.25 175.15
L 1036.4 175.15 1036.4 218.05
Q 1036.4 220 1038.4 220
L 1042.35 220
Q 1044.35 220 1044.35 218.05
L 1044.35 199.05
Q 1044.8 194.35 1049.45 194.2
L 1054.05 194.2
Q 1057.95 194.85 1058 200.15
L 1058 218.05
Q 1058 220 1060 220
L 1063.95 220
Q 1065.95 220 1065.95 218.05
L 1065.95 200.15
Q 1066.15 188.05 1056.3 186.85 1048.85 185.9 1044.35 190.1 Z"/>

<path id="Layer1_8_1_STROKES" stroke="#000000" stroke-width="1" stroke-linejoin="round" stroke-linecap="round" fill="none" d="
M 1081.2 196.5
Q 1084.1 193.6 1088.15 193.6 1092.25 193.6 1095.15 196.5 1097.1224609375 198.4724609375 1097.75 201
L 1078.6 201
Q 1079.2275390625 198.4724609375 1081.2 196.5 Z
M 1105.25 203.5
Q 1105.25 203.9798828125 1105.1 204.95
L 1103.35 206.95 1078.9 206.95
Q 1079.610546875 208.887890625 1081.2 210.45 1084.1 213.4 1088.15 213.4 1092.25 213.4 1095.15 210.45 1095.828515625 209.783203125 1096.35 209.05
L 1102.35 213.05
Q 1101.4373046875 214.3626953125 1100.25 215.55 1095.2 220.6 1088.15 220.6 1081.1 220.6 1076.1 215.55 1071.05 210.55 1071.05 203.5 1071.05 196.45 1076.1 191.35 1081.1 186.4 1088.15 186.4 1095.2 186.4 1100.25 191.35 1105.25 196.45 1105.25 203.5 Z"/>

<path id="Layer1_9_1_STROKES" stroke="#000000" stroke-width="1" stroke-linejoin="round" stroke-linecap="round" fill="none" d="
M 1127.1 187
L 1131.05 187
Q 1133.05 187 1133.05 188.95
L 1133.05 190.8
Q 1135.1515625 188.9216796875 1137.7 187.975 1140.7955078125 186.8029296875 1144.55 187
L 1144.55 195.1
Q 1140.3630859375 195.5880859375 1137.7 197 1133.10234375 199.408203125 1133.05 204.55
L 1133.05 218.05
Q 1133.05 220 1131.05 220
L 1127.1 220
Q 1125.1 220 1125.1 218.05
L 1125.1 188.95
Q 1125.1 187 1127.1 187 Z"/>

<path id="Layer1_10_1_STROKES" stroke="#000000" stroke-width="1" stroke-linejoin="round" stroke-linecap="round" fill="none" d="
M 1172.5 203.8
Q 1172.5 205.7 1171.85 207.3 1171.15 209.1 1169.65 210.55 1166.85 213.4 1162.85 213.4 1158.85 213.4 1156 210.55 1153.2 207.75 1153.2 203.8 1153.2 199.8 1156 196.95 1158.85 194.15 1162.85 194.15 1166.85 194.15 1169.65 196.95 1171.15 198.45 1171.85 200.25 1172.5 201.9 1172.5 203.8 Z
M 1173.85 187.1
L 1177.8 187.1
Q 1179.8 187.1 1179.8 189.05
L 1179.8 218.15
Q 1179.8 220.1 1177.8 220.1
L 1173.85 220.1
Q 1171.85 220.1 1171.85 218.15
L 1171.85 217
Q 1167.6 220.3 1161.95 220.3 1155.05 220.3 1150.15 215.4 1145.35 210.55 1145.35 203.7 1145.35 196.85 1150.15 191.95 1155.05 187.1 1161.95 187.1 1167.6 187.1 1171.85 190.4
L 1171.85 189.05
Q 1171.85 187.1 1173.85 187.1 Z"/>

<path id="Layer1_11_MEMBER_0_1_STROKES" stroke="#000000" stroke-width="1" stroke-linejoin="round" stroke-linecap="round" fill="none" d="
M 1119.4 178.75
Q 1119.4 180.8 1118 182.2 1116.55 183.65 1114.55 183.65 1112.5 183.65 1111.1 182.2 1109.65 180.8 1109.65 178.75 1109.65 176.75 1111.1 175.3 1112.5 173.9 1114.55 173.9 1116.55 173.9 1118 175.3 1119.4 176.75 1119.4 178.75 Z"/>

<path id="Layer1_11_MEMBER_1_1_STROKES" stroke="#000000" stroke-width="1" stroke-linejoin="round" stroke-linecap="round" fill="none" d="
M 1118.45 218.05
L 1118.45 188.95
Q 1118.45 187 1116.45 187
L 1112.5 187
Q 1110.5 187 1110.5 188.95
L 1110.5 218.05
Q 1110.5 220 1112.5 220
L 1116.45 220
Q 1118.45 220 1118.45 218.05 Z"/>
</defs>

<g transform="matrix( 1, 0, 0, 1, 100,0) ">
<use xlink:href="#Layer1_0_1_STROKES"/>

<use xlink:href="#Layer1_0_2_STROKES"/>

<use xlink:href="#Layer1_0_3_STROKES"/>
</g>

<g transform="matrix( 1, 0, 0, 1, 100,110.85) ">
<use xlink:href="#Layer1_1_1_STROKES"/>
</g>

<g transform="matrix( 1, 0, 0, 1, 100,111.2) ">
<use xlink:href="#Layer1_2_1_STROKES"/>
</g>

<g transform="matrix( 1, 0, 0, 1, 100,111.5) ">
<use xlink:href="#Layer1_3_1_STROKES"/>
</g>

<g transform="matrix( 1, 0, 0, 1, 100,111.5) ">
<use xlink:href="#Layer1_4_1_STROKES"/>
</g>

<g transform="matrix( 1, 0, 0, 1, 100,111.2) ">
<use xlink:href="#Layer1_5_1_STROKES"/>
</g>

<g transform="matrix( 1, 0, 0, 1, 100,111.5) ">
<use xlink:href="#Layer1_6_1_STROKES"/>
</g>

<g transform="matrix( 1, 0, 0, 1, 100,111.5) ">
<use xlink:href="#Layer1_7_1_STROKES"/>
</g>

<g transform="matrix( 1, 0, 0, 1, 100,110.9) ">
<use xlink:href="#Layer1_8_1_STROKES"/>
</g>

<g transform="matrix( 1, 0, 0, 1, 100,111.5) ">
<use xlink:href="#Layer1_9_1_STROKES"/>
</g>

<g transform="matrix( 1, 0, 0, 1, 100,111.4) ">
<use xlink:href="#Layer1_10_1_STROKES"/>
</g>

<g transform="matrix( 1, 0, 0, 1, 99.95,111.5) ">
<use xlink:href="#Layer1_11_MEMBER_0_1_STROKES"/>
</g>

<g transform="matrix( 1, 0, 0, 1, 100,111.5) ">
<use xlink:href="#Layer1_11_MEMBER_1_1_STROKES"/>
</g>

<g transform="matrix( 1.903228759765625, 0, 0, 1.903228759765625, 1100,250) ">
<g transform="matrix( 1, 0, 0, 1, 0,0) ">
<use xlink:href="#castanheira_shopping_0_Layer0_0_MEMBER_0_MEMBER_0_FILL"/>
</g>

<g transform="matrix( 1, 0, 0, 1, -0.9,0) ">
<use xlink:href="#castanheira_shopping_0_Layer0_0_MEMBER_0_MEMBER_1_FILL"/>
</g>

<g transform="matrix( 1, 0, 0, 1, -1002.45,-138.9) ">
<use xlink:href="#castanheira_shopping_0_Layer0_0_MEMBER_0_MEMBER_1_MEMBER_0_FILL"/>
</g>

<g transform="matrix( 1, 0, 0, 1, -1001.55,-138.9) ">
<use xlink:href="#castanheira_shopping_0_Layer0_0_MEMBER_1_FILL"/>
</g>
</g>
</svg>
