
<svg xmlns="http://www.w3.org/2000/svg" version="1.1" xmlns:xlink="http://www.w3.org/1999/xlink" preserveAspectRatio="none" x="0px" y="0px" width="2200px" height="500px" viewBox="0 0 2200 500">
<defs>
<g id="Layer0_0_MEMBER_0_FILL">
<path fill="#031C9A" stroke="none" d="
M 664 184.75
Q 664 171.05 665.5 167.65 667.55 163.15 670.95 161.2 675.95 158.3 684 158.3
L 690.15 158.3 690.15 153.3 614.55 153.3 564.05 275.65 512 153.3 436.05 153.3 436.05 158.3 441.9 158.3
Q 449.8 158.3 454.45 161.05 459.15 163.8 460.6 167.35 462.05 170.7 462.05 184.75
L 462.05 302.25
Q 462.05 307.95 462 315.2 461.959765625 319.354296875 461.85 320.15 460.25 326.6 457.5 330.15 454.75 333.7 449.45 335.95 444.15 337.9 438 337.9
L 436.05 337.9 436.05 342.9 499.6 342.9 499.6 337.9
Q 486.85 337.9 481.05 333.55 474.9 329.15 473.15 322.4 472.774609375 320.5517578125 472.6 315.2
L 472.65 315.2
Q 472.5 307.45 472.5 301.65
L 472.5 170.9 544.75 339.05 548.1 339.05 619.35 169.6 619.35 307.25
Q 619.35 314.2 618.95 322.35 618.5580078125 326.7337890625 617.75 328.35 615.8 333.05 612.3 335 607.45 337.9 599.2 337.9
L 593.1 337.9 593.1 342.9 740.75 342.9 740.75 337.9
Q 726.25 336.75 722.55 334.5 716.25 330.8 716.25 323.05 716.25 317.1 719.95 308.05
L 727.85 290 793.5 290 803.3 313.2
Q 807.2 322.25 807.5 323.35 808.3 325.95 808.3 328.55 808.3 332.55 805.25 334.8 800.9 337.9 790.1 337.9
L 786.4 337.9 786.4 342.9 876.2 342.9 876.2 337.9
Q 867.65 337.05 862.95 332.9 856.85 327.25 847.3 305.65
L 780.25 153.3 777.7 153.3 711.25 301.45
Q 701.75 322.75 695.45 329.65 689.35 335.95 680.15 337.7 675 337.05 671.6 335.15 666.95 332.4 665.5 328.85 664.7259765625 327.0181640625 664.35 322.35 664 314.1 664 307.25
L 664 184.75
M 788.8 279.85
L 732.7 279.85 761.05 215.85 788.8 279.85
M 1118.8 153.3
L 1116.2 153.3 1049.8 301.45
Q 1040.3 322.75 1034 329.65 1027.55 336.25 1017.55 337.9
L 1017.55 342.9 1079.3 342.9 1079.3 337.9
Q 1064.8 336.75 1061.1 334.5 1054.8 330.8 1054.8 323.05 1054.8 317.1 1058.5 308.05
L 1066.4 290 1132 290 1141.85 313.2
Q 1145.7 322.25 1146.05 323.35 1146.85 325.95 1146.85 328.55 1146.85 332.55 1143.8 334.8 1139.45 337.9 1128.65 337.9
L 1124.95 337.9 1124.95 342.9 1214.7 342.9 1214.7 337.9
Q 1206.2 337.05 1201.5 332.9 1195.35 327.25 1185.85 305.65
L 1118.8 153.3
M 1127.35 279.85
L 1071.25 279.85 1099.6 215.85 1127.35 279.85
M 1006.45 166.35
Q 1003.85 166.35 990.5 161.2 983.55 158.6 978.7 157 973.85 155.4 970.8 154.9 959.85 152.8 946 152.8 928.9 152.8 914.2 157 890.05 163.75 871.85 181.65 842.5 210.5 842.5 252.45 842.5 276 852 294.85 859.55 309.5 872.95 321.3 886.15 332.9 903.75 340.15 921.15 347.25 947.6 347.25 968.25 347.25 987.55 343.35 1006.75 339.15 1024.5 331.25
L 1024.5 292.6
Q 1024.5 282.4 1025.8 279.85 1028.05 275 1032.05 272.9 1036.1 270.65 1046.4 270
L 1046.4 265 956.15 265 956.15 270 960.8 270
Q 967.6 270 972.4 272.6 977.1 275.15 978.55 278.55 980 281.6 980 292.6
L 980 331.25
Q 972.6 334 965.65 335.45 958.55 336.9 951.8 336.9 932.6 336.9 918.6 327.4 904.4 317.9 898.1 297.75 891.8 277.75 891.8 251 891.8 228.9 897.6 207.95 903.4 187 917.15 175.4 931 163.6 951.8 163.6 973.55 163.6 991.95 177.65 1010.3 191.5 1019.5 218.4
L 1024.5 218.4 1024.5 152.95 1019.5 152.95
Q 1018.7 155.25 1017.9 157 1015.8 161.5 1013.55 163.6 1010.15 166.35 1006.45 166.35
M 1702.55 153.3
L 1702.55 158.3
Q 1718 158.15 1724.65 166.05 1729.45 171.85 1729.45 188.6
L 1729.45 268.4 1637.75 153.3 1571.95 153.3 1571.95 158.3
Q 1580.35 158.65 1584.85 161.05 1589.35 163.3 1595.35 170.7
L 1599.35 175.55 1599.35 310.45
Q 1599.35 325.3 1593.25 331.45 1587.6 337.25 1573.9 337.9 1565.7 336.9 1561.15 332.9 1555.05 327.25 1545.5 305.65
L 1478.45 153.3 1475.9 153.3 1409.45 301.45
Q 1399.95 322.75 1393.65 329.65 1387.2 336.25 1377.2 337.9
L 1377.2 342.9 1438.95 342.9 1438.95 337.9
Q 1424.45 336.75 1420.75 334.5 1414.45 330.8 1414.45 323.05 1414.45 317.1 1418.15 308.05
L 1426.05 290 1491.7 290 1501.5 313.2
Q 1505.4 322.25 1505.7 323.35 1506.5 325.95 1506.5 328.55 1506.5 332.55 1503.45 334.8 1499.1 337.9 1488.3 337.9
L 1484.6 337.9 1484.6 342.9 1637.75 342.9 1637.75 337.9 1633.4 337.9
Q 1623.85 337.9 1616.6 332.25 1609.35 326.6 1609.35 310.45
L 1609.35 188.6 1734.7 342.9 1739.6 342.9 1739.6 188.6
Q 1739.6 175.55 1741.9 170.1 1744.15 164.6 1748.15 162.35 1752.2 159.9 1763.95 158.3
L 1763.95 153.3 1702.55 153.3
M 1459.3 215.85
L 1487 279.85 1430.9 279.85 1459.3 215.85 Z"/>
</g>

<g id="Layer0_0_MEMBER_1_FILL">
<path fill="#EF0C19" stroke="none" d="
M 1381.8 287.1
L 1320.65 287.1 1389.3 153.3 1211.35 153.3 1211.35 210.75 1272.65 210.75 1205.4 342.9 1381.8 342.9 1381.8 287.1 Z"/>
</g>

<path id="Layer1_0_MEMBER_0_1_STROKES" stroke="#000000" stroke-width="0.1" stroke-linejoin="round" stroke-linecap="round" fill="none" d="
M 793.5 290
L 727.85 290 719.95 308.05
Q 716.25 317.1 716.25 323.05 716.25 330.8 722.55 334.5 726.25 336.75 740.75 337.9
L 740.75 342.9 680.15 342.9 680.15 337.7
Q 689.35 335.95 695.45 329.65 701.75 322.75 711.25 301.45
L 777.7 153.3 780.25 153.3 847.3 305.65
Q 856.85 327.25 862.95 332.9 867.65 337.05 876.2 337.9
L 876.2 342.9 786.4 342.9 786.4 337.9 790.1 337.9
Q 800.9 337.9 805.25 334.8 808.3 332.55 808.3 328.55 808.3 325.95 807.5 323.35 807.2 322.25 803.3 313.2
L 793.5 290 Z
M 788.8 279.85
L 761.05 215.85 732.7 279.85 788.8 279.85 Z"/>

<path id="Layer1_0_MEMBER_1_1_STROKES" stroke="#000000" stroke-width="0.1" stroke-linejoin="round" stroke-linecap="round" fill="none" d="
M 593.1 342.9
L 593.1 337.9 599.2 337.9
Q 607.45 337.9 612.3 335 615.8 333.05 617.75 328.35 618.5580078125 326.7337890625 618.95 322.35 619.35 314.2 619.35 307.25
L 619.35 169.6 548.1 339.05 544.75 339.05 472.5 170.9 472.5 301.65
Q 472.5 307.45 472.65 315.2
L 472.625 315.2
Q 472.774609375 320.5517578125 473.15 322.4 474.9 329.15 481.05 333.55 486.85 337.9 499.6 337.9
L 499.6 342.9 436.05 342.9 436.05 337.9 438 337.9
Q 444.15 337.9 449.45 335.95 454.75 333.7 457.5 330.15 460.25 326.6 461.85 320.15 461.959765625 319.354296875 462 315.2 462.05 307.95 462.05 302.25
L 462.05 184.75
Q 462.05 170.7 460.6 167.35 459.15 163.8 454.45 161.05 449.8 158.3 441.9 158.3
L 436.05 158.3 436.05 153.3 512 153.3 564.05 275.65 614.55 153.3 690.15 153.3 690.15 158.3 684 158.3
Q 675.95 158.3 670.95 161.2 667.55 163.15 665.5 167.65 664 171.05 664 184.75
L 664 307.25
Q 664 314.1 664.35 322.35 664.7259765625 327.0181640625 665.5 328.85 666.95 332.4 671.6 335.15 675 337.05 680.15 337.7
L 680.15 342.9 593.1 342.9 Z"/>

<path id="Layer1_0_MEMBER_2_1_STROKES" stroke="#000000" stroke-width="0.1" stroke-linejoin="round" stroke-linecap="round" fill="none" d="
M 1637.75 153.3
L 1729.45 268.4 1729.45 188.6
Q 1729.45 171.85 1724.65 166.05 1718 158.15 1702.55 158.3
L 1702.55 153.3 1763.95 153.3 1763.95 158.3
Q 1752.2 159.9 1748.15 162.35 1744.15 164.6 1741.9 170.1 1739.6 175.55 1739.6 188.6
L 1739.6 342.9 1734.7 342.9 1609.35 188.6 1609.35 310.45
Q 1609.35 326.6 1616.6 332.25 1623.85 337.9 1633.4 337.9
L 1637.75 337.9 1637.75 342.9 1573.9 342.9 1573.9 337.9
Q 1587.6 337.25 1593.25 331.45 1599.35 325.3 1599.35 310.45
L 1599.35 175.55 1595.35 170.7
Q 1589.35 163.3 1584.85 161.05 1580.35 158.65 1571.95 158.3
L 1571.95 153.3 1637.75 153.3 Z"/>

<path id="Layer1_0_MEMBER_3_1_STROKES" stroke="#000000" stroke-width="0.1" stroke-linejoin="round" stroke-linecap="round" fill="none" d="
M 1024.5 152.95
L 1024.5 218.4 1019.5 218.4
Q 1010.3 191.5 991.95 177.65 973.55 163.6 951.8 163.6 931 163.6 917.15 175.4 903.4 187 897.6 207.95 891.8 228.9 891.8 251 891.8 277.75 898.1 297.75 904.4 317.9 918.6 327.4 932.6 336.9 951.8 336.9 958.55 336.9 965.65 335.45 972.6 334 980 331.25
L 980 292.6
Q 980 281.6 978.55 278.55 977.1 275.15 972.4 272.6 967.6 270 960.8 270
L 956.15 270 956.15 265 1046.4 265 1046.4 270
Q 1036.1 270.65 1032.05 272.9 1028.05 275 1025.8 279.85 1024.5 282.4 1024.5 292.6
L 1024.5 331.25
Q 1006.75 339.15 987.55 343.35 968.25 347.25 947.6 347.25 921.15 347.25 903.75 340.15 886.15 332.9 872.95 321.3 859.55 309.5 852 294.85 842.5 276 842.5 252.45 842.5 210.5 871.85 181.65 890.05 163.75 914.2 157 928.9 152.8 946 152.8 959.85 152.8 970.8 154.9 973.85 155.4 978.7 157 983.55 158.6 990.5 161.2 1003.85 166.35 1006.45 166.35 1010.15 166.35 1013.55 163.6 1015.8 161.5 1017.9 157 1018.7 155.25 1019.5 152.95
L 1024.5 152.95 Z"/>

<path id="Layer1_0_MEMBER_4_1_STROKES" stroke="#000000" stroke-width="0.1" stroke-linejoin="round" stroke-linecap="round" fill="none" d="
M 1132 290
L 1066.4 290 1058.5 308.05
Q 1054.8 317.1 1054.8 323.05 1054.8 330.8 1061.1 334.5 1064.8 336.75 1079.3 337.9
L 1079.3 342.9 1017.55 342.9 1017.55 337.9
Q 1027.55 336.25 1034 329.65 1040.3 322.75 1049.8 301.45
L 1116.2 153.3 1118.8 153.3 1185.85 305.65
Q 1195.35 327.25 1201.5 332.9 1206.2 337.05 1214.7 337.9
L 1214.7 342.9 1124.95 342.9 1124.95 337.9 1128.65 337.9
Q 1139.45 337.9 1143.8 334.8 1146.85 332.55 1146.85 328.55 1146.85 325.95 1146.05 323.35 1145.7 322.25 1141.85 313.2
L 1132 290 Z
M 1127.35 279.85
L 1099.6 215.85 1071.25 279.85 1127.35 279.85 Z"/>

<path id="Layer1_0_MEMBER_5_1_STROKES" stroke="#000000" stroke-width="0.1" stroke-linejoin="round" stroke-linecap="round" fill="none" d="
M 1484.6 342.9
L 1484.6 337.9 1488.3 337.9
Q 1499.1 337.9 1503.45 334.8 1506.5 332.55 1506.5 328.55 1506.5 325.95 1505.7 323.35 1505.4 322.25 1501.5 313.2
L 1491.7 290 1426.05 290 1418.15 308.05
Q 1414.45 317.1 1414.45 323.05 1414.45 330.8 1420.75 334.5 1424.45 336.75 1438.95 337.9
L 1438.95 342.9 1377.2 342.9 1377.2 337.9
Q 1387.2 336.25 1393.65 329.65 1399.95 322.75 1409.45 301.45
L 1475.9 153.3 1478.45 153.3 1545.5 305.65
Q 1555.05 327.25 1561.15 332.9 1565.7 336.9 1573.9 337.9
L 1573.9 342.9 1484.6 342.9 Z
M 1487 279.85
L 1459.3 215.85 1430.9 279.85 1487 279.85 Z"/>

<path id="Layer1_0_MEMBER_6_1_STROKES" stroke="#000000" stroke-width="0.1" stroke-linejoin="round" stroke-linecap="round" fill="none" d="
M 1211.35 153.3
L 1211.35 210.75 1272.65 210.75 1205.4 342.9 1381.8 342.9 1381.8 287.1 1320.65 287.1 1389.3 153.3 1211.35 153.3 Z"/>
</defs>

<g transform="matrix( 1, 0, 0, 1, 0,0) ">
<use xlink:href="#Layer1_0_MEMBER_0_1_STROKES"/>
</g>

<g transform="matrix( 1, 0, 0, 1, 0,0) ">
<use xlink:href="#Layer1_0_MEMBER_1_1_STROKES"/>
</g>

<g transform="matrix( 1, 0, 0, 1, 0,0) ">
<use xlink:href="#Layer1_0_MEMBER_2_1_STROKES"/>
</g>

<g transform="matrix( 1, 0, 0, 1, 0,0) ">
<use xlink:href="#Layer1_0_MEMBER_3_1_STROKES"/>
</g>

<g transform="matrix( 1, 0, 0, 1, 0,0) ">
<use xlink:href="#Layer1_0_MEMBER_4_1_STROKES"/>
</g>

<g transform="matrix( 1, 0, 0, 1, 0,0) ">
<use xlink:href="#Layer1_0_MEMBER_5_1_STROKES"/>
</g>

<g transform="matrix( 1, 0, 0, 1, 0,0) ">
<use xlink:href="#Layer1_0_MEMBER_6_1_STROKES"/>
</g>

<g transform="matrix( 1, 0, 0, 1, 0,0) ">
<use xlink:href="#Layer0_0_MEMBER_0_FILL"/>
</g>

<g transform="matrix( 1, 0, 0, 1, 0,0) ">
<use xlink:href="#Layer0_0_MEMBER_1_FILL"/>
</g>
</svg>
