
<svg xmlns="http://www.w3.org/2000/svg" version="1.1" xmlns:xlink="http://www.w3.org/1999/xlink" preserveAspectRatio="none" x="0px" y="0px" width="2200px" height="500px" viewBox="0 0 2200 500">
<defs>
<g id="Layer0_0_MEMBER_0_FILL">
<path fill="#002155" stroke="none" d="
M 1188.35 69.15
Q 1187.8 68.35 1186.8 68.35
L 1186.45 68.3 1083.25 68.3 1082.9 68.35
Q 1081.9 68.35 1081.3 69.15
L 1067.2 89.1 1067.2 89.15
Q 1067.15 89.15 1067.1 89.15 1067.05 89.25 1067.1 89.3
L 1072.65 98.35 1075.2 104.1 1077.35 112.1
Q 1077.7 114 1077.85 116.2
L 1077.95 121.85 1076.65 130.45 1076.6 130.6 1076.55 130.7 1076.5 130.95 1075.8 133.45 1075.75 133.7 1075.65 133.9 1072.6 141.3 1072.6 141.35 1072.55 141.4 1067.65 151.75 1064.75 159.95
Q 1063.45 164.25 1062.6 168.4 1061.75 173.3 1061.55 177.1 1061.25 181.15 1061.6 185.9 1062 190.5 1063.05 194.7 1064 198.95 1065.75 203.15 1067.4 207.15 1069.85 211.15 1071.8 214.5 1074.75 218.3 1076 220.1 1077.4 221.6 1078.3 222.65 1080.3 224.55 1082.65 226.6 1083.35 227.15
L 1086.5 229.6
Q 1088.25 230.9 1089.8 231.85
L 1096.5 236.05 1114 245.85 1123.05 252.2 1125.25 254.05
Q 1129.15 256.6 1131.9 258.45 1135 260.4 1137.55 258.8 1137.75 258.6 1138.05 258.45 1141.15 256.2 1145.1 253.5
L 1145.15 253.5 1145.75 252.95 1145.95 252.8 1146.15 252.6 1147.1 251.85 1147.2 251.8 1150 249.7
Q 1152.4 248 1153.6 247.25
L 1180.9 231.2
Q 1183 229.8 1184.7 228.5 1186.75 226.95 1188.35 225.5
L 1193.45 220.3 1194.95 218.3
Q 1197.95 214.5 1199.9 211.15 1202.3 207.15 1203.95 203.15 1205.7 198.95 1206.7 194.7 1207.7 190.5 1208.15 185.9 1208.5 181.15 1208.2 177.1 1207.95 173.3 1207.1 168.4 1206.3 164.25 1205 159.95
L 1202.05 151.75 1196.4 139.8 1196.4 139.75 1196.35 139.65 1194.1 133.9 1193.95 133.7 1193.9 133.45 1193.2 130.95 1193.15 130.7 1193.1 130.6 1193.05 130.45 1192.15 125.95 1191.7 118.25
Q 1191.75 116.9 1191.85 116.2 1192 114 1192.4 112.1
L 1194.3 104.85 1196.6 99.25 1202.6 89.3
Q 1202.7 89.25 1202.6 89.15 1202.55 89.1 1202.5 89.15
L 1202.5 89.05 1188.35 69.15
M 1185.55 73.2
L 1185.6 73.25 1185.8 73.4 1199.5 90.4
Q 1187.3 106.7 1189.2 123
L 1189.6 129.55 1189.9 131.15 1189.9 131.25 1189.95 131.4 1191.2 136.45 1192.9 141.25 1192.95 141.3 1192.95 141.35 1197.9 153.25
Q 1198.3 154.35 1199.2 157.2
L 1200.35 161.15
Q 1201.45 165.25 1202.05 169.2 1202.65 173.25 1202.85 177.35 1202.95 181.6 1202.45 185.4
L 1202.4 185.9 1202.4 186.15 1202.35 186.3 1202.35 186.4 1201.35 191.85 1201.35 191.95 1200.95 193.3
Q 1199.9 197.25 1198.3 200.9 1196.75 204.35 1194.5 208 1192.3 211.5 1189.7 214.55
L 1189.6 214.65 1189.55 214.75
Q 1188.85 215.75 1188.3 216.3
L 1188 216.7 1186.95 217.8 1186.8 218 1186.6 218.15 1185.9 218.9 1180.6 223.3 1165.65 232.45 1153.05 239.3 1142.7 246.35 1142.6 246.45 1142.45 246.55 1141.3 247.5 1141.05 247.65 1140.5 248.15 1140.4 248.2 1140.45 248.2 1140.35 248.25 1139.9 248.7 1139.8 248.75 1139.7 248.85 1139.65 248.85 1139.55 249 1139.5 249 1138.85 249.75
Q 1134.55 253.45 1130.2 249
L 1129.85 248.6 1129.45 248.3 1129.3 248.15 1129.15 248.1 1123.6 243.85
Q 1121.4 242.35 1120.3 241.6
L 1109.25 235.15 1108.8 234.95 1096.8 228.35 1090.55 224.3
Q 1089.25 223.4 1087.65 222.1 1086 220.85 1084.85 219.8 1083.1 218.2 1082.35 217.35 1080.8 215.65 1080.15 214.75
L 1080.1 214.65 1080 214.55
Q 1077.45 211.5 1075.25 208 1072.95 204.35 1071.4 200.9 1069.85 197.25 1068.75 193.3
L 1068.45 192.1 1068.4 191.95 1068.4 191.85 1067.35 186.4 1067.35 186.3 1067.3 186.15 1067.3 185.9 1067.25 185.4
Q 1066.8 181.6 1066.9 177.35 1067.05 173.25 1067.65 169.2 1068.3 165.25 1069.35 161.15
L 1070.5 157.2 1070.55 156.95 1076 143.1 1076.05 143 1076.1 142.95 1076.1 142.9 1076.15 142.85 1078.55 136.45 1079.75 131.4 1079.8 131.25 1079.8 131.15 1080.55 126.3 1080.65 123
Q 1082.55 106.7 1070.35 90.4
L 1084.25 73.2 1185.55 73.2 Z"/>
</g>

<g id="Layer0_0_MEMBER_1_FILL">
<path fill="#002155" stroke="none" d="
M 1142.3 195.1
L 1142.3 108.4
Q 1142.8 104.25 1152.8 96.85
L 1116.9 96.85
Q 1126.9 104.25 1127.4 108.4
L 1127.4 195.1
Q 1126.9 199.25 1116.9 206.65
L 1152.8 206.65
Q 1142.8 199.25 1142.3 195.1 Z"/>
</g>

<g id="Layer0_0_MEMBER_2_FILL">
<path fill="#002155" stroke="none" d="
M 888.75 333.15
Q 888.05 333.9 888.05 334.9
L 888.05 398.2 830.9 333.85
Q 830.7 333.45 830.4 333.15 830.25 333 830.05 332.85 829.4 332.45 828.65 332.45 827.6 332.45 826.9 333.15 826.15 333.9 826.15 334.9
L 826.15 406.8
Q 826.15 407.8 826.9 408.55 827.6 409.25 828.65 409.25 829.65 409.25 830.4 408.55 831.1 407.8 831.1 406.8
L 831.1 344.85 873.8 392.8 888.75 408.55
Q 889.5 409.25 890.5 409.25 891.55 409.25 892.25 408.55 893 407.8 893 406.8
L 893 334.9
Q 893 333.9 892.25 333.15 891.55 332.45 890.5 332.45 889.5 332.45 888.75 333.15
M 1268.9 332.6
Q 1267.1 332.6 1267.1 335.15
L 1267.1 391.8
Q 1266.9 406.05 1247.55 407.1 1247.1 407.1 1246.65 407.15 1245.65 407.1 1244.75 407.1 1225.4 406.05 1225.2 391.8
L 1225.2 335.15
Q 1225.2 332.6 1223.45 332.6
L 1218.9 332.6
Q 1217.05 332.6 1217.05 335.15
L 1217.05 387.3
Q 1217.25 395.6 1219.2 399.35 1221.15 403.05 1224.95 405.5 1231.25 409.5 1242.6 409.85 1242.9 409.85 1243.15 409.85 1243.35 409.85 1243.55 409.85
L 1248.75 409.85
Q 1249 409.85 1249.2 409.85 1249.45 409.85 1249.7 409.85 1261.1 409.5 1267.35 405.5 1271.15 403.05 1273.1 399.35 1275.05 395.6 1275.25 387.3
L 1275.25 335.15
Q 1275.25 332.6 1273.45 332.6
L 1268.9 332.6
M 1185.6 340.35
Q 1184.05 339 1182.25 337.75 1177.35 334.65 1172.6 333.2 1150.2 326.15 1134.75 332.25 1133.05 332.25 1133.05 334.8
L 1133.05 407.3
Q 1133.05 409.9 1134.75 409.9
L 1139.05 409.9
Q 1167.7 411.7 1179.55 404.55 1182.85 402.85 1185.6 400.9 1196.55 392.85 1197.6 380.15 1198.25 372.45 1197.5 362.8 1197 356.1 1193.95 350.4 1190.95 344.9 1185.6 340.35
M 1140.8 340.8
Q 1140.6 334.9 1148.8 335 1161.9 335.15 1169.75 337.7 1173.5 338.85 1176.6 340.8 1183.3 345 1185.6 348.25 1186.35 349.3 1187 350.4 1190.25 355.9 1190.75 362.8 1191.45 372.45 1190.85 380.15 1190.2 388.1 1185.6 394.3 1181.1 400.35 1172.8 404.55 1167.2 406.9 1158.55 407.3 1156.25 407.35 1153.85 407.35 1141.85 407.25 1140.8 399.3
L 1140.8 340.8
M 1110.7 332.6
L 1105.9 332.6
Q 1103.95 332.6 1103.95 335.15
L 1103.95 407.65
Q 1103.95 410.25 1105.9 410.25
L 1110.7 410.25
Q 1112.55 410.25 1112.55 407.65
L 1112.55 335.15
Q 1112.55 332.6 1110.7 332.6
M 979.45 362.8
Q 978.95 356.1 975.9 350.4 972.9 344.9 967.55 340.35 966 339 964.2 337.75 959.3 334.65 954.55 333.2 932.15 326.15 916.7 332.25 915 332.25 915 334.8
L 915 407.3
Q 915 409.9 916.7 409.9
L 921 409.9
Q 949.65 411.7 961.5 404.55 964.8 402.85 967.55 400.9 978.45 392.85 979.55 380.15 980.15 372.45 979.45 362.8
M 972.7 362.8
Q 973.4 372.45 972.8 380.15 972.15 388.1 967.55 394.3 963.05 400.35 954.75 404.55 949.15 406.9 940.45 407.3 938.2 407.35 935.8 407.35 923.8 407.25 922.75 399.3
L 922.75 340.8
Q 922.55 334.9 930.75 335 943.8 335.15 951.7 337.7 955.4 338.85 958.55 340.8 965.2 345 967.55 348.25 968.3 349.3 968.95 350.4 972.2 355.9 972.7 362.8
M 1003 332.6
L 998.2 332.6
Q 996.3 332.6 996.3 335.15
L 996.3 407.65
Q 996.3 410.25 998.2 410.25
L 1003 410.25
Q 1004.85 410.25 1004.85 407.65
L 1004.85 335.15
Q 1004.85 332.6 1003 332.6
M 1025.55 331.8
Q 1022.35 332.15 1023.05 335.55
L 1051.75 408.1
Q 1052.7 410.65 1054.1 410.2
L 1057.6 409
Q 1058.4 408.75 1058.45 407.85 1058.85 407.3 1059.3 406.15
L 1085.65 336.15
Q 1085.7 335.95 1085.75 335.8 1086.6 332.3 1084.95 331.9 1084.7 331.8 1084.5 331.8 1082.3 331.4 1081.6 333.4 1081.6 333.45 1081.55 333.55
L 1056.2 401.2 1029.35 333.4
Q 1028.9 331.85 1026.8 331.75 1026.4 331.7 1026.05 331.75 1025.8 331.75 1025.55 331.8
M 1323.35 330.1
L 1319.8 331.3
Q 1319.1 331.55 1319 332.4 1318.45 332.95 1317.95 334.15
L 1287.35 404.15
Q 1286.25 406.65 1287.15 407.05
L 1289.55 408.1
Q 1290.45 408.5 1291.55 406
L 1303.1 379.65 1334.4 379.65 1343.5 406.9
Q 1344.3 409.45 1345.7 409
L 1349.25 407.8
Q 1350.7 407.35 1349.85 404.8
L 1325.65 332.25
Q 1324.8 329.65 1323.35 330.1
M 1333.2 376.15
L 1304.65 376.15 1320.85 339.1 1333.2 376.15
M 1374.8 332.6
L 1370 332.6
Q 1368.05 332.6 1368.05 335.15
L 1368.05 408.4
Q 1368.05 410.25 1369.35 410.25
L 1404.55 410.25
Q 1405.55 410.25 1406.3 409.5 1407 408.8 1407 407.75 1407 406.75 1406.3 406 1405.55 405.3 1404.55 405.3
L 1376.65 405.3 1376.65 335.15
Q 1376.65 332.6 1374.8 332.6 Z"/>
</g>

<g id="Layer0_0_MEMBER_2_MEMBER_0_FILL">
<path fill="#002155" stroke="none" d="
M 1086.95 379.15
Q 1087.8390625 379.3203125 1090.1 379.1 1090.9869140625 379.1 1092.3 375.4
L 1085.65 375.4 1085.65 376.6
Q 1085.65 379.1 1086.95 379.15 Z"/>
</g>

<g id="Layer0_0_MEMBER_2_MEMBER_1_FILL">
<path fill="#002155" stroke="none" d="
M 802.25 332.6
L 795.75 332.6
Q 793.15 332.6 793.15 335.15
L 793.15 407.65
Q 793.15 410.25 795.75 410.25
L 802.25 410.25
Q 804.8 410.25 804.8 407.65
L 804.8 335.15
Q 804.8 332.6 802.25 332.6 Z"/>
</g>

<path id="Layer1_0_1_STROKES" stroke="#000000" stroke-width="0.1" stroke-linejoin="round" stroke-linecap="round" fill="none" d="
M 1067.1 89.3
L 1072.65 98.35 1075.2 104.1 1077.35 112.1
Q 1077.7 114 1077.85 116.2
L 1077.95 121.85 1076.65 130.45 1076.6 130.6 1076.55 130.7 1076.5 130.95 1075.8 133.45 1075.75 133.7 1075.65 133.9 1072.6 141.3 1072.6 141.35 1072.55 141.4 1067.65 151.75 1064.75 159.95
Q 1063.45 164.25 1062.6 168.4 1061.75 173.3 1061.55 177.1 1061.25 181.15 1061.6 185.9 1062 190.5 1063.05 194.7 1064 198.95 1065.75 203.15 1067.4 207.15 1069.85 211.15 1071.8 214.5 1074.75 218.3 1076 220.1 1077.4 221.6 1078.3 222.65 1080.3 224.55 1082.65 226.6 1083.35 227.15
L 1086.5 229.6
Q 1088.25 230.9 1089.8 231.85
L 1096.5 236.05 1114 245.85 1123.05 252.2 1125.25 254.05
Q 1129.15 256.6 1131.9 258.45 1135 260.4 1137.55 258.8 1137.75 258.6 1138.05 258.45 1141.15 256.2 1145.1 253.5
L 1145.15 253.5 1145.75 252.95 1145.95 252.8 1146.15 252.6 1147.1 251.85 1147.2 251.8 1150 249.7
Q 1152.4 248 1153.6 247.25
L 1180.9 231.2
Q 1183 229.8 1184.7 228.5 1186.75 226.95 1188.35 225.5
L 1193.45 220.3 1194.95 218.3
Q 1197.95 214.5 1199.9 211.15 1202.3 207.15 1203.95 203.15 1205.7 198.95 1206.7 194.7 1207.7 190.5 1208.15 185.9 1208.5 181.15 1208.2 177.1 1207.95 173.3 1207.1 168.4 1206.3 164.25 1205 159.95
L 1202.05 151.75 1196.4 139.8 1196.4 139.75 1196.35 139.65 1194.1 133.9 1193.95 133.7 1193.9 133.45 1193.2 130.95 1193.15 130.7 1193.1 130.6 1193.05 130.45 1192.15 125.95 1191.7 118.25
Q 1191.75 116.9 1191.85 116.2 1192 114 1192.4 112.1
L 1194.3 104.85 1196.6 99.25 1202.6 89.3
Q 1202.7 89.25 1202.6 89.15 1202.55 89.1 1202.5 89.15
L 1202.5 89.05 1188.35 69.15
Q 1187.8 68.35 1186.8 68.35
L 1186.45 68.3 1083.25 68.3 1082.9 68.35
Q 1081.9 68.35 1081.3 69.15
L 1067.2 89.1 1067.2 89.15
Q 1067.15 89.15 1067.1 89.15 1067.05 89.25 1067.1 89.3 Z
M 1189.6 129.55
L 1189.9 131.15 1189.9 131.25 1189.95 131.4 1191.2 136.45 1192.9 141.25 1192.95 141.3 1192.95 141.35 1197.9 153.25
Q 1198.3 154.35 1199.2 157.2
L 1200.35 161.15
Q 1201.45 165.25 1202.05 169.2 1202.65 173.25 1202.85 177.35 1202.95 181.6 1202.45 185.4
L 1202.4 185.9 1202.4 186.15 1202.35 186.3 1202.35 186.4 1201.35 191.85 1201.35 191.95 1200.95 193.3
Q 1199.9 197.25 1198.3 200.9 1196.75 204.35 1194.5 208 1192.3 211.5 1189.7 214.55
L 1189.6 214.65 1189.55 214.75
Q 1188.85 215.75 1188.3 216.3
L 1188 216.7 1186.95 217.8 1186.8 218 1186.6 218.15 1185.9 218.9 1180.6 223.3 1165.65 232.45 1153.05 239.3 1142.7 246.35 1142.6 246.45 1142.45 246.55 1141.3 247.5 1141.05 247.65 1140.5 248.15 1140.4 248.2 1140.45 248.2 1140.35 248.25 1139.9 248.7 1139.8 248.75 1139.7 248.85 1139.65 248.85 1139.55 249 1139.5 249 1138.85 249.75
Q 1134.55 253.45 1130.2 249
L 1129.85 248.6 1129.45 248.3 1129.3 248.15 1129.15 248.1 1123.6 243.85
Q 1121.4 242.35 1120.3 241.6
L 1109.25 235.15 1108.8 234.95 1096.8 228.35 1090.55 224.3
Q 1089.25 223.4 1087.65 222.1 1086 220.85 1084.85 219.8 1083.1 218.2 1082.35 217.35 1080.8 215.65 1080.15 214.75
L 1080.1 214.65 1080 214.55
Q 1077.45 211.5 1075.25 208 1072.95 204.35 1071.4 200.9 1069.85 197.25 1068.75 193.3
L 1068.45 192.1 1068.4 191.95 1068.4 191.85 1067.35 186.4 1067.35 186.3 1067.3 186.15 1067.3 185.9 1067.25 185.4
Q 1066.8 181.6 1066.9 177.35 1067.05 173.25 1067.65 169.2 1068.3 165.25 1069.35 161.15
L 1070.5 157.2 1070.55 156.95 1076 143.1 1076.05 143 1076.1 142.95 1076.1 142.9 1076.15 142.85 1078.55 136.45 1079.75 131.4 1079.8 131.25 1079.8 131.15 1080.55 126.3 1080.65 123
Q 1082.55 106.7 1070.35 90.4
L 1084.25 73.2 1185.55 73.2 1185.6 73.25 1185.8 73.4 1199.5 90.4
Q 1187.3 106.7 1189.2 123
L 1189.6 129.55 Z"/>

<path id="Layer1_1_1_STROKES" stroke="#000000" stroke-width="0.1" stroke-linejoin="round" stroke-linecap="round" fill="none" d="
M 1116.9 96.85
L 1152.8 96.85
Q 1142.8 104.25 1142.3 108.4
L 1142.3 195.1
Q 1142.8 199.25 1152.8 206.65
L 1116.9 206.65
Q 1126.9 199.25 1127.4 195.1
L 1127.4 108.4
Q 1126.9 104.25 1116.9 96.85 Z"/>

<path id="Layer1_2_1_STROKES" stroke="#000000" stroke-width="0.1" stroke-linejoin="round" stroke-linecap="round" fill="none" d="
M 1358 346.05
L 1346 310.1 1330.275 346.05 1358 346.05 Z
M 1345 302.55
L 1348.45 301.4
Q 1349.85 300.95 1350.65 303.45
L 1374.15 373.8
Q 1374.95 376.3 1373.55 376.75
L 1370.1 377.9
Q 1368.75 378.35 1367.95 375.85
L 1359.125 349.45 1328.775 349.45 1317.6 375
Q 1316.55 377.4 1315.65 377
L 1313.35 376
Q 1312.45 375.6 1313.5 373.2
L 1343.2 305.3
Q 1343.703515625 304.1251953125 1344.175 303.6 1344.283203125 302.7888671875 1345 302.55 Z
M 1247.15 303.8
L 1251.55 303.8
Q 1253.25 303.8 1253.25 306.3
L 1253.25 361.2
Q 1253.43359375 375.0599609375 1272.2 376.025 1273.1056640625 376.058984375 1274.05 376.075 1274.5044921875 376.0591796875 1274.95 376.025 1293.71328125 375.065234375 1293.9 361.2
L 1293.9 306.3
Q 1293.9 303.8 1295.65 303.8
L 1300.05 303.8
Q 1301.8 303.8 1301.8 306.3
L 1301.8 356.85
Q 1301.6 364.9 1299.7 368.55 1297.8 372.15 1294.15 374.5 1288.05 378.4 1277 378.7 1276.75 378.7 1276.55 378.7 1276.35 378.7 1276.1 378.7
L 1271.05 378.7
Q 1270.85 378.7 1270.65 378.7 1270.4 378.7 1270.15 378.7 1259.1 378.4 1253 374.5 1249.35 372.15 1247.45 368.55 1245.55 364.9 1245.35 356.85
L 1245.35 306.3
Q 1245.35 303.8 1247.15 303.8 Z
M 1393.65 303.8
L 1398.3 303.8
Q 1400.1 303.8 1400.1 306.3
L 1400.1 374.3 1427.15 374.3
Q 1428.15 374.3 1428.85 375 1429.55 375.7 1429.55 376.7 1429.55 377.7 1428.85 378.4 1428.15 379.1 1427.15 379.1
L 1393.05 379.1
Q 1391.8 379.1 1391.8 377.3
L 1391.8 306.3
Q 1391.8 303.8 1393.65 303.8 Z
M 1033.15 303.8
L 1037.8 303.8
Q 1039.6 303.8 1039.6 306.3
L 1039.6 376.6
Q 1039.6 379.1 1037.8 379.1
L 1033.15 379.1
Q 1031.3 379.1 1031.3 376.6
L 1031.3 306.3
Q 1031.3 303.8 1033.15 303.8 Z
M 994.7 311.75
Q 1001.15 315.85 1003.4 319 1004.15 320 1004.75 321.05 1007.9 326.4 1008.4 333.1 1009.1 342.45 1008.5 349.9 1007.85 357.65 1003.4 363.65 999.05 369.5 991 373.6 985.55 375.85 977.15 376.25 974.95 376.3 972.6 376.3 961 376.2 959.95 368.5
L 959.95 311.75
Q 959.75 306.05 967.7 306.15 980.4 306.3 988.05 308.75 991.65 309.85 994.7 311.75 Z
M 958.25 378.75
L 954.1 378.75
Q 952.45 378.75 952.45 376.25
L 952.45 305.95
Q 952.45 303.45 954.1 303.45 969.1 297.55 990.8 304.4 995.4 305.8 1000.15 308.8 1001.9 310 1003.4 311.35 1008.6 315.75 1011.5 321.05 1014.45 326.6 1014.95 333.1 1015.65 342.45 1015.05 349.9 1014 362.25 1003.4 370.05 1000.75 371.95 997.55 373.6 986.05 380.5 958.25 378.75 Z
M 1085.05 377
L 1057.25 306.65
Q 1056.5603515625 303.3564453125 1059.65 303.025 1059.909765625 302.996484375 1060.15 302.975 1060.51171875 302.957421875 1060.825 302.975 1062.8751953125 303.0853515625 1063.35 304.6
L 1089.35 370.35 1113.95 304.75
Q 1114 304.65 1114 304.6 1114.7 302.65 1116.8 303.05 1117 303.05 1117.25 303.15 1118.85 303.5 1118.05 306.9
L 1118.025 306.9
Q 1117.9974609375 307.0703125 1117.95 307.25
L 1092.4 375.15
Q 1092.34765625 375.2779296875 1092.3 375.4 1090.9869140625 379.1 1090.1 379.1 1087.8390625 379.3203125 1086.95 379.15 1086.59453125 379.136328125 1086.325 378.95 1085.6208984375 378.50234375 1085.05 377 Z
M 1206.15 311.75
Q 1212.6 315.85 1214.85 319 1215.6 320 1216.2 321.05 1219.35 326.4 1219.85 333.1 1220.55 342.45 1219.95 349.9 1219.3 357.65 1214.85 363.65 1210.5 369.5 1202.45 373.6 1197 375.85 1188.6 376.25 1186.4 376.3 1184.05 376.3 1172.45 376.2 1171.4 368.5
L 1171.4 311.75
Q 1171.2 306.05 1179.15 306.15 1191.85 306.3 1199.5 308.75 1203.1 309.85 1206.15 311.75 Z
M 1169.7 378.75
L 1165.55 378.75
Q 1163.9 378.75 1163.9 376.25
L 1163.9 305.95
Q 1163.9 303.45 1165.55 303.45 1180.55 297.55 1202.25 304.4 1206.85 305.8 1211.6 308.8 1213.35 310 1214.85 311.35 1220.05 315.75 1222.95 321.05 1225.9 326.6 1226.4 333.1 1227.1 342.45 1226.5 349.9 1225.45 362.25 1214.85 370.05 1212.2 371.95 1209 373.6 1197.5 380.5 1169.7 378.75 Z
M 1137.55 303.8
L 1142.2 303.8
Q 1144 303.8 1144 306.3
L 1144 376.6
Q 1144 379.1 1142.2 379.1
L 1137.55 379.1
Q 1135.7 379.1 1135.7 376.6
L 1135.7 306.3
Q 1135.7 303.8 1137.55 303.8 Z
M 868.7 303.65
Q 869.46015625 303.65 870.05 304.05 870.23203125 304.18203125 870.4 304.35 870.70078125 304.65078125 870.875 305
L 926.3 367.4 926.3 306.05
Q 926.3 305.05 927 304.35 927.7 303.65 928.7 303.65 929.7 303.65 930.4 304.35 931.1 305.05 931.1 306.05
L 931.1 375.75
Q 931.1 376.75 930.4 377.45 929.7 378.15 928.7 378.15 927.7 378.15 927 377.45
L 912.5 362.2 871.1 315.7 871.1 375.75
Q 871.1 376.75 870.4 377.45 869.7 378.15 868.7 378.15 867.7 378.15 867 377.45 866.3 376.75 866.3 375.75
L 866.3 306.05
Q 866.3 305.05 867 304.35 867.7 303.65 868.7 303.65 Z
M 836.8 303.8
L 843.1 303.8
Q 845.6 303.8 845.6 306.3
L 845.6 376.6
Q 845.6 379.1 843.1 379.1
L 836.8 379.1
Q 834.3 379.1 834.3 376.6
L 834.3 306.3
Q 834.3 303.8 836.8 303.8 Z"/>
</defs>

<g transform="matrix( 1, 0, 0, 1, 0,0) ">
<use xlink:href="#Layer1_0_1_STROKES"/>
</g>

<g transform="matrix( 1, 0, 0, 1, 0,0) ">
<use xlink:href="#Layer1_1_1_STROKES"/>
</g>

<g transform="matrix( 1, 0, 0, 1, 0,0) ">
<use xlink:href="#Layer1_2_1_STROKES"/>
</g>

<g transform="matrix( 1.0312347412109375, 0, 0, 1.0312347412109375, -67.2,19.3) ">
<use xlink:href="#Layer0_0_MEMBER_0_FILL"/>
</g>

<g transform="matrix( 1.0312347412109375, 0, 0, 1.0312347412109375, -67.2,19.3) ">
<use xlink:href="#Layer0_0_MEMBER_1_FILL"/>
</g>

<g transform="matrix( 1, 0, 0, 1, 0,0) ">
<use xlink:href="#Layer0_0_MEMBER_2_FILL"/>
</g>

<g transform="matrix( 1.0312347412109375, 0, 0, 1.0312347412109375, -67.2,19.3) ">
<use xlink:href="#Layer0_0_MEMBER_2_MEMBER_0_FILL"/>
</g>

<g transform="matrix( 0.7296142578125, 0, 0, 1, 217.6,0) ">
<use xlink:href="#Layer0_0_MEMBER_2_MEMBER_1_FILL"/>
</g>
</svg>
