
<svg xmlns="http://www.w3.org/2000/svg" version="1.1" xmlns:xlink="http://www.w3.org/1999/xlink" preserveAspectRatio="none" x="0px" y="0px" width="2200px" height="500px" viewBox="0 0 2200 500">
<defs>
<g id="Layer0_0_MEMBER_0_FILL">
<path fill="#EF0C19" stroke="none" d="
M 1369.1 355.65
L 1381.15 297.15 1279.55 297.15 1315.15 124 1233.3 124 1185.65 355.65 1369.1 355.65 Z"/>
</g>

<g id="Layer0_0_MEMBER_1_FILL">
<path fill="#EF0C19" stroke="none" d="
M 1941.8 937.05
Q 1935.9 936.55 1929.4 936.55
L 1814 936.55 1765.8 1168.25 1847 1168.3 1864.25 1086.15 1877.4 1086.15 1894.2 1168.25 1973.25 1168.25 1946.6 1067.65
Q 1996.2 1057.15 1998.35 996.75 2000.25 941.85 1941.8 937.05
M 1915.2 1014.95
Q 1914.4 1017.55 1913.1 1019.8 1904.8 1033.8 1875.65 1031.75
L 1883.45 994.6
Q 1906.3 991.2 1913.1 999.5 1917.45 1004.8 1915.2 1014.95 Z"/>
</g>

<g id="Layer0_0_MEMBER_2_FILL">
<path fill="#EF0C19" stroke="none" d="
M 1744.1 1168.25
L 1756.2 1109.55 1651 1109.55 1674.5 995.25 1779.7 995.25 1791.75 936.55 1608 936.55 1560.35 1168.25 1744.1 1168.25 Z"/>
</g>

<g id="Layer0_0_MEMBER_3_FILL">
<path fill="#EF0C19" stroke="none" d="
M 1881.55 217.1
Q 1881.55 216.2 1880.35 215.7
L 1508.7 108.45
Q 1506.25 107.8 1505.25 107.8 1503.85 107.8 1503.85 108.45 1503.65 109.35 1504.2 110 1505.05 111.05 1506.1 111.4 1543.55 133.35 1563.25 162.7 1584.35 193.95 1582.25 229.15 1580 266.8 1551.5 305.3 1520.75 346.75 1461.9 386.3
L 1460.65 387.35
Q 1460.3 387.85 1460.3 388.7 1460.3 389.4 1461.55 389.75 1462.55 389.95 1463.95 389.4
L 1880.35 218.3
Q 1881.55 217.75 1881.55 217.1 Z"/>
</g>

<g id="Layer0_0_MEMBER_4_FILL">
<path fill="#EF0C19" stroke="none" d="
M 1396.6 355.65
L 1479.9 355.65 1522.9 146.8 1435.6 166.2 1396.6 355.65
M 1524.6 138.45
L 1527.55 124 1444.25 124 1437.3 157.85 1524.6 138.45 Z"/>
</g>

<path id="Layer1_0_MEMBER_0_1_STROKES" stroke="#000000" stroke-width="1" stroke-linejoin="round" stroke-linecap="round" fill="none" d="
M 1279.55 297.15
L 1381.15 297.15 1369.1 355.65 1185.65 355.65 1233.3 124 1315.15 124 1279.55 297.15 Z"/>

<path id="Layer1_0_MEMBER_1_1_STROKES" stroke="#000000" stroke-width="1" stroke-linejoin="round" stroke-linecap="round" fill="none" d="
M 1321.403616333008 355.79000015258794
L 1402.5899871826173 355.8399826049804 1419.8370918273927 273.7188133239747 1432.9848846435548 273.7188133239747 1449.782064819336 355.79000015258794 1528.8187965393067 355.79000015258794 1502.1732696533204 255.2253059387208
Q 1551.764944458008 244.7289909362794 1553.9145835876466 184.35018844604497 1555.8142646789552 129.46945571899425 1497.374075317383 124.67114028930666 1491.475065612793 124.17131576538088 1484.976156616211 124.17131576538088
L 1369.595526123047 124.17131576538088 1321.403616333008 355.79000015258794 Z
M 1470.7785400390626 202.54380111694343
Q 1473.0281623840333 192.39736328125002 1468.67889251709 187.09922332763676 1461.8800338745118 178.80213623046882 1439.0338691711427 182.20094299316418
L 1431.2351783752442 219.33790512084965
Q 1460.3802856445313 221.38718566894522 1468.67889251709 207.39209899902346 1469.9786743164063 205.14288864135744 1470.7785400390626 202.54380111694343 Z"/>

<path id="Layer1_0_MEMBER_2_1_STROKES" stroke="#000000" stroke-width="1" stroke-linejoin="round" stroke-linecap="round" fill="none" d="
M 1121.1381004333496 355.79000015258794
L 1168.7801025390625 124.17131576538088 1352.4992607116699 124.17131576538088 1340.45128326416 182.85071487426762 1235.2689407348632 182.85071487426762 1211.772885131836 297.1106010437011 1316.9552276611328 297.1106010437011 1304.857258605957 355.79000015258794 1121.1381004333496 355.79000015258794 Z"/>

<path id="Layer1_0_MEMBER_3_1_STROKES" stroke="#000000" stroke-width="1" stroke-linejoin="round" stroke-linecap="round" fill="none" d="
M 1563.25 162.7
Q 1584.35 193.95 1582.25 229.15 1580 266.8 1551.5 305.3 1520.75 346.75 1461.9 386.3
L 1460.65 387.35
Q 1460.3 387.85 1460.3 388.7 1460.3 389.4 1461.55 389.75 1462.55 389.95 1463.95 389.4
L 1880.35 218.3
Q 1881.55 217.75 1881.55 217.1 1881.55 216.2 1880.35 215.7
L 1508.7 108.45
Q 1506.25 107.8 1505.25 107.8 1503.85 107.8 1503.85 108.45 1503.65 109.35 1504.2 110 1505.05 111.05 1506.1 111.4 1543.55 133.35 1563.25 162.7 Z"/>

<path id="Layer1_0_MEMBER_4_1_STROKES" stroke="#000000" stroke-width="1" stroke-linejoin="round" stroke-linecap="round" fill="none" d="
M 1527.55 124
L 1444.25 124 1437.3 157.85 1524.6 138.45 1527.55 124 Z
M 1479.9 355.65
L 1522.9 146.8 1435.6 166.2 1396.6 355.65 1479.9 355.65 Z"/>
</defs>

<g transform="matrix( 1, 0, 0, 1, -539.55,0.15) ">
<use xlink:href="#Layer1_0_MEMBER_0_1_STROKES"/>
</g>

<g transform="matrix( 0.9998321533203125, 0, 0, 0.9996490478515625, -444.1,-812.05) ">
<use xlink:href="#Layer1_0_MEMBER_1_1_STROKES" transform="matrix( 1.0001678466796875, 0, 0, 1.0003509521484375, 444.15,812.3) "/>
</g>

<g transform="matrix( 0.9998321533203125, 0, 0, 0.9996490478515625, -438.95,-812.05) ">
<use xlink:href="#Layer1_0_MEMBER_2_1_STROKES" transform="matrix( 1.0001678466796875, 0, 0, 1.0003509521484375, 439,812.3) "/>
</g>

<g transform="matrix( 1, 0, 0, 1, -539.3,1.2) ">
<use xlink:href="#Layer1_0_MEMBER_3_1_STROKES"/>
</g>

<g transform="matrix( 1, 0, 0, 1, -550.45,0.2) ">
<use xlink:href="#Layer1_0_MEMBER_4_1_STROKES"/>
</g>

<g transform="matrix( 1, 0, 0, 1, -539.55,0.15) ">
<use xlink:href="#Layer0_0_MEMBER_0_FILL"/>
</g>

<g transform="matrix( 0.9998321533203125, 0, 0, 0.9996490478515625, -444.1,-812.05) ">
<use xlink:href="#Layer0_0_MEMBER_1_FILL"/>
</g>

<g transform="matrix( 0.9998321533203125, 0, 0, 0.9996490478515625, -438.95,-812.05) ">
<use xlink:href="#Layer0_0_MEMBER_2_FILL"/>
</g>

<g transform="matrix( 1, 0, 0, 1, -539.3,1.2) ">
<use xlink:href="#Layer0_0_MEMBER_3_FILL"/>
</g>

<g transform="matrix( 1, 0, 0, 1, -550.45,0.2) ">
<use xlink:href="#Layer0_0_MEMBER_4_FILL"/>
</g>
</svg>
