
<svg xmlns="http://www.w3.org/2000/svg" version="1.1" xmlns:xlink="http://www.w3.org/1999/xlink" preserveAspectRatio="none" x="0px" y="0px" width="2200px" height="500px" viewBox="0 0 2200 500">
<defs>
<g id="Layer0_0_MEMBER_0_FILL">
<path fill="#EF0C19" stroke="none" d="
M 1369.1 355.65
L 1381.15 297.15 1279.55 297.15 1315.15 124 1233.3 124 1185.65 355.65 1369.1 355.65 Z"/>
</g>

<g id="Layer0_0_MEMBER_1_FILL">
<path fill="#EF0C19" stroke="none" d="
M 1941.8 937.05
Q 1935.9 936.55 1929.4 936.55
L 1814 936.55 1765.8 1168.25 1847 1168.3 1864.25 1086.15 1877.4 1086.15 1894.2 1168.25 1973.25 1168.25 1946.6 1067.65
Q 1996.2 1057.15 1998.35 996.75 2000.25 941.85 1941.8 937.05
M 1915.2 1014.95
Q 1914.4 1017.55 1913.1 1019.8 1904.8 1033.8 1875.65 1031.75
L 1883.45 994.6
Q 1906.3 991.2 1913.1 999.5 1917.45 1004.8 1915.2 1014.95 Z"/>
</g>

<g id="Layer0_0_MEMBER_2_FILL">
<path fill="#EF0C19" stroke="none" d="
M 1744.1 1168.25
L 1756.2 1109.55 1651 1109.55 1674.5 995.25 1779.7 995.25 1791.75 936.55 1608 936.55 1560.35 1168.25 1744.1 1168.25 Z"/>
</g>

<g id="Layer0_0_MEMBER_3_FILL">
<path fill="#EF0C19" stroke="none" d="
M 1881.55 217.1
Q 1881.55 216.2 1880.35 215.7
L 1508.7 108.45
Q 1506.25 107.8 1505.25 107.8 1503.85 107.8 1503.85 108.45 1503.65 109.35 1504.2 110 1505.05 111.05 1506.1 111.4 1543.55 133.35 1563.25 162.7 1584.35 193.95 1582.25 229.15 1580 266.8 1551.5 305.3 1520.75 346.75 1461.9 386.3
L 1460.65 387.35
Q 1460.3 387.85 1460.3 388.7 1460.3 389.4 1461.55 389.75 1462.55 389.95 1463.95 389.4
L 1880.35 218.3
Q 1881.55 217.75 1881.55 217.1 Z"/>
</g>

<g id="Layer0_0_MEMBER_4_FILL">
<path fill="#EF0C19" stroke="none" d="
M 1396.6 355.65
L 1479.9 355.65 1522.9 146.8 1435.6 166.2 1396.6 355.65
M 1524.6 138.45
L 1527.55 124 1444.25 124 1437.3 157.85 1524.6 138.45 Z"/>
</g>

<g id="Layer0_0_MEMBER_5_FILL">
<path fill="#001991" stroke="none" d="
M 1345.3 327.2
L 1345.3 277.5 1290.85 277.5 1351.95 158.25 1193.15 158.25 1193.15 209.4 1248.05 209.4 1187.85 327.2 1345.3 327.2 Z"/>
</g>

<g id="Layer0_0_MEMBER_6_FILL">
<path fill="#001991" stroke="none" d="
M 1435.65 158.25
L 1433.3 158.25 1374.1 290.35
Q 1365.7 309.25 1359.95 315.35 1354.2 321.35 1345.3 322.7
L 1345.3 327.2 1400.35 327.2 1400.35 322.7
Q 1387.4 321.7 1384.1 319.75 1378.5 316.45 1378.5 309.5 1378.5 304.25 1381.9 296.2
L 1388.9 280.1 1447.35 280.1 1456.15 300.7
Q 1459.55 308.75 1459.8 309.85 1460.55 312.2 1460.55 314.4 1460.55 318.05 1457.85 320 1453.95 322.7 1444.3 322.7
L 1441 322.7 1441 327.2 1521.1 327.2 1521.1 322.7
Q 1513.5 322.05 1509.35 318.3 1503.85 313.3 1495.35 294
L 1435.65 158.25
M 1443.2 271.05
L 1393.15 271.05 1418.55 214.05 1443.2 271.05 Z"/>
</g>

<g id="Layer0_0_MEMBER_7_FILL">
<path fill="#001991" stroke="none" d="
M 1637.55 158.25
L 1637.55 162.8
Q 1651.35 162.55 1657.2 169.65 1661.45 174.85 1661.45 189.75
L 1661.45 260.95 1579.8 158.25 1521.1 158.25 1521.1 162.8
Q 1528.65 163.05 1532.7 165.1 1536.7 167.2 1541.95 173.8
L 1545.5 178.15 1545.5 298.4
Q 1545.5 311.6 1540.15 317.05 1534.75 322.55 1521.1 322.7
L 1521.1 327.2 1579.8 327.2 1579.8 322.7 1575.9 322.7
Q 1567.5 322.7 1561 317.7 1554.4 312.65 1554.4 298.4
L 1554.4 189.75 1666 327.2 1670.5 327.2 1670.5 189.75
Q 1670.5 178.05 1672.6 173.3 1674.55 168.4 1678.2 166.35 1681.75 164.15 1692.25 162.8
L 1692.25 158.25 1637.55 158.25 Z"/>
</g>

<path id="Layer1_0_1_STROKES" stroke="#000000" stroke-width="0.1" stroke-linejoin="round" stroke-linecap="round" fill="none" d="
M 588.5241065979003 284.54139862060543
L 662.6327613830567 284.54139862060543 653.8432998657227 327.21133575439455 520.0319541931153 327.21133575439455 554.788621520996 158.2456787109375 614.4913124084474 158.2456787109375 588.5241065979003 284.54139862060543 Z"/>

<path id="Layer1_1_1_STROKES" stroke="#000000" stroke-width="0.1" stroke-linejoin="round" stroke-linecap="round" fill="none" d="
M 1012.5600891113281 327.3870742797851
L 1071.7775085449218 327.4235321044921 1084.3575637817382 267.5233261108399 1093.947576904297 267.5233261108399 1106.1994567871093 327.3870742797851 1163.8489273071289 327.3870742797851 1144.413653564453 254.03393096923833
Q 1180.585870361328 246.37778778076176 1182.1538192749022 202.33673553466792 1183.5394485473632 162.30604400634763 1140.9131164550781 158.80609283447257 1136.6103729248048 158.44151458740225 1131.8700622558595 158.44151458740225
L 1047.7113159179687 158.44151458740225 1012.5600891113281 327.3870742797851 Z
M 1121.514306640625 215.60738372802734
Q 1123.1551834106444 208.2064453124999 1119.9828216552733 204.34191589355464 1115.0237274169922 198.2899169921875 1098.3597122192382 200.7690490722656
L 1092.671339416504 227.8572128295898
Q 1113.9298095703125 229.35198364257803 1119.9828216552733 219.14379272460928 1120.9308837890626 217.50319061279288 1121.514306640625 215.60738372802734 Z"/>

<path id="Layer1_2_1_STROKES" stroke="#000000" stroke-width="0.1" stroke-linejoin="round" stroke-linecap="round" fill="none" d="
M 866.5298080444335 327.3870742797851
L 901.279931640625 158.44151458740225 1035.2848678588866 158.44151458740225 1026.4970611572267 201.24300079345699 949.7769561767578 201.24300079345699 932.6389099121094 284.5855880737304 1009.3590148925781 284.5855880737304 1000.5347442626952 327.3870742797851 866.5298080444335 327.3870742797851 Z"/>

<path id="Layer1_3_1_STROKES" stroke="#000000" stroke-width="0.1" stroke-linejoin="round" stroke-linecap="round" fill="none" d="
M 795.6593955993652 187.12348327636718
Q 811.0500709533691 209.917253112793 809.5182975769043 235.59215545654297 807.8771118164062 263.05408935546876 787.0887588500976 291.1360137939453 764.659220123291 321.36967010498046 721.7330947875977 350.21746520996095
L 720.8213249206543 350.9833358764648
Q 720.56602935791 351.34803619384763 720.56602935791 351.9680267333984 720.56602935791 352.4786071777344 721.4777992248534 352.73389739990233 722.207215118408 352.87977752685543 723.2283973693849 352.4786071777344
L 1026.9571754455565 227.67815856933595
Q 1027.832474517822 227.27698822021483 1027.832474517822 226.80287780761716 1027.832474517822 226.14641723632815 1026.9571754455565 225.78171691894534
L 755.8697586059571 147.55349884033205
Q 754.082689666748 147.0793884277344 753.3532737731933 147.0793884277344 752.3320915222167 147.0793884277344 752.3320915222167 147.55349884033205 752.1862083435059 148.2099594116211 752.587387084961 148.68406982421874 753.2073905944823 149.44994049072267 753.9732772827148 149.70523071289062 781.2899024963377 165.7155746459961 795.6593955993652 187.12348327636718 Z"/>

<path id="Layer1_4_1_STROKES" stroke="#000000" stroke-width="0.1" stroke-linejoin="round" stroke-linecap="round" fill="none" d="
M 761.4692481994628 158.2456787109375
L 700.7089042663574 158.2456787109375 695.6394638061522 182.9358901977539 759.3174713134765 168.78551788330077 761.4692481994628 158.2456787109375 Z
M 726.7125808715821 327.21133575439455
L 758.0774642944336 174.87601318359376 694.3994567871093 189.02638549804686 665.9522369384765 327.21133575439455 726.7125808715821 327.21133575439455 Z"/>

<path id="Layer1_5_1_STROKES" stroke="#000000" stroke-width="0.1" stroke-linejoin="round" stroke-linecap="round" fill="none" d="
M 1193.15 158.25
L 1193.15 209.4 1248.05 209.4 1187.85 327.2 1345.3 327.2 1345.3 277.5 1290.85 277.5 1351.95 158.25 1193.15 158.25 Z"/>

<path id="Layer1_6_1_STROKES" stroke="#000000" stroke-width="0.1" stroke-linejoin="round" stroke-linecap="round" fill="none" d="
M 1447.35 280.1
L 1388.9 280.1 1381.9 296.2
Q 1378.5 304.25 1378.5 309.5 1378.5 316.45 1384.1 319.75 1387.4 321.7 1400.35 322.7
L 1400.35 327.2 1345.3 327.2 1345.3 322.7
Q 1354.2 321.35 1359.95 315.35 1365.7 309.25 1374.1 290.35
L 1433.3 158.25 1435.65 158.25 1495.35 294
Q 1503.85 313.3 1509.35 318.3 1513.5 322.05 1521.1 322.7
L 1521.1 327.2 1441 327.2 1441 322.7 1444.3 322.7
Q 1453.95 322.7 1457.85 320 1460.55 318.05 1460.55 314.4 1460.55 312.2 1459.8 309.85 1459.55 308.75 1456.15 300.7
L 1447.35 280.1 Z
M 1443.2 271.05
L 1418.55 214.05 1393.15 271.05 1443.2 271.05 Z"/>

<path id="Layer1_7_1_STROKES" stroke="#000000" stroke-width="0.1" stroke-linejoin="round" stroke-linecap="round" fill="none" d="
M 1579.8 158.25
L 1661.45 260.95 1661.45 189.75
Q 1661.45 174.85 1657.2 169.65 1651.35 162.55 1637.55 162.8
L 1637.55 158.25 1692.25 158.25 1692.25 162.8
Q 1681.75 164.15 1678.2 166.35 1674.55 168.4 1672.6 173.3 1670.5 178.05 1670.5 189.75
L 1670.5 327.2 1666.025 327.2 1554.4 189.75 1554.4 298.4
Q 1554.4 312.65 1561 317.7 1567.5 322.7 1575.9 322.7
L 1579.8 322.7 1579.8 327.2 1521.1 327.2 1521.1 322.7
Q 1534.75 322.55 1540.15 317.05 1545.5 311.6 1545.5 298.4
L 1545.5 178.15 1541.95 173.8
Q 1536.7 167.2 1532.7 165.1 1528.65 163.05 1521.1 162.8
L 1521.1 158.25 1579.8 158.25 Z"/>
</defs>

<g transform="matrix( 0.7294158935546875, 0, 0, 0.729400634765625, -344.8,67.8) ">
<use xlink:href="#Layer1_0_1_STROKES" transform="matrix( 1.3709564208984375, 0, 0, 1.3709869384765625, 472.7,-92.95) "/>
</g>

<g transform="matrix( 0.729278564453125, 0, 0, 0.729156494140625, -275.2,-524.45) ">
<use xlink:href="#Layer1_1_1_STROKES" transform="matrix( 1.3712158203125, 0, 0, 1.3714447021484375, 377.35,719.25) "/>
</g>

<g transform="matrix( 0.729278564453125, 0, 0, 0.729156494140625, -271.4,-524.45) ">
<use xlink:href="#Layer1_2_1_STROKES" transform="matrix( 1.3712158203125, 0, 0, 1.3714447021484375, 372.1,719.25) "/>
</g>

<g transform="matrix( 0.7294158935546875, 0, 0, 0.729400634765625, -344.6,68.45) ">
<use xlink:href="#Layer1_3_1_STROKES" transform="matrix( 1.3709564208984375, 0, 0, 1.3709869384765625, 472.4,-93.8) "/>
</g>

<g transform="matrix( 0.7294158935546875, 0, 0, 0.729400634765625, -352.75,67.8) ">
<use xlink:href="#Layer1_4_1_STROKES" transform="matrix( 1.3709564208984375, 0, 0, 1.3709869384765625, 483.6,-92.95) "/>
</g>

<g transform="matrix( 1, 0, 0, 1, 0,0) ">
<use xlink:href="#Layer1_5_1_STROKES"/>
</g>

<g transform="matrix( 1, 0, 0, 1, 0,0) ">
<use xlink:href="#Layer1_6_1_STROKES"/>
</g>

<g transform="matrix( 1, 0, 0, 1, 0,0) ">
<use xlink:href="#Layer1_7_1_STROKES"/>
</g>

<g transform="matrix( 0.7294158935546875, 0, 0, 0.729400634765625, -344.8,69.8) ">
<use xlink:href="#Layer0_0_MEMBER_0_FILL"/>
</g>

<g transform="matrix( 0.729278564453125, 0, 0, 0.729156494140625, -275.2,-522.45) ">
<use xlink:href="#Layer0_0_MEMBER_1_FILL"/>
</g>

<g transform="matrix( 0.729278564453125, 0, 0, 0.729156494140625, -271.4,-522.45) ">
<use xlink:href="#Layer0_0_MEMBER_2_FILL"/>
</g>

<g transform="matrix( 0.7294158935546875, 0, 0, 0.729400634765625, -344.6,70.45) ">
<use xlink:href="#Layer0_0_MEMBER_3_FILL"/>
</g>

<g transform="matrix( 0.7294158935546875, 0, 0, 0.729400634765625, -352.75,69.8) ">
<use xlink:href="#Layer0_0_MEMBER_4_FILL"/>
</g>

<g transform="matrix( 1, 0, 0, 1, 0,2) ">
<use xlink:href="#Layer0_0_MEMBER_5_FILL"/>
</g>

<g transform="matrix( 1, 0, 0, 1, 0,2) ">
<use xlink:href="#Layer0_0_MEMBER_6_FILL"/>
</g>

<g transform="matrix( 1, 0, 0, 1, 0,2) ">
<use xlink:href="#Layer0_0_MEMBER_7_FILL"/>
</g>
</svg>
