
<svg xmlns="http://www.w3.org/2000/svg" version="1.1" xmlns:xlink="http://www.w3.org/1999/xlink" preserveAspectRatio="none" x="0px" y="0px" width="1920px" height="1080px" viewBox="0 0 1920 1080">
<defs>
<linearGradient id="Gradient_1" gradientUnits="userSpaceOnUse" x1="1061.95" y1="231.1875" x2="1061.95" y2="161.6125" spreadMethod="pad">
<stop  offset="0%" stop-color="#1D3F7F"/>

<stop  offset="100%" stop-color="#0060AD"/>
</linearGradient>

<linearGradient id="Gradient_2" gradientUnits="userSpaceOnUse" x1="1194.95" y1="234.3875" x2="1194.95" y2="161.6125" spreadMethod="pad">
<stop  offset="0%" stop-color="#1D3F7F"/>

<stop  offset="100%" stop-color="#0060AD"/>
</linearGradient>

<linearGradient id="Gradient_3" gradientUnits="userSpaceOnUse" x1="1297.3" y1="314.6125" x2="1297.3" y2="181.4875" spreadMethod="pad">
<stop  offset="0%" stop-color="#870E0F"/>

<stop  offset="100%" stop-color="#E00B13"/>
</linearGradient>

<linearGradient id="Gradient_4" gradientUnits="userSpaceOnUse" x1="816.35" y1="332.71250000000003" x2="1182.5500000000002" y2="279.4875" spreadMethod="pad">
<stop  offset="0%" stop-color="#005FAC"/>

<stop  offset="100%" stop-color="#14438B"/>
</linearGradient>

<linearGradient id="Gradient_5" gradientUnits="userSpaceOnUse" x1="1185.1000000000001" y1="292.45" x2="1311.3" y2="258.65000000000003" spreadMethod="pad">
<stop  offset="0%" stop-color="#961009"/>

<stop  offset="100%" stop-color="#CC1F21"/>
</linearGradient>

<linearGradient id="Gradient_6" gradientUnits="userSpaceOnUse" x1="728.9875" y1="240.6125" x2="761.1125" y2="184.9875" spreadMethod="pad">
<stop  offset="0%" stop-color="#A21D22"/>

<stop  offset="100%" stop-color="#D11F1D"/>
</linearGradient>

<linearGradient id="Gradient_7" gradientUnits="userSpaceOnUse" x1="883.55" y1="232.88750000000002" x2="883.55" y2="187.2125" spreadMethod="pad">
<stop  offset="0%" stop-color="#821414"/>

<stop  offset="1.1764705882352942%" stop-color="#880909"/>

<stop  offset="100%" stop-color="#BF1A1E"/>

<stop  offset="100%" stop-color="#BF1A1E"/>
</linearGradient>

<linearGradient id="Gradient_8" gradientUnits="userSpaceOnUse" x1="865.3" y1="197.6875" x2="865.3" y2="150.41250000000002" spreadMethod="pad">
<stop  offset="0%" stop-color="#C32D33"/>

<stop  offset="100%" stop-color="#F43D41"/>

<stop  offset="100%" stop-color="#C8161B"/>

<stop  offset="100%" stop-color="#C8161B"/>
</linearGradient>

<g id="Layer0_0_MEMBER_0_FILL">
<path fill="#595959" stroke="none" d="
M 1242.6 341.1
Q 1242.6 340.65 1242.3 340.4 1242.05 340.1 1241.6 340.1
L 1231.3 340.1
Q 1230.85 340.1 1230.55 340.4 1230.3 340.65 1230.3 341.1
L 1230.3 392.75
Q 1230.3 393.25 1230.55 393.5 1230.85 393.75 1231.3 393.75
L 1241.6 393.75
Q 1242.05 393.75 1242.3 393.5 1242.6 393.25 1242.6 392.75
L 1242.6 341.1
M 1211.2 341.25
Q 1211.35 340.75 1211.15 340.45 1210.9 340.1 1210.35 340.1
L 1199.7 340.1
Q 1199.3 340.1 1199 340.3 1198.75 340.5 1198.55 340.9
L 1191.3 360.9
Q 1189.6 365.45 1188.3 370.05 1187 374.6 1186.3 378.4 1186.15 379.1 1185.6 379.1 1185.05 379.1 1184.9 378.4 1184.2 374.6 1182.85 370.05 1181.55 365.45 1179.85 360.9
L 1172.6 340.9
Q 1172.45 340.5 1172.15 340.3 1171.9 340.1 1171.45 340.1
L 1160.85 340.1
Q 1160.25 340.1 1160 340.45 1159.8 340.75 1160 341.25
L 1170.65 370.2
Q 1172.75 376 1174.5 381.65 1176.25 387.25 1177.75 392.9 1177.85 393.3 1178.15 393.55 1178.45 393.75 1178.9 393.75
L 1192.25 393.75
Q 1192.7 393.75 1193 393.55 1193.3 393.3 1193.4 392.9 1194.9 387.25 1196.65 381.65 1198.45 376 1200.5 370.2
L 1211.2 341.25
M 1102.75 340.1
Q 1102.3 340.1 1102 340.4 1101.75 340.65 1101.75 341.1
L 1101.75 392.75
Q 1101.75 393.25 1102 393.5 1102.3 393.75 1102.75 393.75
L 1113.05 393.75
Q 1113.5 393.75 1113.75 393.5 1114.05 393.25 1114.05 392.75
L 1114.05 374.7 1116.15 374.7
Q 1120.25 374.7 1122.8 375.85 1125.25 377.05 1126.8 379.3 1128.35 381.6 1129.7 384.9
L 1133 392.95
Q 1133.15 393.4 1133.4 393.55 1133.7 393.75 1134.1 393.75
L 1145 393.75
Q 1145.55 393.75 1145.75 393.4 1145.95 393.1 1145.8 392.6
L 1140.45 379.8
Q 1139.5 377.55 1137.9 375.3 1136.35 373.1 1133.9 371.5 1133.25 371.1 1133.2 370.8 1133.2 370.45 1133.95 370.05 1136.35 369.05 1138.35 367.2 1140.35 365.3 1141.6 362.65 1142.85 360 1142.9 356.5 1142.85 348.75 1137.9 344.5 1132.95 340.2 1123.85 340.1
L 1102.75 340.1
M 1122.25 364
L 1114.05 364 1114.05 350.85 1123.85 350.85
Q 1126.9 350.9 1128.75 352.65 1130.55 354.4 1130.55 357.45 1130.55 360.75 1128.55 362.4 1126.5 364 1122.25 364
M 1020.2 344.1
Q 1020.35 343.65 1020.2 343.35 1020.05 343.05 1019.55 342.9
L 1014.55 341.25
Q 1011.85 340.3 1008.8 339.8 1005.75 339.25 1002.45 339.25 996.45 339.25 992.1 341.1 987.75 342.9 985.4 346.35 983.05 349.8 983 354.8 983 358.9 984.4 361.75 985.8 364.55 988.9 366.7 992 368.8 997.15 370.65
L 1003.5 373.1
Q 1006.65 374.3 1008.45 375.65 1010.3 377 1010.3 378.7 1010.25 381.65 1008.05 382.7 1005.9 383.8 1002.75 383.7 1000.35 383.7 997.7 383.3 995.05 382.9 991.75 381.9
L 986.4 380.3
Q 986 380.1 985.7 380.3 985.4 380.45 985.2 380.9
L 982.2 389.3
Q 982.05 389.75 982.2 390.05 982.35 390.35 982.9 390.5
L 987.85 392.1
Q 992.5 393.6 996 394.1 999.45 394.65 1002.75 394.6 1012.45 394.55 1017.5 390.55 1022.6 386.5 1022.65 378.7 1022.7 374.6 1021.3 371.75 1019.9 368.85 1016.75 366.7 1013.55 364.5 1008.35 362.6
L 1002 360.25
Q 998.75 359.1 997.05 357.9 995.35 356.7 995.35 354.8 995.4 352.7 997.3 351.5 999.25 350.3 1002.45 350.25 1004.8 350.25 1007 350.7 1009.2 351.1 1011.45 351.85
L 1015.95 353.2
Q 1016.4 353.35 1016.65 353.2 1016.95 353.05 1017.1 352.55
L 1020.2 344.1
M 1043.65 340.1
Q 1043.2 340.1 1042.9 340.4 1042.65 340.65 1042.65 341.1
L 1042.65 392.75
Q 1042.65 393.25 1042.9 393.5 1043.2 393.75 1043.65 393.75
L 1079.65 393.75
Q 1080.1 393.75 1080.4 393.5 1080.65 393.25 1080.65 392.75
L 1080.65 384.05
Q 1080.65 383.6 1080.4 383.35 1080.1 383.1 1079.65 383.1
L 1054.95 383.1 1054.95 371.5 1073.45 371.5
Q 1073.9 371.5 1074.15 371.25 1074.45 371 1074.45 370.5
L 1074.45 361.85
Q 1074.45 361.35 1074.15 361.1 1073.9 360.85 1073.45 360.85
L 1054.95 360.85 1054.95 350.85 1077.4 350.85
Q 1077.8 350.85 1078.05 350.65 1078.35 350.4 1078.45 350
L 1080.85 341.25
Q 1080.95 340.75 1080.8 340.45 1080.55 340.1 1080.05 340.1
L 1043.65 340.1
M 1302.35 343.2
Q 1302.55 342.75 1302.4 342.45 1302.2 342.15 1301.75 342
L 1298.3 340.85
Q 1295.5 339.95 1292.85 339.6 1290.2 339.25 1287 339.25 1279.4 339.3 1273.9 342.65 1268.4 346.05 1265.5 352.2 1262.55 358.35 1262.5 366.9 1262.55 375.45 1265.5 381.65 1268.4 387.85 1273.9 391.2 1279.4 394.55 1287 394.6 1290.05 394.6 1292.7 394.2 1295.35 393.8 1298.35 392.8
L 1302 391.55
Q 1302.5 391.4 1302.65 391.1 1302.75 390.8 1302.6 390.35
L 1299.6 382.1
Q 1299.45 381.65 1299.15 381.5 1298.8 381.35 1298.35 381.5
L 1294.8 382.55
Q 1292.8 383.2 1290.95 383.5 1289.1 383.7 1287 383.7 1281.3 383.65 1278.1 379.3 1274.85 374.95 1274.85 366.9 1274.85 358.95 1278.1 354.65 1281.3 350.3 1287 350.25 1289.55 350.25 1291.4 350.45 1293.25 350.7 1294.9 351.25
L 1298.45 352.35
Q 1298.9 352.55 1299.2 352.4 1299.45 352.2 1299.65 351.75
L 1302.35 343.2
M 1362.1 341.25
Q 1362.2 340.75 1362.05 340.45 1361.8 340.1 1361.3 340.1
L 1324.9 340.1
Q 1324.45 340.1 1324.15 340.4 1323.9 340.65 1323.9 341.1
L 1323.9 392.75
Q 1323.9 393.25 1324.15 393.5 1324.45 393.75 1324.9 393.75
L 1360.9 393.75
Q 1361.35 393.75 1361.65 393.5 1361.9 393.25 1361.9 392.75
L 1361.9 384.05
Q 1361.9 383.6 1361.65 383.35 1361.35 383.1 1360.9 383.1
L 1336.2 383.1 1336.2 371.5 1354.7 371.5
Q 1355.15 371.5 1355.4 371.25 1355.7 371 1355.7 370.5
L 1355.7 361.85
Q 1355.7 361.35 1355.4 361.1 1355.15 360.85 1354.7 360.85
L 1336.2 360.85 1336.2 350.85 1358.65 350.85
Q 1359.05 350.85 1359.3 350.65 1359.6 350.4 1359.7 350
L 1362.1 341.25 Z"/>
</g>

<g id="Layer0_0_MEMBER_1_FILL">
<path fill="url(#Gradient_1)" stroke="none" d="
M 1136.9 140.7
L 1140.7 140.7 1140.7 137.6 1093.85 137.6 1062.55 213.45 1030.25 137.6 983.2 137.6 983.2 140.7 986.8 140.7
Q 991.7 140.7 994.6 142.4 997.5 144.1 998.4 146.3 999.3 148.4 999.3 157.1
L 999.3 229.95
Q 999.3 233.45 999.25 237.95 999.25 240.55 999.2 241.05 998.2 245.05 996.5 247.25 994.8 249.45 991.5 250.85 990.3912109375 251.253125 989.2 251.5 997.700390625 253.380078125 1005.8 255.15
L 1022.6 255.15 1022.6 252.05
Q 1014.7 252.05 1011.1 249.35 1007.25 246.6 1006.2 242.45 1005.95 241.3 1005.9 237.95 1005.8 233.15 1005.8 229.55
L 1005.8 148.5 1050.6 252.75 1052.65 252.75 1096.85 147.7 1096.85 233.05
Q 1096.85 237.35 1096.6 242.4 1096.35 245.1 1095.85 246.1 1094.6 249.05 1092.45 250.25 1089.45 252.05 1084.35 252.05
L 1080.55 252.05 1080.55 255.15 1134.5 255.15 1134.5 251.9
Q 1131.35 251.5 1129.2 250.35 1126.35 248.65 1125.45 246.45 1124.95 245.3 1124.7 242.4 1124.5 237.3 1124.5 233.05
L 1124.5 157.1
Q 1124.5 148.6 1125.45 146.5 1126.7 143.7 1128.8 142.5 1131.9 140.7 1136.9 140.7 Z"/>
</g>

<g id="Layer0_0_MEMBER_2_FILL">
<path fill="url(#Gradient_2)" stroke="none" d="
M 1211.35 138.9
Q 1204.55 137.6 1195.95 137.6 1185.3 137.6 1176.15 140.2 1161.15 144.4 1149.85 155.55 1131.6 173.45 1131.6 199.55 1131.6 214.2 1137.5 225.9 1142.2 235 1150.55 242.35 1158.75 249.55 1169.65 254.05 1180.5 258.45 1196.9 258.45 1209.75 258.45 1221.75 256.05 1233.7 253.45 1244.7 248.5
L 1244.7 224.5
Q 1244.7 218.15 1245.5 216.55 1246.9 213.55 1249.4 212.25 1251.95 210.85 1258.35 210.45
L 1258.35 207.35 1202.25 207.35 1202.25 210.45 1205.15 210.45
Q 1209.35 210.45 1212.35 212.05 1215.25 213.65 1216.15 215.75 1217.05 217.65 1217.05 224.5
L 1217.05 248.5
Q 1212.45 250.25 1208.15 251.15 1203.75 252.05 1199.55 252.05 1187.6 252.05 1178.9 246.15 1170.1 240.2 1166.15 227.7 1162.25 215.25 1162.25 198.65 1162.25 184.9 1165.85 171.9 1169.45 158.85 1178 151.65 1186.6 144.35 1199.55 144.35 1213.05 144.35 1224.5 153.05 1235.9 161.65 1241.6 178.4
L 1244.7 178.4 1244.7 137.7 1241.6 137.7
Q 1241.1 139.15 1240.6 140.2 1239.3 143 1237.9 144.35 1235.8 146.05 1233.5 146.05 1231.9 146.05 1223.6 142.85 1219.25 141.2 1216.25 140.2 1213.25 139.25 1211.35 138.9 Z"/>
</g>

<g id="Layer0_0_MEMBER_3_FILL">
<path fill="url(#Gradient_3)" stroke="none" d="
M 1381.8 287.1
L 1320.65 287.1 1389.3 153.3 1211.35 153.3 1211.35 210.75 1272.65 210.75 1205.4 342.9 1381.8 342.9 1381.8 287.1 Z"/>
</g>

<g id="Layer0_0_MEMBER_4_FILL">
<path fill="url(#Gradient_4)" stroke="none" d="
M 1326.2 307.6
Q 1367.6900390625 295.413671875 1379.6 285.6 1357.1455078125 296.8484375 1323.7 304.1 1272.340234375 314.1890625 1180.15 298 1144.211328125 292.42578125 976.3 255.6 858.316015625 234.5140625 772.55 259.6 697.046875 283.6841796875 660.55 327.9 658.7615234375 329.70234375 657.45 331.7 654.1 336.9509765625 654.1 343.6 654.1 352.8 660.55 359.3 667.05 365.8 676.25 365.8 685.45 365.8 691.9 359.3 693.5771484375 357.635546875 694.8 355.8 785.148828125 251.8865234375 999.9 284.9 1102.6400390625 301.0787109375 1179.05 310.35 1277.0994140625 320.992578125 1326.2 307.6 Z"/>
</g>

<g id="Layer0_0_MEMBER_5_FILL">
<path fill="url(#Gradient_5)" stroke="none" d="
M 1391.7 263.65
Q 1391.7 258.95 1388.3 255.7 1385.05 252.4 1380.4 252.4 1376.8849609375 252.4 1374.15 254.25 1315.410546875 285.3296875 1258.5 286.8 1194.2126953125 289.9375 1104.7 276.1 1199.23203125 298.3625 1259.05 298.65 1329.402734375 300.9609375 1385.15 273.9 1385.448046875 273.7708984375 1385.7 273.6 1387.1041015625 272.8642578125 1388.3 271.65 1389.2 270.8 1389.85 269.85 1391.7 267.15 1391.7 263.65 Z"/>
</g>

<g id="Layer0_0_MEMBER_6_FILL">
<path fill="url(#Gradient_6)" stroke="none" d="
M 777.25 168.45
L 768.35 148.35 713 277.4 733.85 267.45 777.25 168.45 Z"/>

<path fill="url(#Gradient_7)" stroke="none" d="
M 876.8 186.4
Q 844.3 167.9 813.3 170.95 803.6 171.9 795.25 174.9
L 788.8 177.7 818.05 244.05
Q 884.7373046875 233.2625 978.35 249.6
L 958.35 203.45
Q 956.486328125 205.335546875 952.1 206.6 945.55 208.45 936.15 207.75 910.9 205.8 876.8 186.4 Z"/>

<path fill="url(#Gradient_8)" stroke="none" d="
M 813.3 170.95
Q 844.3 167.9 876.8 186.4 910.9 205.8 936.15 207.75 945.55 208.45 952.1 206.6 956.486328125 205.335546875 958.35 203.45
L 931 140.2 772.2 140.2 788.8 177.7 795.25 174.9
Q 803.6 171.9 813.3 170.95 Z"/>
</g>
</defs>

<g transform="matrix( 1, 0, 0, 1, -62.5,274.3) ">
<use xlink:href="#Layer0_0_MEMBER_0_FILL"/>
</g>

<g transform="matrix( 1, 0, 0, 1, -62.5,274.3) ">
<use xlink:href="#Layer0_0_MEMBER_1_FILL"/>
</g>

<g transform="matrix( 1, 0, 0, 1, -62.5,274.3) ">
<use xlink:href="#Layer0_0_MEMBER_2_FILL"/>
</g>

<g transform="matrix( 0.6038818359375, 0, 0, 0.6038818359375, 459.9,322.35) ">
<use xlink:href="#Layer0_0_MEMBER_3_FILL"/>
</g>

<g transform="matrix( 1, 0, 0, 1, -62.5,274.3) ">
<use xlink:href="#Layer0_0_MEMBER_4_FILL"/>
</g>

<g transform="matrix( 1, 0, 0, 1, -62.5,274.3) ">
<use xlink:href="#Layer0_0_MEMBER_5_FILL"/>
</g>

<g transform="matrix( 1, 0, 0, 1, -62.5,274.3) ">
<use xlink:href="#Layer0_0_MEMBER_6_FILL"/>
</g>
</svg>
