
<svg xmlns="http://www.w3.org/2000/svg" version="1.1" xmlns:xlink="http://www.w3.org/1999/xlink" preserveAspectRatio="none" x="0px" y="0px" width="2200px" height="500px" viewBox="0 0 2200 500">
<defs>
<g id="Layer0_0_MEMBER_0_FILL">
<path fill="#28548C" stroke="none" d="
M 770.1 157.9
L 793.75 157.9 812.85 44.95 789.2 44.95 770.1 157.9
M 690 92.25
Q 692.8 76.05 693 61.9 692.45 20.7 642.15 19.5 629.15 19.1 616.2 19.75 577.65 21.5 564.9 48.05 557.25 64.95 552.85 89.6 549.55 109.9 549.6 124.05 551.4 141 561.95 148.6 575.3 159.4 626.2 157.65 679.45 154.05 690 92.25
M 665.3 70
Q 664.9 80.15 663.05 91.85 655.55 136.4 623.15 139.1 619.2 139.65 608.9 139.5 598.6 139.3 591.25 136.15 579.55 130.35 577.25 114.8 576.35 105.4 579.05 89.3 581.75 73.15 587.75 60.05 596.05 40.9 619.45 39.7 627.3 39.15 635.15 39.55 665.6 40.35 665.3 70
M 667.5 15.95
L 661.75 4.95 634.1 10.9 637.75 15.95 667.5 15.95
M 769.25 50.1
L 740.4 50.1 746.1 16.2 722.45 16.2 716.75 50.1 703.9 50.1 700.8 68.65 713.6 68.65 704.4 129.3
Q 702.2 153.05 725.15 157.05 735.85 158.8 751.2 157.05
L 754.2 138.85
Q 736.55 139.9 730.7 133.45 728.35 130.95 728.1 127.95 727.8 124.95 728.45 120.6
L 737.25 68.65 766.15 68.65 769.25 50.1
M 815.9 27.1
L 819.15 7.65 795.5 7.65 792.25 27.1 815.9 27.1
M 923.5 60.05
L 926.95 39.6 880.95 39.6
Q 827.35 38.8 820.05 88.7
L 815.4 116
Q 810.45 153 840.05 157.55 841.35 157.75 842.75 157.9
L 906.9 157.9 910.45 137.1 861.05 137.1
Q 837.85 136.55 841.75 109.55
L 845.8 85.85
Q 851.45 61.05 885.65 60.1
L 923.5 60.05
M 998 60.05
Q 1011.5 60.95 1009.8 74.5
L 1008.1 84.7 954.6 84.7
Q 926.9 85.5 921.7 113.3
L 918.55 131.95
Q 914.7 158.4 944.1 157.9
L 1020.35 157.9 1034.75 72.7
Q 1040.35 40.55 1013.8 39.6
L 942.75 39.6 939.3 60.05 998 60.05
M 1004.55 105.7
L 1001.9 121.4
Q 999.3 136.3 984.15 137.1
L 959.15 137.1
Q 954.55 136.85 952.7 136.4 942.05 133.85 944.05 123.1
L 944.2 122.15
Q 947.5 105.7 964.25 105.7
L 1004.55 105.7 Z"/>
</g>

<g id="Layer0_0_MEMBER_1_MEMBER_0_FILL">
<path fill="#EF0C19" stroke="none" d="
M 1369.1 355.65
L 1381.15 297.15 1279.55 297.15 1315.15 124 1233.3 124 1185.65 355.65 1369.1 355.65 Z"/>
</g>

<g id="Layer0_0_MEMBER_1_MEMBER_1_FILL">
<path fill="#EF0C19" stroke="none" d="
M 1941.8 937.05
Q 1935.9 936.55 1929.4 936.55
L 1814 936.55 1765.8 1168.25 1847 1168.3 1864.25 1086.15 1877.4 1086.15 1894.2 1168.25 1973.25 1168.25 1946.6 1067.65
Q 1996.2 1057.15 1998.35 996.75 2000.25 941.85 1941.8 937.05
M 1915.2 1014.95
Q 1914.4 1017.55 1913.1 1019.8 1904.8 1033.8 1875.65 1031.75
L 1883.45 994.6
Q 1906.3 991.2 1913.1 999.5 1917.45 1004.8 1915.2 1014.95 Z"/>
</g>

<g id="Layer0_0_MEMBER_1_MEMBER_2_FILL">
<path fill="#EF0C19" stroke="none" d="
M 1744.1 1168.25
L 1756.2 1109.55 1651 1109.55 1674.5 995.25 1779.7 995.25 1791.75 936.55 1608 936.55 1560.35 1168.25 1744.1 1168.25 Z"/>
</g>

<g id="Layer0_0_MEMBER_1_MEMBER_3_FILL">
<path fill="#EF0C19" stroke="none" d="
M 1881.55 217.1
Q 1881.55 216.2 1880.35 215.7
L 1508.7 108.45
Q 1506.25 107.8 1505.25 107.8 1503.85 107.8 1503.85 108.45 1503.65 109.35 1504.2 110 1505.05 111.05 1506.1 111.4 1543.55 133.35 1563.25 162.7 1584.35 193.95 1582.25 229.15 1580 266.8 1551.5 305.3 1520.75 346.75 1461.9 386.3
L 1460.65 387.35
Q 1460.3 387.85 1460.3 388.7 1460.3 389.4 1461.55 389.75 1462.55 389.95 1463.95 389.4
L 1880.35 218.3
Q 1881.55 217.75 1881.55 217.1 Z"/>
</g>

<g id="Layer0_0_MEMBER_1_MEMBER_4_FILL">
<path fill="#EF0C19" stroke="none" d="
M 1396.6 355.65
L 1479.9 355.65 1522.9 146.8 1435.6 166.2 1396.6 355.65
M 1524.6 138.45
L 1527.55 124 1444.25 124 1437.3 157.85 1524.6 138.45 Z"/>
</g>

<g id="Layer0_0_MEMBER_2_FILL">
<path fill="#EF0C19" stroke="none" d="
M 1307.2 336.4
Q 1421.4 317.15 1496.8 292.45 1356.5 329.65 1183.9 342.15 1011.25 354.65 848.85 353.55 576.25 347.3 552.6 296.5 544.95 273.9 595.3 246.95 621.1 233.35 669.45 215.65 662.7 217.8 653.3 221.4 636.5 227.75 617.25 235.75 595.95 244.45 575.2 255.45 530.7 279.4 524.2 299.45 513.2 337.45 639.15 357.5 756.65 376.5 976.95 368.7 1166.2 360.5 1307.2 336.4 Z"/>
</g>

<path id="Layer1_0_MEMBER_0_1_STROKES" stroke="#000000" stroke-width="0.1" stroke-linejoin="round" stroke-linecap="round" fill="none" d="
M 1212.6614448547361 249.12767639160154
L 1270.5788398742675 249.12767639160154 1263.7097000122071 282.4731048583984 1159.1334587097167 282.4731048583984 1186.2964889526365 150.430908203125 1232.9553352355956 150.430908203125 1212.6614448547361 249.12767639160154 Z"/>

<path id="Layer1_0_MEMBER_1_1_STROKES" stroke="#000000" stroke-width="0.1" stroke-linejoin="round" stroke-linecap="round" fill="none" d="
M 1544.0611572265625 282.61149139404296
L 1590.3407958984376 282.6399810791016 1600.1723693847657 235.8314285278321 1607.6671630859373 235.8314285278321 1617.2422607421877 282.61149139404296 1662.2965148925782 282.61149139404296 1647.1074462890624 225.2902450561524
Q 1675.3767822265627 219.3074111938477 1676.6021667480468 184.8918716430664 1677.6850646972657 153.6101974487305 1644.3717041015625 150.87518768310548 1641.0090209960936 150.59029083251954 1637.3043701171873 150.59029083251954
L 1571.532568359375 150.59029083251954 1544.0611572265625 282.61149139404296 Z
M 1629.2111328125002 195.2621170043945
Q 1630.4935119628908 189.4787109375 1628.0142456054687 186.45880432128905 1624.1386108398438 181.72951660156247 1611.1153381347658 183.6668151855469
L 1606.669757080078 204.83465118408202
Q 1623.28369140625 206.0027282714844 1628.0142456054687 198.02561645507814 1628.7551757812498 196.74358062744142 1629.2111328125002 195.2621170043945 Z"/>

<path id="Layer1_0_MEMBER_2_1_STROKES" stroke="#000000" stroke-width="0.1" stroke-linejoin="round" stroke-linecap="round" fill="none" d="
M 1429.9156921386718 282.61149139404296
L 1457.0736328125 150.59029083251954 1561.8012634277343 150.59029083251954 1554.9334106445312 184.03718109130858 1494.9750610351562 184.03718109130858 1481.5813232421874 249.16460113525392 1541.5396728515625 249.16460113525392 1534.6433227539062 282.61149139404296 1429.9156921386718 282.61149139404296 Z"/>

<path id="Layer1_0_MEMBER_3_1_STROKES" stroke="#000000" stroke-width="0.1" stroke-linejoin="round" stroke-linecap="round" fill="none" d="
M 1374.4855094909667 173.0901916503906
Q 1386.51362991333 190.90292053222655 1385.3165184020995 210.96717834472656 1384.0338989257812 232.4279541015625 1367.787385559082 254.37323608398438 1350.2582527160644 278.0000396728516 1316.710627746582 300.5438293457031
L 1315.9980613708497 301.14233703613286
Q 1315.7985427856445 301.42734069824223 1315.7985427856445 301.9118469238281 1315.7985427856445 302.31085205078125 1316.511109161377 302.51035461425784 1317.0811622619628 302.6243560791015 1317.8792366027833 302.31085205078125
L 1555.2493476867676 204.78259887695313
Q 1555.9334114074709 204.4690948486328 1555.9334114074709 204.0985900878906 1555.9334114074709 203.58558349609373 1555.2493476867676 203.30057983398436
L 1343.389112854004 142.16729431152345
Q 1341.9924827575683 141.79678955078123 1341.4224296569823 141.79678955078123 1340.624355316162 141.79678955078123 1340.624355316162 142.16729431152345 1340.510344696045 142.6803009033203 1340.8238739013673 143.0508056640625 1341.3084190368652 143.64931335449216 1341.9069747924805 143.84881591796875 1363.2554634094238 156.3604766845703 1374.4855094909667 173.0901916503906 Z"/>

<path id="Layer1_0_MEMBER_4_1_STROKES" stroke="#000000" stroke-width="0.1" stroke-linejoin="round" stroke-linecap="round" fill="none" d="
M 1347.7846138000486 150.430908203125
L 1300.2991905212402 150.430908203125 1296.3373214721678 169.72565612792968 1346.1029571533204 158.66751403808593 1347.7846138000486 150.430908203125 Z
M 1320.6215835571288 282.4731048583984
L 1345.1338668823241 163.4270751953125 1295.368231201172 174.48521728515624 1273.1361602783204 282.4731048583984 1320.6215835571288 282.4731048583984 Z"/>

<path id="Layer1_0_MEMBER_5_1_STROKES" stroke="#000000" stroke-width="0.1" stroke-linejoin="round" stroke-linecap="round" fill="none" d="
M 1496.8 292.45
Q 1356.5 329.65 1183.9 342.15 1011.25 354.65 848.85 353.55 576.25 347.3 552.6 296.5 544.95 273.9 595.3 246.95 621.1 233.35 669.45 215.65 662.7 217.8 653.3 221.4 636.5 227.75 617.25 235.75 595.95 244.45 575.2 255.45 530.7 279.4 524.2 299.45 513.2 337.45 639.15 357.5 756.65 376.5 976.95 368.7 1166.2 360.5 1307.2 336.4 1421.4 317.15 1496.8 292.45 Z"/>

<path id="Layer1_0_MEMBER_6_1_STROKES" stroke="#000000" stroke-width="0.1" stroke-linejoin="round" stroke-linecap="round" fill="none" d="
M 760 135.05
L 763.65 140.1 793.4 140.1 787.65 129.1 760 135.05 Z
M 687.85 272.75
Q 701.2 283.55 752.1 281.8 805.35 278.2 815.9 216.4 818.7 200.2 818.9 186.05 818.35 144.85 768.05 143.65 755.05 143.25 742.1 143.9 703.55 145.65 690.8 172.2 683.15 189.1 678.75 213.75 675.45 234.05 675.5 248.2 677.3 265.15 687.85 272.75 Z
M 749.05 263.25
Q 781.45 260.55 788.95 216 790.8 204.3 791.2 194.15 791.5 164.5 761.05 163.7 753.2 163.3 745.35 163.85 721.95 165.05 713.65 184.2 707.65 197.3 704.95 213.45 702.25 229.55 703.15 238.95 705.45 254.5 717.15 260.3 724.5 263.45 734.8 263.65 745.1 263.8 749.05 263.25 Z"/>

<path id="Layer1_0_MEMBER_7_1_STROKES" stroke="#000000" stroke-width="0.1" stroke-linejoin="round" stroke-linecap="round" fill="none" d="
M 848.35 140.35
L 872 140.35 866.3 174.25 895.15 174.25 892.05 192.8 863.15 192.8 854.35 244.75
Q 853.7 249.1 854 252.1 854.25 255.1 856.6 257.6 862.45 264.05 880.1 263
L 877.1 281.2
Q 861.75 282.95 851.05 281.2 828.1 277.2 830.3 253.45
L 839.5 192.8 826.7 192.8 829.8 174.25 842.65 174.25 848.35 140.35 Z"/>

<path id="Layer1_0_MEMBER_8_1_STROKES" stroke="#000000" stroke-width="0.1" stroke-linejoin="round" stroke-linecap="round" fill="none" d="
M 921.4 131.8
L 918.15 151.25 941.8 151.25 945.05 131.8 921.4 131.8 Z
M 915.1 169.1
L 938.75 169.1 919.65 282.05 896 282.05 915.1 169.1 Z"/>

<path id="Layer1_0_MEMBER_9_1_STROKES" stroke="#000000" stroke-width="0.1" stroke-linejoin="round" stroke-linecap="round" fill="none" d="
M 1032.8 282.05
L 968.65 282.05
Q 967.25 281.9 965.95 281.7 936.35 277.15 941.3 240.15
L 945.95 212.85
Q 953.25 162.95 1006.85 163.75
L 1052.85 163.75 1049.4 184.2 1011.55 184.25
Q 977.35 185.2 971.7 210
L 967.65 233.7
Q 963.75 260.7 986.95 261.25
L 1036.35 261.25 1032.8 282.05 Z"/>

<path id="Layer1_0_MEMBER_10_1_STROKES" stroke="#000000" stroke-width="0.1" stroke-linejoin="round" stroke-linecap="round" fill="none" d="
M 1070 282.05
L 1146.25 282.05 1160.65 196.85
Q 1166.25 164.7 1139.7 163.75
L 1068.65 163.75 1065.2 184.2 1123.9 184.2
Q 1137.4 185.1 1135.7 198.65
L 1134 208.85 1080.5 208.85
Q 1052.8 209.65 1047.6 237.45
L 1044.45 256.1
Q 1040.6 282.55 1070 282.05 Z
M 1130.45 229.85
L 1127.8 245.55
Q 1125.2 260.45 1110.05 261.25
L 1085.05 261.25
Q 1080.45 261 1078.6 260.55 1067.95 258 1069.95 247.25
L 1070.1 246.3
Q 1073.4 229.85 1090.15 229.85
L 1130.45 229.85 Z"/>
</defs>

<g transform="matrix( 0.5700531005859375, 0, 0, 0.57000732421875, 483.25,79.75) ">
<use xlink:href="#Layer1_0_MEMBER_0_1_STROKES" transform="matrix( 1.75421142578125, 0, 0, 1.7543487548828125, -847.7,-139.9) "/>
</g>

<g transform="matrix( 0.5699462890625, 0, 0, 0.569793701171875, 537.65,-383.05) ">
<use xlink:href="#Layer1_0_MEMBER_1_1_STROKES" transform="matrix( 1.754547119140625, 0, 0, 1.7550201416015625, -943.3,672.25) "/>
</g>

<g transform="matrix( 0.5699462890625, 0, 0, 0.569793701171875, 540.6,-383.05) ">
<use xlink:href="#Layer1_0_MEMBER_2_1_STROKES" transform="matrix( 1.754547119140625, 0, 0, 1.7550201416015625, -948.5,672.25) "/>
</g>

<g transform="matrix( 0.5700531005859375, 0, 0, 0.57000732421875, 483.35,80.35) ">
<use xlink:href="#Layer1_0_MEMBER_3_1_STROKES" transform="matrix( 1.75421142578125, 0, 0, 1.7543487548828125, -847.9,-140.95) "/>
</g>

<g transform="matrix( 0.5700531005859375, 0, 0, 0.57000732421875, 477,79.75) ">
<use xlink:href="#Layer1_0_MEMBER_4_1_STROKES" transform="matrix( 1.75421142578125, 0, 0, 1.7543487548828125, -836.75,-139.9) "/>
</g>

<g transform="matrix( 1, 0, 0, 1, 0,0) ">
<use xlink:href="#Layer1_0_MEMBER_5_1_STROKES"/>
</g>

<g transform="matrix( 1, 0, 0, 1, 0,0) ">
<use xlink:href="#Layer1_0_MEMBER_6_1_STROKES"/>
</g>

<g transform="matrix( 1, 0, 0, 1, 0,0) ">
<use xlink:href="#Layer1_0_MEMBER_7_1_STROKES"/>
</g>

<g transform="matrix( 1, 0, 0, 1, 0,0) ">
<use xlink:href="#Layer1_0_MEMBER_8_1_STROKES"/>
</g>

<g transform="matrix( 1, 0, 0, 1, 0,0) ">
<use xlink:href="#Layer1_0_MEMBER_9_1_STROKES"/>
</g>

<g transform="matrix( 1, 0, 0, 1, 0,0) ">
<use xlink:href="#Layer1_0_MEMBER_10_1_STROKES"/>
</g>

<g transform="matrix( 1, 0, 0, 1, 125.9,124.15) ">
<use xlink:href="#Layer0_0_MEMBER_0_FILL"/>
</g>

<g transform="matrix( 0.5699310302734375, 0, 0, 0.56988525390625, 483.25,79.75) ">
<use xlink:href="#Layer0_0_MEMBER_1_MEMBER_0_FILL"/>
</g>

<g transform="matrix( 0.56982421875, 0, 0, 0.569671630859375, 537.65,-382.65) ">
<use xlink:href="#Layer0_0_MEMBER_1_MEMBER_1_FILL"/>
</g>

<g transform="matrix( 0.56982421875, 0, 0, 0.569671630859375, 540.6,-382.65) ">
<use xlink:href="#Layer0_0_MEMBER_1_MEMBER_2_FILL"/>
</g>

<g transform="matrix( 0.5699310302734375, 0, 0, 0.56988525390625, 483.35,80.35) ">
<use xlink:href="#Layer0_0_MEMBER_1_MEMBER_3_FILL"/>
</g>

<g transform="matrix( 0.5699310302734375, 0, 0, 0.56988525390625, 477,79.75) ">
<use xlink:href="#Layer0_0_MEMBER_1_MEMBER_4_FILL"/>
</g>

<g transform="matrix( 1, 0, 0, 1, 0,0) ">
<use xlink:href="#Layer0_0_MEMBER_2_FILL"/>
</g>
</svg>
