
<svg xmlns="http://www.w3.org/2000/svg" version="1.1" xmlns:xlink="http://www.w3.org/1999/xlink" preserveAspectRatio="none" x="0px" y="0px" width="2200px" height="500px" viewBox="0 0 2200 500">
<defs>
<g id="Layer0_0_MEMBER_0_FILL">
<path fill="#EF0C19" stroke="none" d="
M 1369.1 355.65
L 1381.15 297.15 1279.55 297.15 1315.15 124 1233.3 124 1185.65 355.65 1369.1 355.65 Z"/>
</g>

<g id="Layer0_0_MEMBER_1_FILL">
<path fill="#EF0C19" stroke="none" d="
M 1941.8 937.05
Q 1935.9 936.55 1929.4 936.55
L 1814 936.55 1765.8 1168.25 1847 1168.3 1864.25 1086.15 1877.4 1086.15 1894.2 1168.25 1973.25 1168.25 1946.6 1067.65
Q 1996.2 1057.15 1998.35 996.75 2000.25 941.85 1941.8 937.05
M 1915.2 1014.95
Q 1914.4 1017.55 1913.1 1019.8 1904.8 1033.8 1875.65 1031.75
L 1883.45 994.6
Q 1906.3 991.2 1913.1 999.5 1917.45 1004.8 1915.2 1014.95 Z"/>
</g>

<g id="Layer0_0_MEMBER_2_FILL">
<path fill="#EF0C19" stroke="none" d="
M 1744.1 1168.25
L 1756.2 1109.55 1651 1109.55 1674.5 995.25 1779.7 995.25 1791.75 936.55 1608 936.55 1560.35 1168.25 1744.1 1168.25 Z"/>
</g>

<g id="Layer0_0_MEMBER_3_FILL">
<path fill="#EF0C19" stroke="none" d="
M 1881.55 217.1
Q 1881.55 216.2 1880.35 215.7
L 1508.7 108.45
Q 1506.25 107.8 1505.25 107.8 1503.85 107.8 1503.85 108.45 1503.65 109.35 1504.2 110 1505.05 111.05 1506.1 111.4 1543.55 133.35 1563.25 162.7 1584.35 193.95 1582.25 229.15 1580 266.8 1551.5 305.3 1520.75 346.75 1461.9 386.3
L 1460.65 387.35
Q 1460.3 387.85 1460.3 388.7 1460.3 389.4 1461.55 389.75 1462.55 389.95 1463.95 389.4
L 1880.35 218.3
Q 1881.55 217.75 1881.55 217.1 Z"/>
</g>

<g id="Layer0_0_MEMBER_4_FILL">
<path fill="#EF0C19" stroke="none" d="
M 1396.6 355.65
L 1479.9 355.65 1522.9 146.8 1435.6 166.2 1396.6 355.65
M 1524.6 138.45
L 1527.55 124 1444.25 124 1437.3 157.85 1524.6 138.45 Z"/>
</g>

<g id="Layer0_0_MEMBER_5_FILL">
<path fill="#000000" stroke="none" d="
M 964.65 168.65
Q 972.6 163.25 971.6 157.15 970.15 151.15 960.9 154.7 947.65 160.25 944.2 178.6 941.1 192.55 952.45 192.85 959.5 192.85 971.75 184.95
L 971.75 182.35
Q 964.6 186.5 957.85 188.1 948.6 190.25 949.9 178.55
L 964.65 168.65
M 964.4 163.25
Q 963.4 166.3 957.75 170.7 952.1 175.05 951.25 174.55 950.35 174.3 951.95 169.65 953.5 164.95 957.1 160.6 960.7 156.3 963.05 158.25 965.4 160.2 964.4 163.25
M 976.65 133.7
L 973.85 133.35
Q 972.5 133.2 971.75 134.3
L 963.85 146.4
Q 963.5 147.15 964.15 147.3 964.8 147.45 965.05 147.15
L 976.65 133.7 Z"/>
</g>

<g id="Layer0_0_MEMBER_6_FILL">
<path fill="#000000" stroke="none" d="
M 957.6 128.85
Q 949.75 127.4 942.9 132.65 933.15 140.5 929.1 160.15
L 921.65 160.1 918.35 163.05 928.3 163.05 920.45 196.5
Q 917.2 213.4 911.15 213.7
L 903.7 213.7 902.6 219.15 908.05 219.15
Q 911.1 219.15 917.5 212.05 923.1 205.45 926.9 190.3 930.85 178.45 934.25 163.05
L 941.75 163.05 945.05 160.1 934.9 160.1
Q 939.65 137.35 944.1 134.55 948.55 131.7 954.05 133.5
L 957.6 128.85 Z"/>
</g>

<g id="Layer0_0_MEMBER_7_FILL">
<path fill="#000000" stroke="none" d="
M 888 160.95
Q 883.15 167.5 880.6 182.4 880.25 184.6 880.35 188.15 880.5 190.15 880.85 190.85 882.3 194.2 886 191.75
L 897.35 184
Q 898.35 183.55 898.35 184.45
L 898.05 189.6
Q 897.7 194.2 901.3 192.3
L 916.7 182.6 917.05 179.8 907.15 185.15
Q 905.3 185.95 904.9 182.45
L 910.95 159.5 913.5 156.25
Q 915.05 154.45 912.95 154.35 912.4 154.4 909.05 153.65 908.2 153.4 906.15 153 903.1 152.45 899.9 153.25 893.15 155.15 888 160.95
M 890.45 185.15
Q 886.6 186.4 886.7 181.3 886.4 169.5 893.3 160.15 895.2 157.65 900.15 157.7 902.15 157.75 903.45 158 905.7 158.8 904.8 161.15
L 899.8 178.05
Q 899.45 179.25 898.45 179.75
L 890.45 185.15 Z"/>
</g>

<g id="Layer0_0_MEMBER_8_FILL">
<path fill="#000000" stroke="none" d="
M 864.45 140.5
Q 871.25 140.35 873.35 146.9
L 873.35 152.75 875.85 151.8 879.75 142.3 879.75 140.95
Q 869.45 131.8 850.05 142.9 837.95 150.7 833.2 167.2 828.55 192.05 847.75 192.85 857.25 193.3 871.6 185.3
L 872.2 182.95 861.95 187.4
Q 855.15 190.7 849.15 188.8 836.75 184.3 841.9 163.3 846.7 142.4 864.45 140.5 Z"/>
</g>

<path id="Layer1_0_1_STROKES" stroke="#000000" stroke-width="1" stroke-linejoin="round" stroke-linecap="round" fill="none" d="
M 874.836215209961 315.1535980224609
L 937.920736694336 315.1535980224609 930.4387634277343 351.47687072753905 816.5327056884767 351.47687072753905 846.1190979003907 207.642919921875 896.9406341552735 207.642919921875 874.836215209961 315.1535980224609 Z"/>

<path id="Layer1_1_1_STROKES" stroke="#000000" stroke-width="1" stroke-linejoin="round" stroke-linecap="round" fill="none" d="
M 1235.8654083251954 351.9292953491211
L 1286.2746795654298 351.9603302001953 1296.9835456848145 300.97006988525396 1305.1471160888673 300.97006988525396 1315.5766204833985 351.9292953491211 1364.651163482666 351.9292953491211 1348.106741333008 289.487174987793
Q 1378.8986114501954 282.9698562622071 1380.2333396911622 245.4797561645508 1381.412866973877 211.40348968505867 1345.1268829345704 208.42414398193358 1341.4641403198243 208.1137954711914 1337.4289154052735 208.1137954711914
L 1265.788153076172 208.1137954711914 1235.8654083251954 351.9292953491211 Z
M 1328.6135009765626 256.77644195556644
Q 1330.0103096008302 250.4763671875 1327.3098129272462 247.18667297363282 1323.088346862793 242.03488769531253 1308.9029792785645 244.14525756835945
L 1304.0607093811036 267.2041519165039
Q 1322.1571411132813 268.47658081054686 1327.3098129272462 259.7868225097656 1328.1168579101563 258.39025421142577 1328.6135009765626 256.77644195556644 Z"/>

<path id="Layer1_2_1_STROKES" stroke="#000000" stroke-width="1" stroke-linejoin="round" stroke-linecap="round" fill="none" d="
M 1111.5212608337401 351.9292953491211
L 1141.1025634765624 208.1137954711914 1255.175267791748 208.1137954711914 1247.6945816040038 244.54871063232423 1182.386018371582 244.54871063232423 1167.7971282958983 315.49438018798827 1233.1056915283202 315.49438018798827 1225.5939651489257 351.9292953491211 1111.5212608337401 351.9292953491211 Z"/>

<path id="Layer1_3_1_STROKES" stroke="#000000" stroke-width="1" stroke-linejoin="round" stroke-linecap="round" fill="none" d="
M 1051.1385650634766 232.27216186523435
Q 1064.2397796630858 251.67561950683591 1062.9358673095703 273.53167419433595 1061.538818359375 296.9089599609375 1043.8428649902344 320.81401977539065 1024.7498626708984 346.55076599121094 988.2092712402344 371.1077819824219
L 987.4331329345704 371.75973815917973
Q 987.2158142089844 372.07019348144536 987.2158142089844 372.59796752929685 987.2158142089844 373.0326049804687 987.9919525146485 373.2499237060547 988.6128631591797 373.3741058349609 989.4821380615234 373.0326049804687
L 1248.029330444336 266.7947937011719
Q 1248.7744232177733 266.4532928466797 1248.7744232177733 266.04970092773436 1248.7744232177733 265.4908813476562 1248.029330444336 265.1804260253906
L 1017.2678894042969 198.58775939941407
Q 1015.7466583251953 198.18416748046874 1015.1257476806641 198.18416748046874 1014.2564727783202 198.18416748046874 1014.2564727783202 198.58775939941407 1014.1322906494141 199.14657897949218 1014.4737915039062 199.5501708984375 1015.0015655517578 200.2021270751953 1015.6535217285156 200.41944580078126 1038.9066253662108 214.04843444824218 1051.1385650634766 232.27216186523435 Z"/>

<path id="Layer1_4_1_STROKES" stroke="#000000" stroke-width="1" stroke-linejoin="round" stroke-linecap="round" fill="none" d="
M 1022.172055053711 207.642919921875
L 970.4501983642579 207.642919921875 966.1348693847657 228.66074523925784 1020.3403686523437 216.61507873535157 1022.172055053711 207.642919921875 Z
M 992.585662841797 351.47687072753905
L 1019.2848205566407 221.7996826171875 965.0793212890625 233.84534912109376 940.8638061523437 351.47687072753905 992.585662841797 351.47687072753905 Z"/>

<path id="Layer1_5_1_STROKES" stroke="#BF0811" stroke-width="1" stroke-linejoin="round" stroke-linecap="round" fill="none" d="
M 963.85 146.4
Q 963.5 147.15 964.15 147.3 964.8 147.45 965.05 147.15
L 976.65 133.7 973.85 133.35
Q 972.5 133.2 971.75 134.3
L 963.85 146.4 Z
M 951.95 169.65
Q 950.35 174.3 951.25 174.55 952.1 175.05 957.75 170.7 963.4 166.3 964.4 163.25 965.4 160.2 963.05 158.25 960.7 156.3 957.1 160.6 953.5 164.95 951.95 169.65 Z
M 949.9 178.55
Q 948.6 190.25 957.85 188.1 964.6 186.5 971.75 182.35
L 971.75 184.95
Q 959.5 192.85 952.45 192.85 941.1 192.55 944.2 178.6 947.65 160.25 960.9 154.7 970.15 151.15 971.6 157.15 972.6 163.25 964.65 168.65
L 949.9 178.55 Z"/>

<path id="Layer1_6_1_STROKES" stroke="#BF0811" stroke-width="1" stroke-linejoin="round" stroke-linecap="round" fill="none" d="
M 908.05 219.15
Q 911.1 219.15 917.5 212.05 923.1 205.45 926.9 190.3 930.85 178.45 934.25 163.05
L 941.75 163.05 945.05 160.1 934.9 160.1
Q 939.65 137.35 944.1 134.55 948.55 131.7 954.05 133.5
L 957.6 128.85
Q 949.75 127.4 942.9 132.65 933.15 140.5 929.1 160.15
L 921.65 160.1 918.35 163.05 928.3 163.05 920.45 196.5
Q 917.2 213.4 911.15 213.7
L 903.7 213.7 902.6 219.15 908.05 219.15 Z"/>

<path id="Layer1_7_1_STROKES" stroke="#BF0811" stroke-width="1" stroke-linejoin="round" stroke-linecap="round" fill="none" d="
M 890.45 185.15
L 898.45 179.75
Q 899.45 179.25 899.8 178.05
L 904.8 161.15
Q 905.7 158.8 903.45 158 902.15 157.75 900.15 157.7 895.2 157.65 893.3 160.15 886.4 169.5 886.7 181.3 886.6 186.4 890.45 185.15 Z
M 907.15 185.15
L 917.05 179.8 916.7 182.6 901.3 192.3
Q 897.7 194.2 898.05 189.6
L 898.35 184.45
Q 898.35 183.55 897.35 184
L 886 191.75
Q 882.3 194.2 880.85 190.85 880.5 190.15 880.35 188.15 880.25 184.6 880.6 182.4 883.15 167.5 888 160.95 893.15 155.15 899.9 153.25 903.1 152.45 906.15 153 908.2 153.4 909.05 153.65 912.4 154.4 912.95 154.35 915.05 154.45 913.5 156.25
L 910.95 159.5 904.9 182.45
Q 905.3 185.95 907.15 185.15 Z"/>

<path id="Layer1_8_1_STROKES" stroke="#BF0811" stroke-width="1" stroke-linejoin="round" stroke-linecap="round" fill="none" d="
M 841.9 163.3
Q 836.75 184.3 849.15 188.8 855.15 190.7 861.95 187.4
L 872.2 182.95 871.6 185.3
Q 857.25 193.3 847.75 192.85 828.55 192.05 833.2 167.2 837.95 150.7 850.05 142.9 869.45 131.8 879.75 140.95
L 879.75 142.3 875.85 151.8 873.35 152.75 873.35 146.9
Q 871.25 140.35 864.45 140.5 846.7 142.4 841.9 163.3 Z"/>
</defs>

<g transform="matrix( 0.62091064453125, 0, 0, 0.62091064453125, 80.35,130.65) ">
<use xlink:href="#Layer1_0_1_STROKES" transform="matrix( 1.61053466796875, 0, 0, 1.61053466796875, -129.4,-210.4) "/>
</g>

<g transform="matrix( 0.6208038330078125, 0, 0, 0.620697021484375, 139.65,-373.2) ">
<use xlink:href="#Layer1_1_1_STROKES" transform="matrix( 1.610809326171875, 0, 0, 1.611083984375, -224.95,601.25) "/>
</g>

<g transform="matrix( 0.6208038330078125, 0, 0, 0.620697021484375, 142.85,-373.2) ">
<use xlink:href="#Layer1_2_1_STROKES" transform="matrix( 1.610809326171875, 0, 0, 1.611083984375, -230.1,601.25) "/>
</g>

<g transform="matrix( 0.62091064453125, 0, 0, 0.62091064453125, 80.5,131.25) ">
<use xlink:href="#Layer1_3_1_STROKES" transform="matrix( 1.61053466796875, 0, 0, 1.61053466796875, -129.6,-211.35) "/>
</g>

<g transform="matrix( 0.62091064453125, 0, 0, 0.62091064453125, 73.7,130.65) ">
<use xlink:href="#Layer1_4_1_STROKES" transform="matrix( 1.61053466796875, 0, 0, 1.61053466796875, -118.65,-210.4) "/>
</g>

<g transform="matrix( 1, 0, 0, 1, 0,0) ">
<use xlink:href="#Layer1_5_1_STROKES"/>
</g>

<g transform="matrix( 1, 0, 0, 1, 0,0) ">
<use xlink:href="#Layer1_6_1_STROKES"/>
</g>

<g transform="matrix( 1, 0, 0, 1, 0,0) ">
<use xlink:href="#Layer1_7_1_STROKES"/>
</g>

<g transform="matrix( 1, 0, 0, 1, 0,0) ">
<use xlink:href="#Layer1_8_1_STROKES"/>
</g>

<g transform="matrix( 0.62091064453125, 0, 0, 0.62091064453125, 80.35,130.65) ">
<use xlink:href="#Layer0_0_MEMBER_0_FILL"/>
</g>

<g transform="matrix( 0.6208038330078125, 0, 0, 0.620697021484375, 139.65,-373.2) ">
<use xlink:href="#Layer0_0_MEMBER_1_FILL"/>
</g>

<g transform="matrix( 0.6208038330078125, 0, 0, 0.620697021484375, 142.85,-373.2) ">
<use xlink:href="#Layer0_0_MEMBER_2_FILL"/>
</g>

<g transform="matrix( 0.62091064453125, 0, 0, 0.62091064453125, 80.5,131.25) ">
<use xlink:href="#Layer0_0_MEMBER_3_FILL"/>
</g>

<g transform="matrix( 0.62091064453125, 0, 0, 0.62091064453125, 73.7,130.65) ">
<use xlink:href="#Layer0_0_MEMBER_4_FILL"/>
</g>

<g transform="matrix( 1, 0, 0, 1, 0,0) ">
<use xlink:href="#Layer0_0_MEMBER_5_FILL"/>
</g>

<g transform="matrix( 1, 0, 0, 1, 0,0) ">
<use xlink:href="#Layer0_0_MEMBER_6_FILL"/>
</g>

<g transform="matrix( 1, 0, 0, 1, 0,0) ">
<use xlink:href="#Layer0_0_MEMBER_7_FILL"/>
</g>

<g transform="matrix( 1, 0, 0, 1, 0,0) ">
<use xlink:href="#Layer0_0_MEMBER_8_FILL"/>
</g>
</svg>
