
<svg xmlns="http://www.w3.org/2000/svg" version="1.1" xmlns:xlink="http://www.w3.org/1999/xlink" preserveAspectRatio="none" x="0px" y="0px" width="2200px" height="500px" viewBox="0 0 2200 500">
<defs>
<linearGradient id="Gradient_1" gradientUnits="userSpaceOnUse" x1="115.4" y1="35.962500000000006" x2="115.4" y2="-36.0625" spreadMethod="pad">
<stop  offset="0%" stop-color="#0022C7"/>

<stop  offset="28.235294117647058%" stop-color="#0022C7"/>

<stop  offset="74.11764705882354%" stop-color="#006BFF"/>

<stop  offset="100%" stop-color="#0159FE"/>
</linearGradient>

<linearGradient id="Gradient_2" gradientUnits="userSpaceOnUse" x1="0.05" y1="68.85" x2="0.05" y2="-1.3500000000000014" spreadMethod="pad">
<stop  offset="0%" stop-color="#0022C7"/>

<stop  offset="28.235294117647058%" stop-color="#0022C7"/>

<stop  offset="74.11764705882354%" stop-color="#006BFF"/>

<stop  offset="100%" stop-color="#0159FE"/>
</linearGradient>

<linearGradient id="Gradient_3" gradientUnits="userSpaceOnUse" x1="648.5" y1="462.2" x2="648.5" y2="402.09999999999997" spreadMethod="pad">
<stop  offset="32.549019607843135%" stop-color="#0022C7"/>

<stop  offset="80.7843137254902%" stop-color="#004FF5"/>

<stop  offset="100%" stop-color="#004FF5"/>
</linearGradient>

<linearGradient id="Gradient_4" gradientUnits="userSpaceOnUse" x1="648.15" y1="461.7625" x2="648.15" y2="401.83750000000003" spreadMethod="pad">
<stop  offset="32.549019607843135%" stop-color="#0022C7"/>

<stop  offset="80.7843137254902%" stop-color="#004FF5"/>

<stop  offset="100%" stop-color="#004FF5"/>
</linearGradient>

<filter id="Filter_1" x="-20%" y="-20%" width="140%" height="140%" color-interpolation-filters="sRGB">
<feColorMatrix in="SourceGraphic" type="matrix" values="0.85 0 0 0 0 0 0.85 0 0 0 0 0 0.85 0 0 0 0 0 1 0" result="result1"/>
</filter>

<g id="magazancasa___limpo_0_Layer0_0_FILL">
<path fill="#8B2523" stroke="none" d="
M -66.65 118.85
Q -65.010546875 119.337890625 -65.1 120.8 -65.340625 123.878515625 -63.05 123.75 -59.6703125 123.0025390625 -60.35 119.95 -61.45 116.2 -65.5 116.55 -67.5 116.8 -69.7 117.8 -70.65 118.25 -71.95 119.05 -77.25 122.75 -80.8 129.8 -84.5 138.4 -82.35 142.55 -80.55 145.7 -77.75 145.9 -71.9 146.05 -67.1 140.25 -66.85 140 -66.65 139.7 -66.35 139.3 -66.65 138.7 -67.1 138.05 -67.65 138.5 -67.9 138.75 -68.15 139.05 -72.1 143.05 -75.45 142.4 -79.4 141.25 -77.1 132.3 -76.5412109375 130.0099609375 -75.8 128.45 -71.358984375 118.396875 -66.65 118.85
M -36.35 114.85
L -38.35 119.25
Q -40.5 115.9 -46.25 118.75 -54.3 122.75 -59.75 133.4 -65.2 143.9 -60.6 145.7 -58.95 146.35 -55.05 144.2 -49.65 141.15 -44.8 135.35 -44.2 134.6 -44.4 135.45
L -46.6 141.45
Q -48.45 146.8 -43.7 145.7 -41 145 -37.95 142.5 -36.35 141.2 -34.35 138.95 -33.5 138.15 -33.75 137.75 -34.15 136.9 -34.75 137.35 -43.15 144.45 -42.4 140.75
L -33.1 116.15
Q -33.2 115.75 -33.45 115.5 -34.25 114.65 -36.35 114.85
M -48 122.4
Q -44.45 119.35 -41.9 120.55 -40.7 121.2 -40.1 122.35 -39.9 123.55 -41.85 127.6 -45.2 135.1 -52.75 140.55 -57 143.8 -57.15 140.8 -57.3 138.15 -54.75 132.4 -51.85 125.7 -48 122.4
M -18.4 121.5
Q -17.8384765625 122.34765625 -17.1 122.6 -16.3625 122.85 -15.7 121.75 -14.8037109375 120.026171875 -16.2 117.95 -18.2064453125 115.5068359375 -21.55 116.9 -23.3634765625 117.6369140625 -25.75 119.85 -28.1447265625 122.1138671875 -28.55 124.9 -28.8998046875 127.7306640625 -27.65 130.15 -26.4017578125 132.5755859375 -25.75 133.55 -24.933203125 134.5662109375 -24.1 136.45 -23.286328125 138.2267578125 -23.9 140.15 -24.18046875 141.1115234375 -24.75 141.6 -25.553515625 142.5443359375 -26.55 142.65 -28.8 142.85 -31 140.6 -32.811328125 138.509375 -34.1 140.6 -35.5978515625 143.5576171875 -32.65 145.15 -31.718359375 145.76484375 -30.4 145.75 -30.223828125 145.7951171875 -30.05 145.8 -25.8775390625 145.96875 -23.05 143.05 -21.180078125 141.1103515625 -20.55 139.5 -18.260546875 134.4873046875 -23.05 128 -26.0921875 122.8244140625 -24.2 120.85 -22.25 119 -20 120.1 -18.909765625 120.6564453125 -18.4 121.5
M -116.65 109.85
L -116.6 109.9 -137.65 139.45
Q -139.040234375 141.59765625 -141.05 142.55 -142.831640625 143.39453125 -145.1 143.3 -145.58515625 143.3658203125 -145.65 144.1 -145.661328125 144.7705078125 -145.45 145.05 -145.423046875 145.076953125 -145.4 145.1
L -130.95 145.1
Q -130.35 145.15 -130.25 144.3 -130.2 143.65 -130.6 143.4
L -133 143.1
Q -134.5494140625 142.8861328125 -135 142.5 -135.405859375 142.169140625 -134.8 141.05
L -126.4 128.2
Q -125.269140625 126.42890625 -123.85 126.45
L -112.6 126.45
Q -111.590234375 126.4453125 -111.6 127.3
L -112.35 140.45
Q -112.591796875 141.8732421875 -113.5 142.6 -114.0470703125 143.111328125 -115.35 143.2 -116.612109375 143.343359375 -117.65 143.3 -118.15 143.35 -118.15 144.1 -118.2 144.75 -118 145.05
L -117.95 145.1 -102.4 145.1
Q -101.8 145.15 -101.7 144.3 -101.65 143.65 -102.05 143.4
L -104.7 143.15
Q -107.315625 142.87421875 -107.2 140.55
L -105.1 99.25
Q -105.0009765625 98.3693359375 -105.5 98.2 -105.8314453125 98.001171875 -107.25 99.1 -108.93046875 100.07421875 -110.7 100.35 -112.394140625 104.5353515625 -116.65 109.85
M -119 117.45
Q -116.8833984375 114.3244140625 -113.65 109.65 -110.356640625 104.962890625 -110.3 105.85
L -111.4 122.8
Q -111.415625 123.76796875 -112.3 123.8
L -121.05 123.8
Q -123.4431640625 123.903125 -122.7 122.7 -121.058984375 120.5646484375 -119 117.45
M 114.85 117.6
Q 114.05 116.75 111.95 117 103.43046875 134.6369140625 93.4 141.05 91.2033203125 142.064453125 91.8 139.45
L 99.45 119.2
Q 100.2482421875 117.063671875 97.9 116.5 96.101171875 116.14921875 91.2 119.55 88.652734375 121.5 86.85 123.45 86.28671875 123.9896484375 85.9 124.5 85.5099609375 125.0076171875 86.1 125.4 86.7466796875 125.797265625 87.15 125.5 87.45 125.3 87.7 125.05 91.5265625 121.626171875 92.7 121.1 94.4 120.4 93.65 122.5
L 88.2 137.1
Q 86.1796875 141.828125 86.85 144.25 87.672265625 147.3908203125 92.4 144.55 96.310546875 142.20703125 100.2 137.7 106.480859375 130.6119140625 106.4 130.8
L 102.15 142.5
Q 101.6333984375 143.9736328125 101.8 144.5 102.2521484375 146.47421875 105 145.65 107.799609375 144.883203125 110.35 142.65 112.9498046875 140.455078125 114.75 138.05 115.55 137.15 115.3 136.8 114.8 135.95 114.25 136.45 113.2 137.45 112.35 138.25 109.147265625 141.248828125 108 141.5 106.584375 141.803125 107.15 139.95
L 115.25 118.25
Q 115.1 117.85 114.85 117.6
M 145.05 115.5
Q 144.2603515625 114.634765625 142.15 114.85
L 140.15 119.25
Q 137.9970703125 115.91875 132.25 118.75 124.219140625 122.76796875 118.7 133.4 113.31328125 143.8822265625 117.85 145.7 119.556640625 146.346875 123.45 144.2 128.866015625 141.12578125 133.7 135.35 134.2927734375 134.6244140625 134.1 135.45
L 131.9 141.45
Q 130.0421875 146.7955078125 134.8 145.7 137.4873046875 144.9765625 140.55 142.5 142.1390625 141.2169921875 144.15 138.95 145.017578125 138.1548828125 144.7 137.75 144.3251953125 136.90390625 143.75 137.35 135.338671875 144.473828125 136.05 140.75
L 145.4 116.15
Q 145.2859375 115.7716796875 145.05 115.5
M 136.6 120.55
Q 137.8189453125 121.1837890625 138.35 122.35 138.5876953125 123.554296875 136.65 127.6 133.31015625 135.0775390625 125.75 140.5 121.4958984375 143.816015625 121.35 140.8 121.2 138.15 123.75 132.4 126.65 125.7 130.5 122.4 134.05 119.35 136.6 120.55
M 9.4 114.85
L 7.4 119.25
Q 5.25 115.9 -0.5 118.75 -8.55 122.75 -14 133.4 -19.45 143.9 -14.85 145.7 -13.2 146.35 -9.3 144.2 -3.9 141.15 0.95 135.35 1.55 134.6 1.35 135.45
L -0.85 141.45
Q -2.7 146.8 2.05 145.7 4.75 145 7.8 142.5 9.0650390625 141.4720703125 10.55 139.85 10.9814453125 139.4208984375 11.4 138.95 12.25 138.15 12 137.75 11.6 136.9 11 137.35 10.2927734375 137.9478515625 9.65 138.45 2.6630859375 144.1384765625 3.35 140.75
L 12.65 116.15
Q 12.55 115.75 12.3 115.5 11.5 114.65 9.4 114.85
M 3.85 120.55
Q 5.05 121.2 5.65 122.35 5.85 123.55 3.9 127.6 0.55 135.1 -7 140.55 -11.25 143.8 -11.4 140.8 -11.55 138.15 -9 132.4 -6.1 125.7 -2.25 122.4 1.3 119.35 3.85 120.55
M 47.3 116.55
Q 45.28515625 116.7845703125 43.05 117.8 42.14375 118.25703125 40.85 119.05 35.5337890625 122.732421875 32 129.8 28.3240234375 138.3931640625 30.45 142.55 32.2509765625 145.7208984375 35.05 145.9 40.9228515625 146.04140625 45.7 140.25 45.930078125 139.981640625 46.15 139.7 46.45 139.3 46.15 138.7 45.6810546875 138.030078125 45.15 138.5 44.8990234375 138.7732421875 44.65 139 40.723046875 143.045703125 37.35 142.4 33.3875 141.2732421875 35.7 132.3 53.8419921875 127.397265625 52.45 119.95 51.3642578125 116.215234375 47.3 116.55
M 47.1 118.65
Q 47.9896484375 118.746484375 48.35 119.7 49.1373046875 121.7525390625 46.15 124.7 44.3 126.55 42 127.9 35.884375 131.171875 36.65 129.45 37.8580078125 126.988671875 39.9 124.1 43.7109375 118.8197265625 47.1 118.65
M 54.95 104.8
Q 55.92421875 103.9693359375 55.4 102.85 54.86953125 101.769921875 53.65 101 52.487109375 100.240625 51.2 102.1
L 44.75 111.95
Q 44.4783203125 112.18203125 44.75 112.55
L 45.05 112.85
Q 45.4564453125 113.2486328125 45.8 113
L 54.95 104.8
M 78.25 116.9
Q 76.45 117.65 74.05 119.9 71.65 122.1 71.3 124.95 70.9 127.75 72.15 130.15 73.4 132.6 74.1 133.55 74.85 134.55 75.7 136.45 76.5 138.25 75.9 140.15 75.6 141.1 75.05 141.65 74.25 142.55 73.25 142.65 71 142.85 68.8 140.6 67 138.5 65.7 140.6 64.2 143.55 67.15 145.2 68.1 145.75 69.4 145.8 69.6 145.8 69.75 145.8 73.9 145.95 76.75 143.1 78.6 141.1 79.25 139.5 81.55 134.5 76.75 128 73.7 122.8 75.6 120.85 77.55 119 79.8 120.1 80.9 120.65 81.45 121.5 81.95 122.35 82.7 122.6 83.45 122.85 84.1 121.75 85 120.05 83.6 117.95 81.6 115.5 78.25 116.9 Z"/>
</g>

<g id="magazancasa___limpo_0_Layer0_1_FILL">
<path fill="#CCCCCC" stroke="none" d="
M -219.1 -85.3
L -219.1 86.7 219.25 86.75 219.25 -85.3 -219.1 -85.3
M -214.9 82.55
L -214.9 -81.1 215.05 -81.1 215.05 82.55 -214.9 82.55 Z"/>

<path fill="#FFFFFF" stroke="none" d="
M -214.9 -81.1
L -214.9 82.55 215.05 82.55 215.05 -81.1 -214.9 -81.1 Z"/>
</g>

<g id="magazancasa___limpo_0_Layer0_2_MEMBER_0_FILL">
<path fill="#172983" stroke="none" d="
M 577.3 368.55
L 165 368.55 165 440.35 577.3 440.35 577.3 368.55 Z"/>
</g>

<g id="magazancasa___limpo_0_Layer0_2_MEMBER_1_FILL">
<path fill="#FFFFFF" stroke="none" d="
M -51.1 23.55
L -51.1 3.6 -52.75 3.6
Q -53.05 5.75 -54 6.75 -55.05 7.75 -56.4 7.75 -57.45 7.75 -61.35 6.2 -68.1 3.6 -74.2 3.6 -82.45 3.6 -89.75 7.65 -97.1 11.75 -101.4 19.15 -105.6 26.3 -105.7 34.35 -105.7 34.55 -105.7 34.75 -105.7 42.6 -101.8 49.5 -97.95 56.45 -90.75 60.1 -83.6 63.8 -74.4 63.8 -67.4 63.8 -62.1 61.55 -56.9 59.25 -52.05 54.2
L -52.05 49.25
Q -57.05 55.05 -61.55 57.45 -66.1 59.8 -71.55 59.8 -78.2 59.8 -82.35 56.6 -86.5 53.3 -88.45 47 -90.2 41.2 -90.35 34.35 -90.4 33.65 -90.4 32.9 -90.4 25.05 -87.75 18.6 -85.65 13.6 -81.15 10.5 -76.65 7.4 -71.25 7.4 -64.8 7.4 -59.7 11.55 -54.6 15.75 -52.75 23.55
L -51.1 23.55
M 44.05 46.25
Q 44.05 40.55 40.55 36.1 39.85 35.25 38.95 34.35 35.05 30.75 26.95 26.75 19.7 23.15 17.7 21.75 15 19.8 13.75 17.8 12.85 16.3 12.85 14.4 12.85 11.4 15.4 9.1 17.95 6.75 22.25 6.75 27.85 6.75 32.7 11.2 37.5 15.55 38.75 22.8
L 40.5 22.8 40 3.6 38.75 3.6
Q 38.2 6.15 37.55 6.85 36.9 7.55 35.8 7.55 34.65 7.55 31.8 6.15 28.95 4.75 26.95 4.25 24.3 3.6 21.5 3.6 13.8 3.6 8.75 8.4 3.7 13.25 3.7 20.15 3.7 24.2 5.55 27.55 7.4 30.9 10.85 33.6 11.3 33.95 11.85 34.35 15.3 36.85 22.15 40.2 27.75 42.95 29.95 44.7 32.15 46.4 33.25 48.3 34.3 50.2 34.3 52.25 34.3 55.7 31.5 58.3 28.65 60.9 23.9 60.9 17.75 60.9 12.45 56.1 7.1 51.25 5.2 42.05
L 3.65 42.05 3.65 60.2
Q 2.95 59.85 2.45 59.4 0.55 57.65 -2.4 50.95
L -23.2 3.7 -24 3.7 -44.6 49.65
Q -47.55 56.25 -49.5 58.4 -51.5 60.45 -54.6 60.95
L -54.6 62.5 -35.45 62.5 -35.45 60.95
Q -39.95 60.6 -41.1 59.9 -43.05 58.75 -43.05 56.35 -43.05 54.5 -41.9 51.7
L -39.45 46.1 -19.1 46.1 -16.05 53.3
Q -14.85 56.1 -14.75 56.45 -14.5 57.25 -14.5 58.05 -14.5 59.3 -15.45 60 -16.8 60.95 -20.15 60.95
L -21.3 60.95 -21.3 62.5 3.65 62.5 3.65 63.8 5.2 63.8
Q 5.55 63.05 5.95 62.5
L 5.85 62.6 6.55 61.8
Q 6.85 61.5 7.2 61.25 8.45 60.4 9.55 60.4 10.85 60.4 12.9 61.25 16.55 62.75 19 63.3 21.4 63.85 24.15 63.85 32.8 63.85 38.45 58.7 44.05 53.45 44.05 46.25
M -29.15 23.1
L -20.55 42.95 -37.95 42.95 -29.15 23.1
M 101.4 59.4
Q 99.5 57.65 96.55 50.95
L 75.75 3.7 74.95 3.7 54.35 49.65
Q 51.4 56.25 49.45 58.4 47.45 60.45 44.35 60.95
L 44.35 62.5 63.5 62.5 63.5 60.95
Q 59 60.6 57.85 59.9 55.9 58.75 55.9 56.35 55.9 54.5 57.05 51.7
L 59.5 46.1 79.85 46.1 82.9 53.3
Q 84.1 56.1 84.2 56.45 84.45 57.25 84.45 58.05 84.45 59.3 83.5 60 82.15 60.95 78.8 60.95
L 77.65 60.95 77.65 62.5 105.5 62.5 105.5 60.95
Q 102.85 60.7 101.4 59.4
M 69.8 23.1
L 78.4 42.95 61 42.95 69.8 23.1 Z"/>

<path fill="#172983" stroke="none" d="
M -37.9 -68.3
Q -39.4 -68.8 -40.35 -68.95 -43.75 -69.6 -48.05 -69.6 -53.35 -69.6 -57.9 -68.3 -65.4 -66.2 -71.05 -60.65 -80.15 -51.7 -80.15 -38.7 -80.15 -31.4 -77.2 -25.55 -74.85 -21 -70.7 -17.35 -66.6 -13.75 -61.15 -11.5 -55.75 -9.3 -47.55 -9.3 -41.15 -9.3 -35.15 -10.5 -29.2 -11.8 -23.7 -14.25
L -23.7 -26.25
Q -23.7 -29.4 -23.3 -30.2 -22.6 -31.7 -21.35 -32.35 -20.1 -33.05 -16.9 -33.25
L -16.9 -34.8 -44.9 -34.8 -44.9 -33.25 -43.45 -33.25
Q -41.35 -33.25 -39.85 -32.45 -38.4 -31.65 -37.95 -30.6 -37.5 -29.65 -37.5 -26.25
L -37.5 -14.25
Q -39.8 -13.4 -41.95 -12.95 -44.15 -12.5 -46.25 -12.5 -52.2 -12.5 -56.55 -15.45 -60.95 -18.4 -62.9 -24.65 -64.85 -30.85 -64.85 -39.15 -64.85 -46 -63.05 -52.5 -61.25 -59 -57 -62.6 -52.7 -66.25 -46.25 -66.25 -39.5 -66.25 -33.8 -61.9 -28.1 -57.6 -25.25 -49.25
L -23.7 -49.25 -23.7 -69.55 -25.25 -69.55
Q -25.5 -68.85 -25.75 -68.3 -26.4 -66.9 -27.1 -66.25 -28.15 -65.4 -29.3 -65.4 -30.1 -65.4 -34.25 -67 -36.4 -67.8 -37.9 -68.3
M -198.6 -63.9
Q -198.15 -62.85 -198.15 -58.5
L -198.15 -22.05
Q -198.15 -18.15 -198.2 -17.7 -198.7 -15.7 -199.55 -14.6 -200.4 -13.5 -202.05 -12.8 -203.7 -12.2 -205.6 -12.2
L -206.2 -12.2 -206.2 -10.65 -186.5 -10.65 -186.5 -12.2
Q -190.45 -12.2 -192.25 -13.55 -194.15 -14.9 -194.7 -17 -194.9 -18 -194.9 -22.25
L -194.9 -62.8 -172.5 -10.65 -171.45 -10.65 -149.35 -63.2 -149.35 -20.5
Q -149.35 -16.15 -149.85 -15.15 -150.45 -13.7 -151.55 -13.1 -153.05 -12.2 -155.6 -12.2
L -157.5 -12.2 -157.5 -10.65 -111.7 -10.65 -111.7 -12.2
Q -116.2 -12.55 -117.35 -13.25 -119.3 -14.4 -119.3 -16.8 -119.3 -18.65 -118.15 -21.45
L -115.7 -27.05 -95.35 -27.05 -92.3 -19.85
Q -91.1 -17.05 -91 -16.7 -90.75 -15.9 -90.75 -15.1 -90.75 -13.85 -91.7 -13.15 -93.05 -12.2 -96.4 -12.2
L -97.55 -12.2 -97.55 -10.65 -69.7 -10.65 -69.7 -12.2
Q -72.35 -12.45 -73.8 -13.75 -75.7 -15.5 -78.65 -22.2
L -99.45 -69.45 -100.25 -69.45 -120.85 -23.5
Q -123.8 -16.9 -125.75 -14.75 -127.65 -12.8 -130.5 -12.25 -132.1 -12.45 -133.15 -13.05 -134.6 -13.9 -135.05 -15 -135.5 -16.1 -135.5 -20.5
L -135.5 -58.5
Q -135.5 -62.75 -135.05 -63.8 -134.4 -65.2 -133.35 -65.8 -131.8 -66.7 -129.3 -66.7
L -127.4 -66.7 -127.4 -68.25 -150.85 -68.25 -166.5 -30.3 -182.65 -68.25 -206.2 -68.25 -206.2 -66.7 -204.4 -66.7
Q -201.95 -66.7 -200.5 -65.85 -199.05 -65 -198.6 -63.9
M -96.8 -30.2
L -114.2 -30.2 -105.4 -50.05 -96.8 -30.2
M 153.4 -62.85
L 154.65 -61.35 154.65 -20.7
Q 154.65 -16.1 152.75 -14.2 151 -12.4 146.75 -12.2 144.2 -12.5 142.8 -13.75 140.9 -15.5 137.95 -22.2
L 117.15 -69.45 116.35 -69.45 95.75 -23.5
Q 92.8 -16.9 90.85 -14.75 88.85 -12.7 85.75 -12.2
L 85.75 -10.65 104.9 -10.65 104.9 -12.2
Q 100.4 -12.55 99.25 -13.25 97.3 -14.4 97.3 -16.8 97.3 -18.65 98.45 -21.45
L 100.9 -27.05 121.25 -27.05 124.3 -19.85
Q 125.5 -17.05 125.6 -16.7 125.85 -15.9 125.85 -15.1 125.85 -13.85 124.9 -13.15 123.55 -12.2 120.2 -12.2
L 119.05 -12.2 119.05 -10.65 166.55 -10.65 166.55 -12.2 165.2 -12.2
Q 162.25 -12.2 160 -13.95 157.75 -15.7 157.75 -20.7
L 157.75 -57.3 196.7 -9.35 198.15 -9.35 198.15 -57.3
Q 198.15 -61.35 198.85 -63.05 199.55 -64.75 200.8 -65.45 202.05 -66.2 205.7 -66.7
L 205.7 -68.25 186.65 -68.25 186.65 -66.7
Q 191.45 -66.75 193.5 -64.3 195 -62.5 195 -57.3
L 195 -32.55 166.55 -68.25 146.15 -68.25 146.15 -66.7
Q 148.75 -66.6 150.15 -65.85 151.55 -65.15 153.4 -62.85
M 119.8 -30.2
L 102.4 -30.2 111.2 -50.05 119.8 -30.2
M 5.55 -69.45
L 4.75 -69.45 -15.85 -23.5
Q -18.8 -16.9 -20.75 -14.75 -22.75 -12.7 -25.85 -12.2
L -25.85 -10.65 -6.7 -10.65 -6.7 -12.2
Q -11.2 -12.55 -12.35 -13.25 -14.3 -14.4 -14.3 -16.8 -14.3 -18.65 -13.15 -21.45
L -10.7 -27.05 9.65 -27.05 12.7 -19.85
Q 13.9 -17.05 14 -16.7 14.25 -15.9 14.25 -15.1 14.25 -13.85 13.3 -13.15 11.95 -12.2 8.6 -12.2
L 7.45 -12.2 7.45 -10.65 35.3 -10.65 35.3 -12.2
Q 32.65 -12.45 31.2 -13.75 29.3 -15.5 26.35 -22.2
L 5.55 -69.45
M -9.2 -30.2
L -0.4 -50.05 8.2 -30.2 -9.2 -30.2 Z"/>
</g>

<g id="magazancasa___limpo_0_Layer0_2_MEMBER_2_FILL">
<path fill="#EC0100" stroke="none" d="
M 588.95 444.05
L 570.6 444.05 591.2 403.9 537.75 403.9 537.75 421.15 556.2 421.15 535.95 460.8 588.95 460.8 588.95 444.05 Z"/>
</g>

<g id="magazancasa_2_limpo_0_Layer0_0_FILL">
<path fill="#CCCCCC" stroke="none" d="
M 481.85 -84.45
L -218.65 -84.45 -218.65 8.3 481.85 8.3 481.85 -84.45
M -214.45 4.1
L -214.45 -80.25 477.65 -80.25 477.65 4.1 -214.45 4.1 Z"/>

<path fill="#FFFFFF" stroke="none" d="
M -214.45 -80.25
L -214.45 4.1 477.65 4.1 477.65 -80.25 -214.45 -80.25 Z"/>
</g>

<g id="magazancasa_barra_horizontal_0_Layer0_0_FILL">
<path fill="url(#Gradient_1)" stroke="none" d="
M 119.55 -36.85
L -119.55 -36.85 -119.55 36.85 119.55 36.85 119.55 -36.85 Z"/>
</g>

<g id="magazancasa_2_limpo_0_Layer0_2_FILL">
<path fill="#172983" stroke="none" d="
M -37.4 -65.6
Q -30.5 -65.6 -24.65 -61.15 -18.8 -56.7 -15.85 -48.15
L -14.3 -48.15 -14.3 -68.95 -15.85 -68.95
Q -16.15 -68.25 -16.4 -67.7 -17.05 -66.25 -17.75 -65.6 -18.85 -64.7 -20 -64.7 -20.85 -64.7 -25.1 -66.35 -27.3 -67.15 -28.85 -67.7 -30.35 -68.2 -31.35 -68.35 -34.85 -69 -39.25 -69 -44.65 -69 -49.35 -67.7 -57 -65.55 -62.8 -59.85 -72.15 -50.7 -72.15 -37.35 -72.15 -29.9 -69.1 -23.9 -66.7 -19.2 -62.45 -15.5 -58.25 -11.8 -52.65 -9.5 -47.15 -7.25 -38.7 -7.25 -32.15 -7.25 -26 -8.45 -19.9 -9.8 -14.3 -12.3
L -14.3 -24.6
Q -14.3 -27.85 -13.9 -28.65 -13.15 -30.2 -11.9 -30.85 -10.6 -31.55 -7.3 -31.75
L -7.3 -33.35 -36 -33.35 -36 -31.75 -34.5 -31.75
Q -32.35 -31.75 -30.85 -30.95 -29.35 -30.15 -28.9 -29.05 -28.45 -28.1 -28.45 -24.6
L -28.45 -12.3
Q -30.8 -11.45 -33 -10.95 -35.25 -10.5 -37.4 -10.5 -43.5 -10.5 -47.95 -13.55 -52.45 -16.55 -54.45 -22.95 -56.45 -29.3 -56.45 -37.8 -56.45 -44.85 -54.6 -51.5 -52.75 -58.15 -48.4 -61.85 -44 -65.6 -37.4 -65.6
M -193.5 -63.2
Q -193.05 -62.1 -193.05 -57.65
L -193.05 -20.3
Q -193.05 -16.3 -193.1 -15.85 -193.6 -13.8 -194.5 -12.65 -195.35 -11.55 -197.05 -10.8 -198.75 -10.2 -200.7 -10.2
L -201.3 -10.2 -201.3 -8.6 -181.1 -8.6 -181.1 -10.2
Q -185.15 -10.2 -187 -11.6 -188.95 -12.95 -189.5 -15.1 -189.7 -16.15 -189.7 -20.5
L -189.7 -62.05 -166.75 -8.6 -165.7 -8.6 -143.05 -62.45 -143.05 -18.7
Q -143.05 -14.25 -143.55 -13.2 -144.15 -11.75 -145.3 -11.1 -146.85 -10.2 -149.45 -10.2
L -151.4 -10.2 -151.4 -8.6 -104.45 -8.6 -104.45 -10.2
Q -109.05 -10.55 -110.25 -11.3 -112.25 -12.45 -112.25 -14.9 -112.25 -16.8 -111.05 -19.7
L -108.55 -25.4 -87.7 -25.4 -84.6 -18.05
Q -83.35 -15.15 -83.25 -14.8 -83 -14 -83 -13.15 -83 -11.9 -83.95 -11.15 -85.35 -10.2 -88.8 -10.2
L -89.95 -10.2 -89.95 -8.6 -61.4 -8.6 -61.4 -10.2
Q -64.15 -10.45 -65.6 -11.8 -67.55 -13.6 -70.6 -20.45
L -91.9 -68.85 -92.75 -68.85 -113.85 -21.8
Q -116.85 -15 -118.85 -12.8 -120.8 -10.8 -123.7 -10.25 -125.35 -10.45 -126.45 -11.05 -127.9 -11.95 -128.4 -13.05 -128.85 -14.2 -128.85 -18.7
L -128.85 -57.65
Q -128.85 -62 -128.4 -63.1 -127.7 -64.5 -126.65 -65.1 -125.05 -66.05 -122.5 -66.05
L -120.55 -66.05 -120.55 -67.65 -144.55 -67.65 -160.6 -28.75 -177.15 -67.65 -201.3 -67.65 -201.3 -66.05 -199.45 -66.05
Q -196.95 -66.05 -195.45 -65.2 -193.95 -64.3 -193.5 -63.2
M -98 -49
L -89.2 -28.65 -107 -28.65 -98 -49
M 130.05 -68.85
L 129.2 -68.85 108.1 -21.8
Q 105.1 -15 103.1 -12.8 101.05 -10.7 97.85 -10.2
L 97.85 -8.6 117.5 -8.6 117.5 -10.2
Q 112.9 -10.55 111.7 -11.3 109.7 -12.45 109.7 -14.9 109.7 -16.8 110.9 -19.7
L 113.4 -25.4 134.25 -25.4 137.35 -18.05
Q 138.6 -15.15 138.7 -14.8 138.95 -14 138.95 -13.15 138.95 -11.9 138 -11.15 136.6 -10.2 133.15 -10.2
L 132 -10.2 132 -8.6 180.65 -8.6 180.65 -10.2 179.3 -10.2
Q 176.25 -10.2 173.95 -12 171.65 -13.8 171.65 -18.9
L 171.65 -56.4 211.55 -7.3 213.05 -7.3 213.05 -56.4
Q 213.05 -60.55 213.75 -62.3 214.5 -64.05 215.75 -64.75 217.05 -65.55 220.8 -66.05
L 220.8 -67.65 201.25 -67.65 201.25 -66.05
Q 206.2 -66.1 208.3 -63.6 209.8 -61.75 209.8 -56.4
L 209.8 -31.05 180.65 -67.65 159.75 -67.65 159.75 -66.05
Q 162.4 -65.95 163.85 -65.2 165.3 -64.45 167.2 -62.1
L 168.45 -60.55 168.45 -18.9
Q 168.45 -14.2 166.5 -12.25 164.75 -10.4 160.35 -10.2 157.75 -10.5 156.35 -11.8 154.4 -13.6 151.35 -20.45
L 130.05 -68.85
M 123.95 -49
L 132.75 -28.65 114.95 -28.65 123.95 -49
M 15.7 -68.85
L 14.85 -68.85 -6.25 -21.8
Q -9.25 -15 -11.25 -12.8 -13.3 -10.7 -16.5 -10.2
L -16.5 -8.6 3.15 -8.6 3.15 -10.2
Q -1.5 -10.55 -2.65 -11.3 -4.65 -12.45 -4.65 -14.9 -4.65 -16.8 -3.45 -19.7
L -0.95 -25.4 19.9 -25.4 23 -18.05
Q 24.25 -15.15 24.35 -14.8 24.6 -14 24.6 -13.15 24.6 -11.9 23.65 -11.15 22.25 -10.2 18.8 -10.2
L 17.65 -10.2 17.65 -8.6 46.15 -8.6 46.15 -10.2
Q 43.45 -10.45 41.95 -11.8 40 -13.6 37 -20.45
L 15.7 -68.85
M 18.4 -28.65
L 0.55 -28.65 9.6 -49 18.4 -28.65 Z"/>
</g>

<g id="magazancasa_2_limpo_0_Layer0_3_FILL">
<path fill="#EC0100" stroke="none" d="
M 588.95 444.05
L 570.6 444.05 591.2 403.9 537.75 403.9 537.75 421.15 556.2 421.15 535.95 460.8 588.95 460.8 588.95 444.05 Z"/>
</g>

<g id="magazancasa_2_limpo_0_Layer0_4_FILL">
<path fill="#FFFFFF" stroke="none" d="
M 397.15 -10.85
L 397.15 -9.3 416.3 -9.3 416.3 -10.85
Q 411.8 -11.2 410.65 -11.9 408.7 -13.05 408.7 -15.45 408.7 -17.3 409.85 -20.1
L 412.3 -25.7 432.65 -25.7 435.7 -18.5
Q 436.9 -15.7 437 -15.35 437.25 -14.55 437.25 -13.75 437.25 -12.5 436.3 -11.8 434.95 -10.85 431.6 -10.85
L 430.45 -10.85 430.45 -9.3 458.3 -9.3 458.3 -10.85
Q 455.65 -11.1 454.2 -12.4 452.3 -14.15 449.35 -20.85
L 428.55 -68.1 427.75 -68.1 407.15 -22.15
Q 404.2 -15.55 402.25 -13.4 400.25 -11.35 397.15 -10.85
M 413.8 -28.85
L 422.6 -48.7 431.2 -28.85 413.8 -28.85
M 303.3 -13.4
Q 301.3 -11.35 298.2 -10.85
L 298.2 -9.3 317.35 -9.3 317.35 -10.85
Q 312.85 -11.2 311.7 -11.9 309.75 -13.05 309.75 -15.45 309.75 -17.3 310.9 -20.1
L 313.35 -25.7 333.7 -25.7 336.75 -18.5
Q 337.95 -15.7 338.05 -15.35 338.3 -14.55 338.3 -13.75 338.3 -12.5 337.35 -11.8 336 -10.85 332.65 -10.85
L 331.5 -10.85 331.5 -9.3 356.45 -9.3 356.45 -8 358 -8
Q 358.35 -8.75 358.75 -9.3
L 358.8 -9.35 359.35 -10
Q 359.65 -10.3 360 -10.55 361.25 -11.4 362.35 -11.4 363.65 -11.4 365.7 -10.55 369.35 -9.05 371.8 -8.5 374.2 -7.95 376.95 -7.95 385.6 -7.95 391.25 -13.1 396.85 -18.35 396.85 -25.55 396.85 -31.25 393.35 -35.7 392.65 -36.55 391.75 -37.45 387.85 -41.05 379.75 -45.05 372.5 -48.65 370.5 -50.05 367.8 -52 366.55 -54 365.65 -55.5 365.65 -57.4 365.65 -60.4 368.2 -62.7 370.75 -65.05 375.05 -65.05 380.65 -65.05 385.5 -60.6 390.3 -56.25 391.55 -49
L 393.3 -49 392.8 -68.2 391.55 -68.2
Q 391 -65.65 390.35 -64.95 389.7 -64.25 388.6 -64.25 387.45 -64.25 384.6 -65.65 381.75 -67.05 379.75 -67.55 377.1 -68.2 374.3 -68.2 366.6 -68.2 361.55 -63.4 356.5 -58.55 356.5 -51.65 356.5 -47.6 358.35 -44.25 360.2 -40.9 363.65 -38.2 364.1 -37.85 364.65 -37.45 368.1 -34.95 374.95 -31.6 380.55 -28.85 382.75 -27.1 384.95 -25.4 386.05 -23.5 387.1 -21.6 387.1 -19.55 387.1 -16.1 384.3 -13.5 381.45 -10.9 376.7 -10.9 370.55 -10.9 365.25 -15.7 359.9 -20.55 358 -29.75
L 356.45 -29.75 356.45 -11.6
Q 355.75 -11.95 355.25 -12.4 353.35 -14.15 350.4 -20.85
L 329.6 -68.1 328.8 -68.1 308.2 -22.15
Q 305.25 -15.55 303.3 -13.4
M 314.85 -28.85
L 323.65 -48.7 332.25 -28.85 314.85 -28.85
M 296.4 -64.05
Q 295.35 -64.05 291.45 -65.6 284.7 -68.2 278.6 -68.2 270.35 -68.2 263.05 -64.15 255.7 -60.05 251.4 -52.65 247.2 -45.5 247.1 -37.45 247.1 -37.25 247.1 -37.05 247.1 -29.2 251 -22.3 254.85 -15.35 262.05 -11.7 269.2 -8 278.4 -8 285.4 -8 290.7 -10.25 295.9 -12.55 300.75 -17.6
L 300.75 -22.55
Q 295.75 -16.75 291.25 -14.35 286.7 -12 281.25 -12 274.6 -12 270.45 -15.2 266.3 -18.5 264.35 -24.8 262.6 -30.6 262.45 -37.45 262.4 -38.15 262.4 -38.9 262.4 -46.75 265.05 -53.2 267.15 -58.2 271.65 -61.3 276.15 -64.4 281.55 -64.4 288 -64.4 293.1 -60.25 298.2 -56.05 300.05 -48.25
L 301.7 -48.25 301.7 -68.2 300.05 -68.2
Q 299.75 -66.05 298.8 -65.05 297.75 -64.05 296.4 -64.05 Z"/>
</g>

<g id="magazancasa_2_limpo_0_Layer0_5_FILL">
<path fill="#8B2523" stroke="none" d="
M -66.65 118.85
Q -65.010546875 119.337890625 -65.1 120.8 -65.340625 123.878515625 -63.05 123.75 -59.6703125 123.0025390625 -60.35 119.95 -61.45 116.2 -65.5 116.55 -67.5 116.8 -69.7 117.8 -70.65 118.25 -71.95 119.05 -77.25 122.75 -80.8 129.8 -84.5 138.4 -82.35 142.55 -80.55 145.7 -77.75 145.9 -71.9 146.05 -67.1 140.25 -66.85 140 -66.65 139.7 -66.35 139.3 -66.65 138.7 -67.1 138.05 -67.65 138.5 -67.9 138.75 -68.15 139.05 -72.1 143.05 -75.45 142.4 -79.4 141.25 -77.1 132.3 -76.5412109375 130.0099609375 -75.8 128.45 -71.358984375 118.396875 -66.65 118.85
M -36.35 114.85
L -38.35 119.25
Q -40.5 115.9 -46.25 118.75 -54.3 122.75 -59.75 133.4 -65.2 143.9 -60.6 145.7 -58.95 146.35 -55.05 144.2 -49.65 141.15 -44.8 135.35 -44.2 134.6 -44.4 135.45
L -46.6 141.45
Q -48.45 146.8 -43.7 145.7 -41 145 -37.95 142.5 -36.35 141.2 -34.35 138.95 -33.5 138.15 -33.75 137.75 -34.15 136.9 -34.75 137.35 -43.15 144.45 -42.4 140.75
L -33.1 116.15
Q -33.2 115.75 -33.45 115.5 -34.25 114.65 -36.35 114.85
M -48 122.4
Q -44.45 119.35 -41.9 120.55 -40.7 121.2 -40.1 122.35 -39.9 123.55 -41.85 127.6 -45.2 135.1 -52.75 140.55 -57 143.8 -57.15 140.8 -57.3 138.15 -54.75 132.4 -51.85 125.7 -48 122.4
M -18.4 121.5
Q -17.8384765625 122.34765625 -17.1 122.6 -16.3625 122.85 -15.7 121.75 -14.8037109375 120.026171875 -16.2 117.95 -18.2064453125 115.5068359375 -21.55 116.9 -23.3634765625 117.6369140625 -25.75 119.85 -28.1447265625 122.1138671875 -28.55 124.9 -28.8998046875 127.7306640625 -27.65 130.15 -26.4017578125 132.5755859375 -25.75 133.55 -24.933203125 134.5662109375 -24.1 136.45 -23.286328125 138.2267578125 -23.9 140.15 -24.18046875 141.1115234375 -24.75 141.6 -25.553515625 142.5443359375 -26.55 142.65 -28.8 142.85 -31 140.6 -32.811328125 138.509375 -34.1 140.6 -35.5978515625 143.5576171875 -32.65 145.15 -31.718359375 145.76484375 -30.4 145.75 -30.223828125 145.7951171875 -30.05 145.8 -25.8775390625 145.96875 -23.05 143.05 -21.180078125 141.1103515625 -20.55 139.5 -18.260546875 134.4873046875 -23.05 128 -26.0921875 122.8244140625 -24.2 120.85 -22.25 119 -20 120.1 -18.909765625 120.6564453125 -18.4 121.5
M -116.65 109.85
L -116.6 109.9 -137.65 139.45
Q -139.040234375 141.59765625 -141.05 142.55 -142.831640625 143.39453125 -145.1 143.3 -145.58515625 143.3658203125 -145.65 144.1 -145.661328125 144.7705078125 -145.45 145.05 -145.423046875 145.076953125 -145.4 145.1
L -130.95 145.1
Q -130.35 145.15 -130.25 144.3 -130.2 143.65 -130.6 143.4
L -133 143.1
Q -134.5494140625 142.8861328125 -135 142.5 -135.405859375 142.169140625 -134.8 141.05
L -126.4 128.2
Q -125.269140625 126.42890625 -123.85 126.45
L -112.6 126.45
Q -111.590234375 126.4453125 -111.6 127.3
L -112.35 140.45
Q -112.591796875 141.8732421875 -113.5 142.6 -114.0470703125 143.111328125 -115.35 143.2 -116.612109375 143.343359375 -117.65 143.3 -118.15 143.35 -118.15 144.1 -118.2 144.75 -118 145.05
L -117.95 145.1 -102.4 145.1
Q -101.8 145.15 -101.7 144.3 -101.65 143.65 -102.05 143.4
L -104.7 143.15
Q -107.315625 142.87421875 -107.2 140.55
L -105.1 99.25
Q -105.0009765625 98.3693359375 -105.5 98.2 -105.8314453125 98.001171875 -107.25 99.1 -108.93046875 100.07421875 -110.7 100.35 -112.394140625 104.5353515625 -116.65 109.85
M -110.3 105.85
L -111.4 122.8
Q -111.415625 123.76796875 -112.3 123.8
L -121.05 123.8
Q -123.4431640625 123.903125 -122.7 122.7 -121.058984375 120.5646484375 -119 117.45 -116.8833984375 114.3244140625 -113.65 109.65 -110.356640625 104.962890625 -110.3 105.85
M 114.85 117.6
Q 114.05 116.75 111.95 117 103.43046875 134.6369140625 93.4 141.05 91.2033203125 142.064453125 91.8 139.45
L 99.45 119.2
Q 100.2482421875 117.063671875 97.9 116.5 96.101171875 116.14921875 91.2 119.55 88.652734375 121.5 86.85 123.45 86.28671875 123.9896484375 85.9 124.5 85.5099609375 125.0076171875 86.1 125.4 86.7466796875 125.797265625 87.15 125.5 87.45 125.3 87.7 125.05 91.5265625 121.626171875 92.7 121.1 94.4 120.4 93.65 122.5
L 88.2 137.1
Q 86.1796875 141.828125 86.85 144.25 87.672265625 147.3908203125 92.4 144.55 96.310546875 142.20703125 100.2 137.7 106.480859375 130.6119140625 106.4 130.8
L 102.15 142.5
Q 101.6333984375 143.9736328125 101.8 144.5 102.2521484375 146.47421875 105 145.65 107.799609375 144.883203125 110.35 142.65 112.9498046875 140.455078125 114.75 138.05 115.55 137.15 115.3 136.8 114.8 135.95 114.25 136.45 113.2 137.45 112.35 138.25 109.147265625 141.248828125 108 141.5 106.584375 141.803125 107.15 139.95
L 115.25 118.25
Q 115.1 117.85 114.85 117.6
M 145.05 115.5
Q 144.2603515625 114.634765625 142.15 114.85
L 140.15 119.25
Q 137.9970703125 115.91875 132.25 118.75 124.219140625 122.76796875 118.7 133.4 113.31328125 143.8822265625 117.85 145.7 119.556640625 146.346875 123.45 144.2 128.866015625 141.12578125 133.7 135.35 134.2927734375 134.6244140625 134.1 135.45
L 131.9 141.45
Q 130.0421875 146.7955078125 134.8 145.7 137.4873046875 144.9765625 140.55 142.5 142.1390625 141.2169921875 144.15 138.95 145.017578125 138.1548828125 144.7 137.75 144.3251953125 136.90390625 143.75 137.35 135.338671875 144.473828125 136.05 140.75
L 145.4 116.15
Q 145.2859375 115.7716796875 145.05 115.5
M 136.6 120.55
Q 137.8189453125 121.1837890625 138.35 122.35 138.5876953125 123.554296875 136.65 127.6 133.31015625 135.0775390625 125.75 140.5 121.4958984375 143.816015625 121.35 140.8 121.2 138.15 123.75 132.4 126.65 125.7 130.5 122.4 134.05 119.35 136.6 120.55
M 9.4 114.85
L 7.4 119.25
Q 5.25 115.9 -0.5 118.75 -8.55 122.75 -14 133.4 -19.45 143.9 -14.85 145.7 -13.2 146.35 -9.3 144.2 -3.9 141.15 0.95 135.35 1.55 134.6 1.35 135.45
L -0.85 141.45
Q -2.7 146.8 2.05 145.7 4.75 145 7.8 142.5 9.0650390625 141.4720703125 10.55 139.85 10.9814453125 139.4208984375 11.4 138.95 12.25 138.15 12 137.75 11.6 136.9 11 137.35 10.2927734375 137.9478515625 9.65 138.45 2.6630859375 144.1384765625 3.35 140.75
L 12.65 116.15
Q 12.55 115.75 12.3 115.5 11.5 114.65 9.4 114.85
M 3.85 120.55
Q 5.05 121.2 5.65 122.35 5.85 123.55 3.9 127.6 0.55 135.1 -7 140.55 -11.25 143.8 -11.4 140.8 -11.55 138.15 -9 132.4 -6.1 125.7 -2.25 122.4 1.3 119.35 3.85 120.55
M 47.3 116.55
Q 45.28515625 116.7845703125 43.05 117.8 42.14375 118.25703125 40.85 119.05 35.5337890625 122.732421875 32 129.8 28.3240234375 138.3931640625 30.45 142.55 32.2509765625 145.7208984375 35.05 145.9 40.9228515625 146.04140625 45.7 140.25 45.930078125 139.981640625 46.15 139.7 46.45 139.3 46.15 138.7 45.6810546875 138.030078125 45.15 138.5 44.8990234375 138.7732421875 44.65 139 40.723046875 143.045703125 37.35 142.4 33.3875 141.2732421875 35.7 132.3 53.8419921875 127.397265625 52.45 119.95 51.3642578125 116.215234375 47.3 116.55
M 47.1 118.65
Q 47.9896484375 118.746484375 48.35 119.7 49.1373046875 121.7525390625 46.15 124.7 44.3 126.55 42 127.9 35.884375 131.171875 36.65 129.45 37.8580078125 126.988671875 39.9 124.1 43.7109375 118.8197265625 47.1 118.65
M 53.65 101
Q 52.487109375 100.240625 51.2 102.1
L 44.75 111.95
Q 44.4783203125 112.18203125 44.75 112.55
L 45.05 112.85
Q 45.4564453125 113.2486328125 45.8 113
L 54.95 104.8
Q 55.92421875 103.9693359375 55.4 102.85 54.86953125 101.769921875 53.65 101
M 78.25 116.9
Q 76.45 117.65 74.05 119.9 71.65 122.1 71.3 124.95 70.9 127.75 72.15 130.15 73.4 132.6 74.1 133.55 74.85 134.55 75.7 136.45 76.5 138.25 75.9 140.15 75.6 141.1 75.05 141.65 74.25 142.55 73.25 142.65 71 142.85 68.8 140.6 67 138.5 65.7 140.6 64.2 143.55 67.15 145.2 68.1 145.75 69.4 145.8 69.6 145.8 69.75 145.8 73.9 145.95 76.75 143.1 78.6 141.1 79.25 139.5 81.55 134.5 76.75 128 73.7 122.8 75.6 120.85 77.55 119 79.8 120.1 80.9 120.65 81.45 121.5 81.95 122.35 82.7 122.6 83.45 122.85 84.1 121.75 85 120.05 83.6 117.95 81.6 115.5 78.25 116.9 Z"/>
</g>

<g id="magazancasa_0_Layer0_0_FILL">
<path fill="#8B2523" stroke="none" d="
M -66.65 118.85
Q -65.010546875 119.337890625 -65.1 120.8 -65.340625 123.878515625 -63.05 123.75 -59.6703125 123.0025390625 -60.35 119.95 -61.45 116.2 -65.5 116.55 -67.5 116.8 -69.7 117.8 -70.65 118.25 -71.95 119.05 -77.25 122.75 -80.8 129.8 -84.5 138.4 -82.35 142.55 -80.55 145.7 -77.75 145.9 -71.9 146.05 -67.1 140.25 -66.85 140 -66.65 139.7 -66.35 139.3 -66.65 138.7 -67.1 138.05 -67.65 138.5 -67.9 138.75 -68.15 139.05 -72.1 143.05 -75.45 142.4 -79.4 141.25 -77.1 132.3 -76.5412109375 130.0099609375 -75.8 128.45 -71.358984375 118.396875 -66.65 118.85
M -36.35 114.85
L -38.35 119.25
Q -40.5 115.9 -46.25 118.75 -54.3 122.75 -59.75 133.4 -65.2 143.9 -60.6 145.7 -58.95 146.35 -55.05 144.2 -49.65 141.15 -44.8 135.35 -44.2 134.6 -44.4 135.45
L -46.6 141.45
Q -48.45 146.8 -43.7 145.7 -41 145 -37.95 142.5 -36.35 141.2 -34.35 138.95 -33.5 138.15 -33.75 137.75 -34.15 136.9 -34.75 137.35 -43.15 144.45 -42.4 140.75
L -33.1 116.15
Q -33.2 115.75 -33.45 115.5 -34.25 114.65 -36.35 114.85
M -48 122.4
Q -44.45 119.35 -41.9 120.55 -40.7 121.2 -40.1 122.35 -39.9 123.55 -41.85 127.6 -45.2 135.1 -52.75 140.55 -57 143.8 -57.15 140.8 -57.3 138.15 -54.75 132.4 -51.85 125.7 -48 122.4
M -18.4 121.5
Q -17.8384765625 122.34765625 -17.1 122.6 -16.3625 122.85 -15.7 121.75 -14.8037109375 120.026171875 -16.2 117.95 -18.2064453125 115.5068359375 -21.55 116.9 -23.3634765625 117.6369140625 -25.75 119.85 -28.1447265625 122.1138671875 -28.55 124.9 -28.8998046875 127.7306640625 -27.65 130.15 -26.4017578125 132.5755859375 -25.75 133.55 -24.933203125 134.5662109375 -24.1 136.45 -23.286328125 138.2267578125 -23.9 140.15 -24.18046875 141.1115234375 -24.75 141.6 -25.553515625 142.5443359375 -26.55 142.65 -28.8 142.85 -31 140.6 -32.811328125 138.509375 -34.1 140.6 -35.5978515625 143.5576171875 -32.65 145.15 -31.718359375 145.76484375 -30.4 145.75 -30.223828125 145.7951171875 -30.05 145.8 -25.8775390625 145.96875 -23.05 143.05 -21.180078125 141.1103515625 -20.55 139.5 -18.260546875 134.4873046875 -23.05 128 -26.0921875 122.8244140625 -24.2 120.85 -22.25 119 -20 120.1 -18.909765625 120.6564453125 -18.4 121.5
M -116.65 109.85
L -116.6 109.9 -137.65 139.45
Q -139.040234375 141.59765625 -141.05 142.55 -142.831640625 143.39453125 -145.1 143.3 -145.58515625 143.3658203125 -145.65 144.1 -145.661328125 144.7705078125 -145.45 145.05 -145.423046875 145.076953125 -145.4 145.1
L -130.95 145.1
Q -130.35 145.15 -130.25 144.3 -130.2 143.65 -130.6 143.4
L -133 143.1
Q -134.5494140625 142.8861328125 -135 142.5 -135.405859375 142.169140625 -134.8 141.05
L -126.4 128.2
Q -125.269140625 126.42890625 -123.85 126.45
L -112.6 126.45
Q -111.590234375 126.4453125 -111.6 127.3
L -112.35 140.45
Q -112.591796875 141.8732421875 -113.5 142.6 -114.0470703125 143.111328125 -115.35 143.2 -116.612109375 143.343359375 -117.65 143.3 -118.15 143.35 -118.15 144.1 -118.2 144.75 -118 145.05
L -117.95 145.1 -102.4 145.1
Q -101.8 145.15 -101.7 144.3 -101.65 143.65 -102.05 143.4
L -104.7 143.15
Q -107.315625 142.87421875 -107.2 140.55
L -105.1 99.25
Q -105.0009765625 98.3693359375 -105.5 98.2 -105.8314453125 98.001171875 -107.25 99.1 -108.93046875 100.07421875 -110.7 100.35 -112.394140625 104.5353515625 -116.65 109.85
M -110.3 105.85
L -111.4 122.8
Q -111.415625 123.76796875 -112.3 123.8
L -121.05 123.8
Q -123.4431640625 123.903125 -122.7 122.7 -121.058984375 120.5646484375 -119 117.45 -116.8833984375 114.3244140625 -113.65 109.65 -110.356640625 104.962890625 -110.3 105.85
M 114.85 117.6
Q 114.05 116.75 111.95 117 103.43046875 134.6369140625 93.4 141.05 91.2033203125 142.064453125 91.8 139.45
L 99.45 119.2
Q 100.2482421875 117.063671875 97.9 116.5 96.101171875 116.14921875 91.2 119.55 88.652734375 121.5 86.85 123.45 86.28671875 123.9896484375 85.9 124.5 85.5099609375 125.0076171875 86.1 125.4 86.7466796875 125.797265625 87.15 125.5 87.45 125.3 87.7 125.05 91.5265625 121.626171875 92.7 121.1 94.4 120.4 93.65 122.5
L 88.2 137.1
Q 86.1796875 141.828125 86.85 144.25 87.672265625 147.3908203125 92.4 144.55 96.310546875 142.20703125 100.2 137.7 106.480859375 130.6119140625 106.4 130.8
L 102.15 142.5
Q 101.6333984375 143.9736328125 101.8 144.5 102.2521484375 146.47421875 105 145.65 107.799609375 144.883203125 110.35 142.65 112.9498046875 140.455078125 114.75 138.05 115.55 137.15 115.3 136.8 114.8 135.95 114.25 136.45 113.2 137.45 112.35 138.25 109.147265625 141.248828125 108 141.5 106.584375 141.803125 107.15 139.95
L 115.25 118.25
Q 115.1 117.85 114.85 117.6
M 145.05 115.5
Q 144.2603515625 114.634765625 142.15 114.85
L 140.15 119.25
Q 137.9970703125 115.91875 132.25 118.75 124.219140625 122.76796875 118.7 133.4 113.31328125 143.8822265625 117.85 145.7 119.556640625 146.346875 123.45 144.2 128.866015625 141.12578125 133.7 135.35 134.2927734375 134.6244140625 134.1 135.45
L 131.9 141.45
Q 130.0421875 146.7955078125 134.8 145.7 137.4873046875 144.9765625 140.55 142.5 142.1390625 141.2169921875 144.15 138.95 145.017578125 138.1548828125 144.7 137.75 144.3251953125 136.90390625 143.75 137.35 135.338671875 144.473828125 136.05 140.75
L 145.4 116.15
Q 145.2859375 115.7716796875 145.05 115.5
M 136.6 120.55
Q 137.8189453125 121.1837890625 138.35 122.35 138.5876953125 123.554296875 136.65 127.6 133.31015625 135.0775390625 125.75 140.5 121.4958984375 143.816015625 121.35 140.8 121.2 138.15 123.75 132.4 126.65 125.7 130.5 122.4 134.05 119.35 136.6 120.55
M 9.4 114.85
L 7.4 119.25
Q 5.25 115.9 -0.5 118.75 -8.55 122.75 -14 133.4 -19.45 143.9 -14.85 145.7 -13.2 146.35 -9.3 144.2 -3.9 141.15 0.95 135.35 1.55 134.6 1.35 135.45
L -0.85 141.45
Q -2.7 146.8 2.05 145.7 4.75 145 7.8 142.5 9.0650390625 141.4720703125 10.55 139.85 10.9814453125 139.4208984375 11.4 138.95 12.25 138.15 12 137.75 11.6 136.9 11 137.35 10.2927734375 137.9478515625 9.65 138.45 2.6630859375 144.1384765625 3.35 140.75
L 12.65 116.15
Q 12.55 115.75 12.3 115.5 11.5 114.65 9.4 114.85
M 3.85 120.55
Q 5.05 121.2 5.65 122.35 5.85 123.55 3.9 127.6 0.55 135.1 -7 140.55 -11.25 143.8 -11.4 140.8 -11.55 138.15 -9 132.4 -6.1 125.7 -2.25 122.4 1.3 119.35 3.85 120.55
M 47.3 116.55
Q 45.28515625 116.7845703125 43.05 117.8 42.14375 118.25703125 40.85 119.05 35.5337890625 122.732421875 32 129.8 28.3240234375 138.3931640625 30.45 142.55 32.2509765625 145.7208984375 35.05 145.9 40.9228515625 146.04140625 45.7 140.25 45.930078125 139.981640625 46.15 139.7 46.45 139.3 46.15 138.7 45.6810546875 138.030078125 45.15 138.5 44.8990234375 138.7732421875 44.65 139 40.723046875 143.045703125 37.35 142.4 33.3875 141.2732421875 35.7 132.3 53.8419921875 127.397265625 52.45 119.95 51.3642578125 116.215234375 47.3 116.55
M 47.1 118.65
Q 47.9896484375 118.746484375 48.35 119.7 49.1373046875 121.7525390625 46.15 124.7 44.3 126.55 42 127.9 35.884375 131.171875 36.65 129.45 37.8580078125 126.988671875 39.9 124.1 43.7109375 118.8197265625 47.1 118.65
M 54.95 104.8
Q 55.92421875 103.9693359375 55.4 102.85 54.86953125 101.769921875 53.65 101 52.487109375 100.240625 51.2 102.1
L 44.75 111.95
Q 44.4783203125 112.18203125 44.75 112.55
L 45.05 112.85
Q 45.4564453125 113.2486328125 45.8 113
L 54.95 104.8
M 78.25 116.9
Q 76.45 117.65 74.05 119.9 71.65 122.1 71.3 124.95 70.9 127.75 72.15 130.15 73.4 132.6 74.1 133.55 74.85 134.55 75.7 136.45 76.5 138.25 75.9 140.15 75.6 141.1 75.05 141.65 74.25 142.55 73.25 142.65 71 142.85 68.8 140.6 67 138.5 65.7 140.6 64.2 143.55 67.15 145.2 68.1 145.75 69.4 145.8 69.6 145.8 69.75 145.8 73.9 145.95 76.75 143.1 78.6 141.1 79.25 139.5 81.55 134.5 76.75 128 73.7 122.8 75.6 120.85 77.55 119 79.8 120.1 80.9 120.65 81.45 121.5 81.95 122.35 82.7 122.6 83.45 122.85 84.1 121.75 85 120.05 83.6 117.95 81.6 115.5 78.25 116.9 Z"/>
</g>

<g id="magazancasa_0_Layer0_1_FILL">
<path fill="#CCCCCC" stroke="none" d="
M -219.1 -85.3
L -219.1 86.7 219.25 86.75 219.25 -85.3 -219.1 -85.3
M -214.9 82.55
L -214.9 -81.1 215.05 -81.1 215.05 82.55 -214.9 82.55 Z"/>

<path fill="#FFFFFF" stroke="none" d="
M -214.9 -81.1
L -214.9 82.55 215.05 82.55 215.05 -81.1 -214.9 -81.1 Z"/>
</g>

<g id="Magazancasa_barra_vertical_0_Layer0_0_FILL">
<path fill="url(#Gradient_2)" stroke="none" d="
M 206.2 -2.15
L -206.1 -2.15 -206.1 69.65 206.2 69.65 206.2 -2.15 Z"/>
</g>

<g id="magazancasa_letra___escura_0_Layer0_0_FILL">
<path fill="url(#Gradient_3)" stroke="none" d="
M 479.1 402
L 477.55 402
Q 477.3 402.7 477.05 403.25 476.4 404.65 475.7 405.3 474.65 406.15 473.5 406.15 472.7 406.15 468.55 404.55 466.4 403.75 464.9 403.25 463.4 402.75 462.45 402.6 459.05 401.95 454.75 401.95 449.45 401.95 444.9 403.25 437.4 405.35 431.75 410.9 422.65 419.85 422.65 432.85 422.65 440.15 425.6 446 427.95 450.55 432.1 454.2 436.2 457.8 441.65 460.05 447.05 462.25 455.25 462.25 461.65 462.25 467.65 461.05 473.6 459.75 479.1 457.3
L 479.1 445.3
Q 479.1 442.15 479.5 441.35 480.2 439.85 481.45 439.2 482.7 438.5 485.9 438.3
L 485.9 436.75 457.9 436.75 457.9 438.3 459.35 438.3
Q 461.45 438.3 462.95 439.1 464.4 439.9 464.85 440.95 465.3 441.9 465.3 445.3
L 465.3 457.3
Q 463 458.15 460.85 458.6 458.65 459.05 456.55 459.05 450.6 459.05 446.25 456.1 441.85 453.15 439.9 446.9 437.95 440.7 437.95 432.4 437.95 425.55 439.75 419.05 441.55 412.55 445.8 408.95 450.1 405.3 456.55 405.3 463.3 405.3 469 409.65 474.7 413.95 477.55 422.3
L 479.1 422.3 479.1 402
M 492.1 444.5
L 512.45 444.5 515.5 451.7
Q 516.7 454.5 516.8 454.85 517.05 455.65 517.05 456.45 517.05 457.7 516.1 458.4 514.75 459.35 511.4 459.35
L 510.25 459.35 510.25 460.9 538.1 460.9 538.1 459.35
Q 535.45 459.1 534 457.8 532.1 456.05 529.15 449.35
L 508.35 402.1 507.55 402.1 486.95 448.05
Q 484 454.65 482.05 456.8 480.05 458.85 476.95 459.35
L 476.95 460.9 496.1 460.9 496.1 459.35
Q 491.6 459 490.45 458.3 488.5 457.15 488.5 454.75 488.5 452.9 489.65 450.1
L 492.1 444.5
M 502.4 421.5
L 511 441.35 493.6 441.35 502.4 421.5
M 304.2 407.65
Q 304.65 408.7 304.65 413.05
L 304.65 449.5
Q 304.65 453.4 304.6 453.85 304.1 455.85 303.25 456.95 302.4 458.05 300.75 458.75 299.1 459.35 297.2 459.35
L 296.6 459.35 296.6 460.9 316.3 460.9 316.3 459.35
Q 312.35 459.35 310.55 458 308.65 456.65 308.1 454.55 307.9 453.55 307.9 449.3
L 307.9 408.75 330.3 460.9 331.35 460.9 353.45 408.35 353.45 451.05
Q 353.45 455.4 352.95 456.4 352.35 457.85 351.25 458.45 349.75 459.35 347.2 459.35
L 345.3 459.35 345.3 460.9 391.1 460.9 391.1 459.35
Q 386.6 459 385.45 458.3 383.5 457.15 383.5 454.75 383.5 452.9 384.65 450.1
L 387.1 444.5 407.45 444.5 410.5 451.7
Q 411.7 454.5 411.8 454.85 412.05 455.65 412.05 456.45 412.05 457.7 411.1 458.4 409.75 459.35 406.4 459.35
L 405.25 459.35 405.25 460.9 433.1 460.9 433.1 459.35
Q 430.45 459.1 429 457.8 427.1 456.05 424.15 449.35
L 403.35 402.1 402.55 402.1 381.95 448.05
Q 379 454.65 377.05 456.8 375.15 458.75 372.3 459.3 370.7 459.1 369.65 458.5 368.2 457.65 367.75 456.55 367.3 455.45 367.3 451.05
L 367.3 413.05
Q 367.3 408.8 367.75 407.75 368.4 406.35 369.45 405.75 371 404.85 373.5 404.85
L 375.4 404.85 375.4 403.3 351.95 403.3 336.3 441.25 320.15 403.3 296.6 403.3 296.6 404.85 298.4 404.85
Q 300.85 404.85 302.3 405.7 303.75 406.55 304.2 407.65
M 388.6 441.35
L 397.4 421.5 406 441.35 388.6 441.35
M 696.3 407.25
Q 697.8 409.05 697.8 414.25
L 697.8 439 669.35 403.3 648.95 403.3 648.95 404.85
Q 651.55 404.95 652.95 405.7 654.35 406.4 656.2 408.7
L 657.45 410.2 657.45 450.85
Q 657.45 455.45 655.55 457.35 653.8 459.15 649.55 459.35 647 459.05 645.6 457.8 643.7 456.05 640.75 449.35
L 619.95 402.1 619.15 402.1 598.55 448.05
Q 595.6 454.65 593.65 456.8 591.65 458.85 588.55 459.35
L 588.55 460.9 607.7 460.9 607.7 459.35
Q 603.2 459 602.05 458.3 600.1 457.15 600.1 454.75 600.1 452.9 601.25 450.1
L 603.7 444.5 624.05 444.5 627.1 451.7
Q 628.3 454.5 628.4 454.85 628.65 455.65 628.65 456.45 628.65 457.7 627.7 458.4 626.35 459.35 623 459.35
L 621.85 459.35 621.85 460.9 669.35 460.9 669.35 459.35 668 459.35
Q 665.05 459.35 662.8 457.6 660.55 455.85 660.55 450.85
L 660.55 414.25 699.5 462.2 700.95 462.2 700.95 414.25
Q 700.95 410.2 701.65 408.5 702.35 406.8 703.6 406.1 704.85 405.35 708.5 404.85
L 708.5 403.3 689.45 403.3 689.45 404.85
Q 694.25 404.8 696.3 407.25
M 614 421.5
L 622.6 441.35 605.2 441.35 614 421.5 Z"/>
</g>

<g id="magazancasa_0_Layer0_2_MEMBER_2_FILL">
<path fill="#FFFFFF" stroke="none" d="
M -51.1 23.55
L -51.1 3.6 -52.75 3.6
Q -53.05 5.75 -54 6.75 -55.05 7.75 -56.4 7.75 -57.45 7.75 -61.35 6.2 -68.1 3.6 -74.2 3.6 -82.45 3.6 -89.75 7.65 -97.1 11.75 -101.4 19.15 -105.6 26.3 -105.7 34.35 -105.7 34.55 -105.7 34.75 -105.7 42.6 -101.8 49.5 -97.95 56.45 -90.75 60.1 -83.6 63.8 -74.4 63.8 -67.4 63.8 -62.1 61.55 -56.9 59.25 -52.05 54.2
L -52.05 49.25
Q -57.05 55.05 -61.55 57.45 -66.1 59.8 -71.55 59.8 -78.2 59.8 -82.35 56.6 -86.5 53.3 -88.45 47 -90.2 41.2 -90.35 34.35 -90.4 33.65 -90.4 32.9 -90.4 25.05 -87.75 18.6 -85.65 13.6 -81.15 10.5 -76.65 7.4 -71.25 7.4 -64.8 7.4 -59.7 11.55 -54.6 15.75 -52.75 23.55
L -51.1 23.55
M 44.05 46.25
Q 44.05 40.55 40.55 36.1 39.85 35.25 38.95 34.35 35.05 30.75 26.95 26.75 19.7 23.15 17.7 21.75 15 19.8 13.75 17.8 12.85 16.3 12.85 14.4 12.85 11.4 15.4 9.1 17.95 6.75 22.25 6.75 27.85 6.75 32.7 11.2 37.5 15.55 38.75 22.8
L 40.5 22.8 40 3.6 38.75 3.6
Q 38.2 6.15 37.55 6.85 36.9 7.55 35.8 7.55 34.65 7.55 31.8 6.15 28.95 4.75 26.95 4.25 24.3 3.6 21.5 3.6 13.8 3.6 8.75 8.4 3.7 13.25 3.7 20.15 3.7 24.2 5.55 27.55 7.4 30.9 10.85 33.6 11.3 33.95 11.85 34.35 15.3 36.85 22.15 40.2 27.75 42.95 29.95 44.7 32.15 46.4 33.25 48.3 34.3 50.2 34.3 52.25 34.3 55.7 31.5 58.3 28.65 60.9 23.9 60.9 17.75 60.9 12.45 56.1 7.1 51.25 5.2 42.05
L 3.65 42.05 3.65 60.2
Q 2.95 59.85 2.45 59.4 0.55 57.65 -2.4 50.95
L -23.2 3.7 -24 3.7 -44.6 49.65
Q -47.55 56.25 -49.5 58.4 -51.5 60.45 -54.6 60.95
L -54.6 62.5 -35.45 62.5 -35.45 60.95
Q -39.95 60.6 -41.1 59.9 -43.05 58.75 -43.05 56.35 -43.05 54.5 -41.9 51.7
L -39.45 46.1 -19.1 46.1 -16.05 53.3
Q -14.85 56.1 -14.75 56.45 -14.5 57.25 -14.5 58.05 -14.5 59.3 -15.45 60 -16.8 60.95 -20.15 60.95
L -21.3 60.95 -21.3 62.5 3.65 62.5 3.65 63.8 5.2 63.8
Q 5.55 63.05 5.95 62.5
L 5.85 62.6 6.55 61.8
Q 6.85 61.5 7.2 61.25 8.45 60.4 9.55 60.4 10.85 60.4 12.9 61.25 16.55 62.75 19 63.3 21.4 63.85 24.15 63.85 32.8 63.85 38.45 58.7 44.05 53.45 44.05 46.25
M -29.15 23.1
L -20.55 42.95 -37.95 42.95 -29.15 23.1
M 101.4 59.4
Q 99.5 57.65 96.55 50.95
L 75.75 3.7 74.95 3.7 54.35 49.65
Q 51.4 56.25 49.45 58.4 47.45 60.45 44.35 60.95
L 44.35 62.5 63.5 62.5 63.5 60.95
Q 59 60.6 57.85 59.9 55.9 58.75 55.9 56.35 55.9 54.5 57.05 51.7
L 59.5 46.1 79.85 46.1 82.9 53.3
Q 84.1 56.1 84.2 56.45 84.45 57.25 84.45 58.05 84.45 59.3 83.5 60 82.15 60.95 78.8 60.95
L 77.65 60.95 77.65 62.5 105.5 62.5 105.5 60.95
Q 102.85 60.7 101.4 59.4
M 69.8 23.1
L 78.4 42.95 61 42.95 69.8 23.1 Z"/>
</g>

<g id="magazancasa_0_Layer0_2_MEMBER_3_FILL">
<path fill="#EC0100" stroke="none" d="
M 588.95 444.05
L 570.6 444.05 591.2 403.9 537.75 403.9 537.75 421.15 556.2 421.15 535.95 460.8 588.95 460.8 588.95 444.05 Z"/>
</g>

<g id="magazancasa_2_0_Layer0_0_FILL">
<path fill="#CCCCCC" stroke="none" d="
M 481.85 -84.45
L -218.65 -84.45 -218.65 8.3 481.85 8.3 481.85 -84.45
M -214.45 4.1
L -214.45 -80.25 477.65 -80.25 477.65 4.1 -214.45 4.1 Z"/>

<path fill="#FFFFFF" stroke="none" d="
M -214.45 -80.25
L -214.45 4.1 477.65 4.1 477.65 -80.25 -214.45 -80.25 Z"/>
</g>

<g id="magazancasa_letra___escura_horizontal_0_Layer0_0_FILL">
<path fill="url(#Gradient_4)" stroke="none" d="
M 479.1 402
L 477.55 402
Q 477.3 402.7 477.05 403.25 476.4 404.65 475.7 405.3 474.65 406.15 473.5 406.15 472.7 406.15 468.55 404.55 466.4 403.75 464.9 403.25 463.4 402.75 462.45 402.6 459.05 401.95 454.75 401.95 449.45 401.95 444.9 403.25 437.4 405.35 431.75 410.9 422.65 419.85 422.65 432.85 422.65 440.15 425.6 446 427.95 450.55 432.1 454.2 436.2 457.8 441.65 460.05 447.05 462.25 455.25 462.25 461.65 462.25 467.65 461.05 473.6 459.75 479.1 457.3
L 479.1 445.3
Q 479.1 442.15 479.5 441.35 480.2 439.85 481.45 439.2 482.7 438.5 485.9 438.3
L 485.9 436.75 457.9 436.75 457.9 438.3 459.35 438.3
Q 461.45 438.3 462.95 439.1 464.4 439.9 464.85 440.95 465.3 441.9 465.3 445.3
L 465.3 457.3
Q 463 458.15 460.85 458.6 458.65 459.05 456.55 459.05 450.6 459.05 446.25 456.1 441.85 453.15 439.9 446.9 437.95 440.7 437.95 432.4 437.95 425.55 439.75 419.05 441.55 412.55 445.8 408.95 450.1 405.3 456.55 405.3 463.3 405.3 469 409.65 474.7 413.95 477.55 422.3
L 479.1 422.3 479.1 402
M 492.1 444.5
L 512.45 444.5 515.5 451.7
Q 516.7 454.5 516.8 454.85 517.05 455.65 517.05 456.45 517.05 457.7 516.1 458.4 514.75 459.35 511.4 459.35
L 510.25 459.35 510.25 460.9 538.1 460.9 538.1 459.35
Q 535.45 459.1 534 457.8 532.1 456.05 529.15 449.35
L 508.35 402.1 507.55 402.1 486.95 448.05
Q 484 454.65 482.05 456.8 480.05 458.85 476.95 459.35
L 476.95 460.9 496.1 460.9 496.1 459.35
Q 491.6 459 490.45 458.3 488.5 457.15 488.5 454.75 488.5 452.9 489.65 450.1
L 492.1 444.5
M 502.4 421.5
L 511 441.35 493.6 441.35 502.4 421.5
M 304.2 407.65
Q 304.65 408.7 304.65 413.05
L 304.65 449.5
Q 304.65 453.4 304.6 453.85 304.1 455.85 303.25 456.95 302.4 458.05 300.75 458.75 299.1 459.35 297.2 459.35
L 296.6 459.35 296.6 460.9 316.3 460.9 316.3 459.35
Q 312.35 459.35 310.55 458 308.65 456.65 308.1 454.55 307.9 453.55 307.9 449.3
L 307.9 408.75 330.3 460.9 331.35 460.9 353.45 408.35 353.45 451.05
Q 353.45 455.4 352.95 456.4 352.35 457.85 351.25 458.45 349.75 459.35 347.2 459.35
L 345.3 459.35 345.3 460.9 391.1 460.9 391.1 459.35
Q 386.6 459 385.45 458.3 383.5 457.15 383.5 454.75 383.5 452.9 384.65 450.1
L 387.1 444.5 407.45 444.5 410.5 451.7
Q 411.7 454.5 411.8 454.85 412.05 455.65 412.05 456.45 412.05 457.7 411.1 458.4 409.75 459.35 406.4 459.35
L 405.25 459.35 405.25 460.9 433.1 460.9 433.1 459.35
Q 430.45 459.1 429 457.8 427.1 456.05 424.15 449.35
L 403.35 402.1 402.55 402.1 381.95 448.05
Q 379 454.65 377.05 456.8 375.15 458.75 372.3 459.3 370.7 459.1 369.65 458.5 368.2 457.65 367.75 456.55 367.3 455.45 367.3 451.05
L 367.3 413.05
Q 367.3 408.8 367.75 407.75 368.4 406.35 369.45 405.75 371 404.85 373.5 404.85
L 375.4 404.85 375.4 403.3 351.95 403.3 336.3 441.25 320.15 403.3 296.6 403.3 296.6 404.85 298.4 404.85
Q 300.85 404.85 302.3 405.7 303.75 406.55 304.2 407.65
M 388.6 441.35
L 397.4 421.5 406 441.35 388.6 441.35
M 708.5 404.85
L 708.5 403.3 689.45 403.3 689.45 404.85
Q 694.25 404.8 696.3 407.25 697.8 409.05 697.8 414.25
L 697.8 439 669.35 403.3 648.95 403.3 648.95 404.85
Q 651.55 404.95 652.95 405.7 654.35 406.4 656.2 408.7
L 657.45 410.2 657.45 450.85
Q 657.45 455.45 655.55 457.35 653.8 459.15 649.55 459.35 647 459.05 645.6 457.8 643.7 456.05 640.75 449.35
L 619.95 402.1 619.15 402.1 598.55 448.05
Q 595.6 454.65 593.65 456.8 591.65 458.85 588.55 459.35
L 588.55 460.9 607.7 460.9 607.7 459.35
Q 603.2 459 602.05 458.3 600.1 457.15 600.1 454.75 600.1 452.9 601.25 450.1
L 603.7 444.5 624.05 444.5 627.1 451.7
Q 628.3 454.5 628.4 454.85 628.65 455.65 628.65 456.45 628.65 457.7 627.7 458.4 626.35 459.35 623 459.35
L 621.85 459.35 621.85 460.9 669.35 460.9 669.35 459.35 668 459.35
Q 665.05 459.35 662.8 457.6 660.55 455.85 660.55 450.85
L 660.55 414.25 699.5 462.2 700.95 462.2 700.95 414.25
Q 700.95 410.2 701.65 408.5 702.35 406.8 703.6 406.1 704.85 405.35 708.5 404.85
M 614 421.5
L 622.6 441.35 605.2 441.35 614 421.5 Z"/>
</g>

<g id="magazancasa_2_0_Layer0_2_MEMBER_1_FILL">
<path fill="#EC0100" stroke="none" d="
M 588.95 444.05
L 570.6 444.05 591.2 403.9 537.75 403.9 537.75 421.15 556.2 421.15 535.95 460.8 588.95 460.8 588.95 444.05 Z"/>
</g>

<g id="magazancasa_2_0_Layer0_3_FILL">
<path fill="#FFFFFF" stroke="none" d="
M 397.15 -10.85
L 397.15 -9.3 416.3 -9.3 416.3 -10.85
Q 411.8 -11.2 410.65 -11.9 408.7 -13.05 408.7 -15.45 408.7 -17.3 409.85 -20.1
L 412.3 -25.7 432.65 -25.7 435.7 -18.5
Q 436.9 -15.7 437 -15.35 437.25 -14.55 437.25 -13.75 437.25 -12.5 436.3 -11.8 434.95 -10.85 431.6 -10.85
L 430.45 -10.85 430.45 -9.3 458.3 -9.3 458.3 -10.85
Q 455.65 -11.1 454.2 -12.4 452.3 -14.15 449.35 -20.85
L 428.55 -68.1 427.75 -68.1 407.15 -22.15
Q 404.2 -15.55 402.25 -13.4 400.25 -11.35 397.15 -10.85
M 413.8 -28.85
L 422.6 -48.7 431.2 -28.85 413.8 -28.85
M 303.3 -13.4
Q 301.3 -11.35 298.2 -10.85
L 298.2 -9.3 317.35 -9.3 317.35 -10.85
Q 312.85 -11.2 311.7 -11.9 309.75 -13.05 309.75 -15.45 309.75 -17.3 310.9 -20.1
L 313.35 -25.7 333.7 -25.7 336.75 -18.5
Q 337.95 -15.7 338.05 -15.35 338.3 -14.55 338.3 -13.75 338.3 -12.5 337.35 -11.8 336 -10.85 332.65 -10.85
L 331.5 -10.85 331.5 -9.3 356.45 -9.3 356.45 -8 358 -8
Q 358.35 -8.75 358.75 -9.3
L 358.8 -9.35 359.35 -10
Q 359.65 -10.3 360 -10.55 361.25 -11.4 362.35 -11.4 363.65 -11.4 365.7 -10.55 369.35 -9.05 371.8 -8.5 374.2 -7.95 376.95 -7.95 385.6 -7.95 391.25 -13.1 396.85 -18.35 396.85 -25.55 396.85 -31.25 393.35 -35.7 392.65 -36.55 391.75 -37.45 387.85 -41.05 379.75 -45.05 372.5 -48.65 370.5 -50.05 367.8 -52 366.55 -54 365.65 -55.5 365.65 -57.4 365.65 -60.4 368.2 -62.7 370.75 -65.05 375.05 -65.05 380.65 -65.05 385.5 -60.6 390.3 -56.25 391.55 -49
L 393.3 -49 392.8 -68.2 391.55 -68.2
Q 391 -65.65 390.35 -64.95 389.7 -64.25 388.6 -64.25 387.45 -64.25 384.6 -65.65 381.75 -67.05 379.75 -67.55 377.1 -68.2 374.3 -68.2 366.6 -68.2 361.55 -63.4 356.5 -58.55 356.5 -51.65 356.5 -47.6 358.35 -44.25 360.2 -40.9 363.65 -38.2 364.1 -37.85 364.65 -37.45 368.1 -34.95 374.95 -31.6 380.55 -28.85 382.75 -27.1 384.95 -25.4 386.05 -23.5 387.1 -21.6 387.1 -19.55 387.1 -16.1 384.3 -13.5 381.45 -10.9 376.7 -10.9 370.55 -10.9 365.25 -15.7 359.9 -20.55 358 -29.75
L 356.45 -29.75 356.45 -11.6
Q 355.75 -11.95 355.25 -12.4 353.35 -14.15 350.4 -20.85
L 329.6 -68.1 328.8 -68.1 308.2 -22.15
Q 305.25 -15.55 303.3 -13.4
M 314.85 -28.85
L 323.65 -48.7 332.25 -28.85 314.85 -28.85
M 296.4 -64.05
Q 295.35 -64.05 291.45 -65.6 284.7 -68.2 278.6 -68.2 270.35 -68.2 263.05 -64.15 255.7 -60.05 251.4 -52.65 247.2 -45.5 247.1 -37.45 247.1 -37.25 247.1 -37.05 247.1 -29.2 251 -22.3 254.85 -15.35 262.05 -11.7 269.2 -8 278.4 -8 285.4 -8 290.7 -10.25 295.9 -12.55 300.75 -17.6
L 300.75 -22.55
Q 295.75 -16.75 291.25 -14.35 286.7 -12 281.25 -12 274.6 -12 270.45 -15.2 266.3 -18.5 264.35 -24.8 262.6 -30.6 262.45 -37.45 262.4 -38.15 262.4 -38.9 262.4 -46.75 265.05 -53.2 267.15 -58.2 271.65 -61.3 276.15 -64.4 281.55 -64.4 288 -64.4 293.1 -60.25 298.2 -56.05 300.05 -48.25
L 301.7 -48.25 301.7 -68.2 300.05 -68.2
Q 299.75 -66.05 298.8 -65.05 297.75 -64.05 296.4 -64.05 Z"/>
</g>

<g id="magazancasa_2_0_Layer0_4_FILL">
<path fill="#8B2523" stroke="none" d="
M -66.65 118.85
Q -65.010546875 119.337890625 -65.1 120.8 -65.340625 123.878515625 -63.05 123.75 -59.6703125 123.0025390625 -60.35 119.95 -61.45 116.2 -65.5 116.55 -67.5 116.8 -69.7 117.8 -70.65 118.25 -71.95 119.05 -77.25 122.75 -80.8 129.8 -84.5 138.4 -82.35 142.55 -80.55 145.7 -77.75 145.9 -71.9 146.05 -67.1 140.25 -66.85 140 -66.65 139.7 -66.35 139.3 -66.65 138.7 -67.1 138.05 -67.65 138.5 -67.9 138.75 -68.15 139.05 -72.1 143.05 -75.45 142.4 -79.4 141.25 -77.1 132.3 -76.5412109375 130.0099609375 -75.8 128.45 -71.358984375 118.396875 -66.65 118.85
M -36.35 114.85
L -38.35 119.25
Q -40.5 115.9 -46.25 118.75 -54.3 122.75 -59.75 133.4 -65.2 143.9 -60.6 145.7 -58.95 146.35 -55.05 144.2 -49.65 141.15 -44.8 135.35 -44.2 134.6 -44.4 135.45
L -46.6 141.45
Q -48.45 146.8 -43.7 145.7 -41 145 -37.95 142.5 -36.35 141.2 -34.35 138.95 -33.5 138.15 -33.75 137.75 -34.15 136.9 -34.75 137.35 -43.15 144.45 -42.4 140.75
L -33.1 116.15
Q -33.2 115.75 -33.45 115.5 -34.25 114.65 -36.35 114.85
M -48 122.4
Q -44.45 119.35 -41.9 120.55 -40.7 121.2 -40.1 122.35 -39.9 123.55 -41.85 127.6 -45.2 135.1 -52.75 140.55 -57 143.8 -57.15 140.8 -57.3 138.15 -54.75 132.4 -51.85 125.7 -48 122.4
M -18.4 121.5
Q -17.8384765625 122.34765625 -17.1 122.6 -16.3625 122.85 -15.7 121.75 -14.8037109375 120.026171875 -16.2 117.95 -18.2064453125 115.5068359375 -21.55 116.9 -23.3634765625 117.6369140625 -25.75 119.85 -28.1447265625 122.1138671875 -28.55 124.9 -28.8998046875 127.7306640625 -27.65 130.15 -26.4017578125 132.5755859375 -25.75 133.55 -24.933203125 134.5662109375 -24.1 136.45 -23.286328125 138.2267578125 -23.9 140.15 -24.18046875 141.1115234375 -24.75 141.6 -25.553515625 142.5443359375 -26.55 142.65 -28.8 142.85 -31 140.6 -32.811328125 138.509375 -34.1 140.6 -35.5978515625 143.5576171875 -32.65 145.15 -31.718359375 145.76484375 -30.4 145.75 -30.223828125 145.7951171875 -30.05 145.8 -25.8775390625 145.96875 -23.05 143.05 -21.180078125 141.1103515625 -20.55 139.5 -18.260546875 134.4873046875 -23.05 128 -26.0921875 122.8244140625 -24.2 120.85 -22.25 119 -20 120.1 -18.909765625 120.6564453125 -18.4 121.5
M -116.65 109.85
L -116.6 109.9 -137.65 139.45
Q -139.040234375 141.59765625 -141.05 142.55 -142.831640625 143.39453125 -145.1 143.3 -145.58515625 143.3658203125 -145.65 144.1 -145.661328125 144.7705078125 -145.45 145.05 -145.423046875 145.076953125 -145.4 145.1
L -130.95 145.1
Q -130.35 145.15 -130.25 144.3 -130.2 143.65 -130.6 143.4
L -133 143.1
Q -134.5494140625 142.8861328125 -135 142.5 -135.405859375 142.169140625 -134.8 141.05
L -126.4 128.2
Q -125.269140625 126.42890625 -123.85 126.45
L -112.6 126.45
Q -111.590234375 126.4453125 -111.6 127.3
L -112.35 140.45
Q -112.591796875 141.8732421875 -113.5 142.6 -114.0470703125 143.111328125 -115.35 143.2 -116.612109375 143.343359375 -117.65 143.3 -118.15 143.35 -118.15 144.1 -118.2 144.75 -118 145.05
L -117.95 145.1 -102.4 145.1
Q -101.8 145.15 -101.7 144.3 -101.65 143.65 -102.05 143.4
L -104.7 143.15
Q -107.315625 142.87421875 -107.2 140.55
L -105.1 99.25
Q -105.0009765625 98.3693359375 -105.5 98.2 -105.8314453125 98.001171875 -107.25 99.1 -108.93046875 100.07421875 -110.7 100.35 -112.394140625 104.5353515625 -116.65 109.85
M -119 117.45
Q -116.8833984375 114.3244140625 -113.65 109.65 -110.356640625 104.962890625 -110.3 105.85
L -111.4 122.8
Q -111.415625 123.76796875 -112.3 123.8
L -121.05 123.8
Q -123.4431640625 123.903125 -122.7 122.7 -121.058984375 120.5646484375 -119 117.45
M 114.85 117.6
Q 114.05 116.75 111.95 117 103.43046875 134.6369140625 93.4 141.05 91.2033203125 142.064453125 91.8 139.45
L 99.45 119.2
Q 100.2482421875 117.063671875 97.9 116.5 96.101171875 116.14921875 91.2 119.55 88.652734375 121.5 86.85 123.45 86.28671875 123.9896484375 85.9 124.5 85.5099609375 125.0076171875 86.1 125.4 86.7466796875 125.797265625 87.15 125.5 87.45 125.3 87.7 125.05 91.5265625 121.626171875 92.7 121.1 94.4 120.4 93.65 122.5
L 88.2 137.1
Q 86.1796875 141.828125 86.85 144.25 87.672265625 147.3908203125 92.4 144.55 96.310546875 142.20703125 100.2 137.7 106.480859375 130.6119140625 106.4 130.8
L 102.15 142.5
Q 101.6333984375 143.9736328125 101.8 144.5 102.2521484375 146.47421875 105 145.65 107.799609375 144.883203125 110.35 142.65 112.9498046875 140.455078125 114.75 138.05 115.55 137.15 115.3 136.8 114.8 135.95 114.25 136.45 113.2 137.45 112.35 138.25 109.147265625 141.248828125 108 141.5 106.584375 141.803125 107.15 139.95
L 115.25 118.25
Q 115.1 117.85 114.85 117.6
M 145.05 115.5
Q 144.2603515625 114.634765625 142.15 114.85
L 140.15 119.25
Q 137.9970703125 115.91875 132.25 118.75 124.219140625 122.76796875 118.7 133.4 113.31328125 143.8822265625 117.85 145.7 119.556640625 146.346875 123.45 144.2 128.866015625 141.12578125 133.7 135.35 134.2927734375 134.6244140625 134.1 135.45
L 131.9 141.45
Q 130.0421875 146.7955078125 134.8 145.7 137.4873046875 144.9765625 140.55 142.5 142.1390625 141.2169921875 144.15 138.95 145.017578125 138.1548828125 144.7 137.75 144.3251953125 136.90390625 143.75 137.35 135.338671875 144.473828125 136.05 140.75
L 145.4 116.15
Q 145.2859375 115.7716796875 145.05 115.5
M 136.6 120.55
Q 137.8189453125 121.1837890625 138.35 122.35 138.5876953125 123.554296875 136.65 127.6 133.31015625 135.0775390625 125.75 140.5 121.4958984375 143.816015625 121.35 140.8 121.2 138.15 123.75 132.4 126.65 125.7 130.5 122.4 134.05 119.35 136.6 120.55
M 9.4 114.85
L 7.4 119.25
Q 5.25 115.9 -0.5 118.75 -8.55 122.75 -14 133.4 -19.45 143.9 -14.85 145.7 -13.2 146.35 -9.3 144.2 -3.9 141.15 0.95 135.35 1.55 134.6 1.35 135.45
L -0.85 141.45
Q -2.7 146.8 2.05 145.7 4.75 145 7.8 142.5 9.0650390625 141.4720703125 10.55 139.85 10.9814453125 139.4208984375 11.4 138.95 12.25 138.15 12 137.75 11.6 136.9 11 137.35 10.2927734375 137.9478515625 9.65 138.45 2.6630859375 144.1384765625 3.35 140.75
L 12.65 116.15
Q 12.55 115.75 12.3 115.5 11.5 114.65 9.4 114.85
M 3.85 120.55
Q 5.05 121.2 5.65 122.35 5.85 123.55 3.9 127.6 0.55 135.1 -7 140.55 -11.25 143.8 -11.4 140.8 -11.55 138.15 -9 132.4 -6.1 125.7 -2.25 122.4 1.3 119.35 3.85 120.55
M 47.3 116.55
Q 45.28515625 116.7845703125 43.05 117.8 42.14375 118.25703125 40.85 119.05 35.5337890625 122.732421875 32 129.8 28.3240234375 138.3931640625 30.45 142.55 32.2509765625 145.7208984375 35.05 145.9 40.9228515625 146.04140625 45.7 140.25 45.930078125 139.981640625 46.15 139.7 46.45 139.3 46.15 138.7 45.6810546875 138.030078125 45.15 138.5 44.8990234375 138.7732421875 44.65 139 40.723046875 143.045703125 37.35 142.4 33.3875 141.2732421875 35.7 132.3 53.8419921875 127.397265625 52.45 119.95 51.3642578125 116.215234375 47.3 116.55
M 47.1 118.65
Q 47.9896484375 118.746484375 48.35 119.7 49.1373046875 121.7525390625 46.15 124.7 44.3 126.55 42 127.9 35.884375 131.171875 36.65 129.45 37.8580078125 126.988671875 39.9 124.1 43.7109375 118.8197265625 47.1 118.65
M 53.65 101
Q 52.487109375 100.240625 51.2 102.1
L 44.75 111.95
Q 44.4783203125 112.18203125 44.75 112.55
L 45.05 112.85
Q 45.4564453125 113.2486328125 45.8 113
L 54.95 104.8
Q 55.92421875 103.9693359375 55.4 102.85 54.86953125 101.769921875 53.65 101
M 78.25 116.9
Q 76.45 117.65 74.05 119.9 71.65 122.1 71.3 124.95 70.9 127.75 72.15 130.15 73.4 132.6 74.1 133.55 74.85 134.55 75.7 136.45 76.5 138.25 75.9 140.15 75.6 141.1 75.05 141.65 74.25 142.55 73.25 142.65 71 142.85 68.8 140.6 67 138.5 65.7 140.6 64.2 143.55 67.15 145.2 68.1 145.75 69.4 145.8 69.6 145.8 69.75 145.8 73.9 145.95 76.75 143.1 78.6 141.1 79.25 139.5 81.55 134.5 76.75 128 73.7 122.8 75.6 120.85 77.55 119 79.8 120.1 80.9 120.65 81.45 121.5 81.95 122.35 82.7 122.6 83.45 122.85 84.1 121.75 85 120.05 83.6 117.95 81.6 115.5 78.25 116.9 Z"/>
</g>

<path id="Layer2_0_1_STROKES" stroke="#000000" stroke-width="1" stroke-linejoin="round" stroke-linecap="round" fill="none" d="
M 1314.8 1179.6
Q 1313.45 1177.5 1310.7 1176.1 1305.05 1173.35 1300.2 1178 1295.45 1182.85 1303.05 1195.85 1315.05 1212.1 1309.3 1224.6 1307.7 1228.6 1303.05 1233.6 1295.95 1240.7 1285.55 1240.35 1285.2 1240.35 1284.7 1240.35 1281.45 1240.2 1279.1 1238.85 1271.7 1234.7 1275.45 1227.35 1278.7 1222.1 1283.2 1227.35 1288.7 1232.95 1294.3 1232.45 1296.8 1232.2 1298.8 1229.95 1300.2 1228.6 1300.95 1226.2 1302.45 1221.45 1300.45 1216.95 1298.3 1212.25 1296.45 1209.75 1294.7 1207.35 1291.55 1201.25 1288.45 1195.25 1289.45 1188.25 1290.3 1181.1 1296.3 1175.6 1302.3 1170 1306.8 1168.15 1315.2 1164.65 1320.2 1170.75 1323.65 1176 1321.45 1180.25 1319.8 1183 1317.95 1182.35 1316.05 1181.75 1314.8 1179.6 Z
M 1391 1168.4
Q 1369.75 1212.5 1344.65 1228.45 1339.15 1230.95 1340.65 1224.6
L 1359.8 1173.85
Q 1361.8 1168.5 1355.9 1167.15 1351.4 1166.25 1339.15 1174.75 1332.8 1179.6 1328.3 1184.5 1326.9 1185.85 1325.9 1187.1 1324.9 1188.35 1326.55 1189.35 1328.05 1190.35 1329.05 1189.6 1329.8 1189.1 1330.4 1188.5 1340.05 1180 1342.9 1178.6 1347.15 1176.85 1345.3 1182.1
L 1331.65 1218.6
Q 1326.65 1230.45 1328.3 1236.45 1330.3 1244.35 1342.15 1237.2 1351.9 1231.35 1361.65 1220.1 1377.4 1202.35 1377.15 1202.85
L 1366.5 1232.1
Q 1365.25 1235.7 1365.65 1237.1 1366.75 1241.95 1373.75 1240.1 1380.65 1238.1 1387.15 1232.6 1393.5 1226.95 1398 1220.95 1400 1218.7 1399.4 1217.85 1398.15 1215.7 1396.75 1216.95 1394.15 1219.45 1392 1221.45 1384 1228.95 1381.15 1229.6 1377.65 1230.35 1379.15 1225.7
L 1399.4 1171.6
Q 1398.9 1170.5 1398.25 1169.9 1396.25 1167.75 1391 1168.4 Z
M 1452.6 1177.25
Q 1446.25 1174.25 1437.35 1181.85 1427.75 1190.1 1420.5 1206.85 1414.1 1221.2 1414.5 1227.85 1414.85 1235.35 1425.5 1227.2 1444.35 1213.6 1452.7 1194.85 1457.6 1184.75 1457.1 1181.75 1455.6 1178.85 1452.6 1177.25 Z
M 1461.45 1174
Q 1456.1 1165.65 1441.75 1172.75 1421.6 1182.75 1408 1209.35 1394.4 1235.6 1405.9 1240.1 1410 1241.7 1419.75 1236.35 1433.25 1228.7 1445.35 1214.2 1446.85 1212.35 1446.35 1214.45
L 1440.85 1229.45
Q 1436.25 1242.85 1448.1 1240.1 1454.85 1238.35 1462.45 1232.1 1466.45 1228.85 1471.45 1223.2 1473.6 1221.2 1472.95 1220.2 1471.95 1218.1 1470.45 1219.2 1449.45 1236.95 1451.35 1227.7
L 1474.6 1166.25
Q 1474.35 1165.25 1473.7 1164.65 1471.7 1162.5 1466.45 1163
L 1461.45 1174 Z
M 574.35 673.4
L 574.35 1082.3 1648.6 1082.3 1648.6 673.4 574.35 673.4 Z
M 563.85 1092.8
L 563.85 662.95 1659.1 662.95 1659.1 1092.8 563.85 1092.8 Z
M 1006.6 1177.25
Q 1000.25 1174.25 991.35 1181.85 981.75 1190.1 974.5 1206.85 968.15 1221.2 968.5 1227.85 968.9 1235.35 979.5 1227.2 998.35 1213.6 1006.75 1194.85 1011.6 1184.75 1011.1 1181.75 1009.6 1178.85 1006.6 1177.25 Z
M 1015.5 1174
Q 1010.1 1165.65 995.75 1172.75 975.65 1182.75 962 1209.35 948.4 1235.6 959.9 1240.1 964 1241.7 973.75 1236.35 987.25 1228.7 999.35 1214.2 1000.85 1212.35 1000.35 1214.45
L 994.85 1229.45
Q 990.25 1242.85 1002.1 1240.1 1008.85 1238.35 1016.5 1232.1 1020.5 1228.85 1025.5 1223.2 1027.6 1221.2 1026.95 1220.2 1026 1218.1 1024.5 1219.2 1003.5 1236.95 1005.35 1227.7
L 1028.6 1166.25
Q 1028.35 1165.25 1027.7 1164.65 1025.75 1162.5 1020.5 1163
L 1015.5 1174 Z
M 1065.45 1179.6
Q 1064.1 1177.5 1061.35 1176.1 1055.7 1173.35 1050.85 1178 1046.1 1182.85 1053.7 1195.85 1065.7 1212.1 1059.95 1224.6 1058.35 1228.6 1053.7 1233.6 1046.6 1240.7 1036.2 1240.35 1035.85 1240.35 1035.35 1240.35 1032.1 1240.2 1029.7 1238.85 1022.35 1234.7 1026.1 1227.35 1029.35 1222.1 1033.85 1227.35 1039.35 1232.95 1044.95 1232.45 1047.45 1232.2 1049.45 1229.95 1050.85 1228.6 1051.6 1226.2 1053.1 1221.45 1051.1 1216.95 1048.95 1212.25 1047.1 1209.75 1045.35 1207.35 1042.2 1201.25 1039.1 1195.25 1040.1 1188.25 1040.95 1181.1 1046.95 1175.6 1052.95 1170 1057.45 1168.15 1065.85 1164.65 1070.8 1170.75 1074.3 1176 1072.05 1180.25 1070.45 1183 1068.6 1182.35 1066.7 1181.75 1065.45 1179.6 Z
M 1129.8 1174
Q 1124.4 1165.65 1110.05 1172.75 1089.95 1182.75 1076.3 1209.35 1062.7 1235.6 1074.2 1240.1 1078.3 1241.7 1088.05 1236.35 1101.55 1228.7 1113.65 1214.2 1115.15 1212.35 1114.65 1214.45
L 1109.2 1229.45
Q 1104.55 1242.85 1116.4 1240.1 1123.15 1238.35 1130.8 1232.1 1133.9 1229.45 1137.8 1225.45 1138.8 1224.35 1139.8 1223.2 1141.9 1221.2 1141.3 1220.2 1140.3 1218.1 1138.8 1219.2 1137.05 1220.7 1135.4 1222.1 1117.9 1236.2 1119.65 1227.7
L 1142.9 1166.25
Q 1142.65 1165.25 1142.05 1164.65 1140.05 1162.5 1134.8 1163
L 1129.8 1174 Z
M 1120.9 1177.25
Q 1114.55 1174.25 1105.7 1181.85 1096.05 1190.1 1088.8 1206.85 1082.45 1221.2 1082.8 1227.85 1083.2 1235.35 1093.8 1227.2 1112.65 1213.6 1121.05 1194.85 1125.9 1184.75 1125.4 1181.75 1123.9 1178.85 1120.9 1177.25 Z
M 1239.2 1131.15
L 1223.1 1155.75
Q 1222.5 1156.4 1223.1 1157.25
L 1223.85 1158
Q 1224.85 1159 1225.75 1158.4
L 1248.6 1137.9
Q 1250.95 1135.75 1249.7 1133.15 1248.35 1130.25 1245.45 1128.4 1242.45 1126.55 1239.2 1131.15 Z
M 1211 1186.1
Q 1220.5 1172.85 1229 1172.6 1231.25 1172.75 1232.1 1175.1 1234.1 1180.25 1226.6 1187.6 1222 1192.25 1216.25 1195.6 1201 1203.75 1202.85 1199.6 1205.85 1193.35 1211 1186.1 Z
M 1200.5 1206.6
Q 1194.75 1228.95 1204.6 1231.85 1213 1233.45 1222.85 1223.45 1223.5 1222.7 1224.1 1222.1 1225.5 1220.95 1226.6 1222.6 1227.35 1224.1 1226.6 1225.1 1226.1 1225.85 1225.5 1226.45 1213.5 1240.95 1198.85 1240.6 1191.9 1240.1 1187.4 1232.2 1182 1221.85 1191.25 1200.35 1200.1 1182.75 1213.35 1173.5 1216.6 1171.5 1219 1170.4 1224.5 1167.9 1229.5 1167.25 1239.6 1166.4 1242.35 1175.75 1245.85 1194.35 1200.5 1206.6 Z
M 830.7 1185.35
L 808.85 1185.35
Q 802.85 1185.6 804.85 1182.75 808.85 1177.25 814.1 1169.5 819.2 1161.65 827.45 1150 835.6 1138.25 835.7 1140.5
L 833.1 1182.85
Q 832.95 1185.25 830.7 1185.35 Z
M 748 1238.6
L 784.1 1238.6
Q 785.6 1238.7 785.85 1236.6 786 1234.95 785 1234.35
L 779 1233.6
Q 775.1 1233.1 774.1 1232.2 773 1231.2 774.5 1228.45
L 795.6 1196.35
Q 798.35 1192 801.85 1192
L 829.95 1192
Q 832.45 1192 832.6 1194.1
L 830.6 1226.95
Q 829.95 1230.45 827.85 1232.35 826.35 1233.6 823.2 1233.95 819.95 1234.2 817.35 1234.1 816.1 1234.2 816.1 1236.1 815.95 1237.7 816.45 1238.45
L 816.6 1238.6 855.45 1238.6
Q 856.95 1238.7 857.2 1236.6 857.35 1234.95 856.35 1234.35
L 849.7 1233.7
Q 843.2 1232.95 843.45 1227.2
L 848.7 1124.05
Q 848.95 1121.8 847.7 1121.4 846.85 1120.9 843.35 1123.65 839.1 1126.05 834.7 1126.9 830.45 1137.25 819.95 1150.65
L 767.4 1224.45
Q 763.9 1229.85 758.9 1232.2 754.4 1234.35 748.75 1234.1 747.5 1234.2 747.5 1236.1 747.4 1237.7 747.9 1238.45
L 748 1238.6 Z
M 918.65 1206.6
Q 912.9 1228.95 922.8 1231.85 931.15 1233.45 941.05 1223.45 941.65 1222.7 942.3 1222.1 943.65 1220.95 944.75 1222.6 945.5 1224.1 944.75 1225.1 944.25 1225.85 943.65 1226.45 931.65 1240.95 917.05 1240.6 910.05 1240.1 905.55 1232.2 900.2 1221.85 909.4 1200.35 918.3 1182.75 931.55 1173.5 934.8 1171.5 937.15 1170.4 942.65 1167.9 947.65 1167.25 957.75 1166.4 960.5 1175.75 962.25 1183.35 953.75 1185.25 948 1185.6 948.65 1177.85 948.9 1174.25 944.75 1173 933.05 1171.85 921.9 1197 920.05 1200.85 918.65 1206.6 Z"/>

<path id="Layer2_0_MEMBER_0_1_STROKES" stroke="#000000" stroke-width="1" stroke-linejoin="round" stroke-linecap="round" fill="none" d="
M 1527.4 705.55
L 1598.45 794.7 1598.45 732.9
Q 1598.45 719.9 1594.7 715.4 1589.6 709.3 1577.6 709.4
L 1577.6 705.55 1625.2 705.55 1625.2 709.4
Q 1616.1 710.65 1612.95 712.5 1609.85 714.25 1608.1 718.5 1606.35 722.75 1606.35 732.9
L 1606.35 852.7 1602.7 852.7 1505.4 732.9 1505.4 824.35
Q 1505.4 836.8 1511 841.2 1516.65 845.55 1524 845.55
L 1527.4 845.55 1527.4 849.45 1408.7 849.45 1408.7 845.55 1411.55 845.55
Q 1419.95 845.55 1423.3 843.2 1425.7 841.45 1425.7 838.3 1425.7 836.3 1425.05 834.35 1424.8 833.45 1421.8 826.45
L 1414.2 808.45 1363.35 808.45 1357.25 822.45
Q 1354.35 829.45 1354.35 834.1 1354.35 840.05 1359.25 842.95 1362.1 844.7 1373.35 845.55
L 1373.35 849.45 1325.5 849.45 1325.5 845.55
Q 1333.25 844.3 1338.25 839.2 1343.1 833.85 1350.5 817.35
L 1401.95 702.55 1403.95 702.55 1455.9 820.6
Q 1463.3 837.3 1468.05 841.7 1471.55 844.8 1477.9 845.55 1488.55 845.05 1492.9 840.55 1497.65 835.85 1497.65 824.35
L 1497.65 722.75 1494.5 719
Q 1489.9 713.25 1486.4 711.5 1482.9 709.65 1476.4 709.4
L 1476.4 705.55 1527.4 705.55 Z
M 596.3 870.7
L 1626.45 870.7 1626.45 1050.05 596.3 1050.05 596.3 870.7 Z
M 1310.75 991.25
L 1259.9 991.25 1253.8 1005.2
Q 1250.9 1012.2 1250.9 1016.85 1250.9 1022.85 1255.8 1025.7 1258.65 1027.45 1269.9 1028.35
L 1269.9 1032.2 1222.05 1032.2 1222.05 1028.35
Q 1229.8 1027.1 1234.8 1021.95 1239.65 1016.6 1247.05 1000.1
L 1298.5 885.3 1300.5 885.3 1352.5 1003.35
Q 1359.85 1020.1 1364.6 1024.45 1368.2 1027.7 1374.85 1028.35
L 1374.85 1032.2 1305.25 1032.2 1305.25 1028.35 1308.15 1028.35
Q 1316.5 1028.35 1319.9 1025.95 1322.25 1024.2 1322.25 1021.1 1322.25 1019.1 1321.65 1017.1 1321.4 1016.2 1318.4 1009.2
L 1310.75 991.25 Z
M 1410.55 800.6
L 1389.1 751 1367.1 800.6 1410.55 800.6 Z
M 873 808.45
L 822.15 808.45 816.05 822.45
Q 813.2 829.45 813.2 834.1 813.2 840.05 818.05 842.95 820.9 844.7 832.15 845.55
L 832.15 849.45 717.75 849.45 717.75 845.55 722.5 845.55
Q 728.85 845.55 732.6 843.3 735.35 841.8 736.85 838.2 738.1 835.7 738.1 824.85
L 738.1 718.15 682.9 849.45 680.25 849.45 624.3 719.15 624.3 820.45
Q 624.3 831.1 624.8 833.6 626.15 838.8 630.9 842.2 635.4 845.55 645.3 845.55
L 645.3 849.45 596.05 849.45 596.05 845.55 597.55 845.55
Q 602.3 845.55 606.4 844.05 610.55 842.3 612.65 839.55 614.8 836.8 616.05 831.85 616.15 830.7 616.15 820.95
L 616.15 729.9
Q 616.15 719 615.05 716.4 613.9 713.65 610.3 711.5 606.65 709.4 600.55 709.4
L 596.05 709.4 596.05 705.55 654.9 705.55 695.25 800.35 734.35 705.55 792.95 705.55 792.95 709.4 788.2 709.4
Q 781.95 709.4 778.05 711.65 775.45 713.15 773.85 716.65 772.7 719.25 772.7 729.9
L 772.7 824.85
Q 772.7 835.85 773.85 838.55 774.95 841.3 778.55 843.45 781.2 844.95 785.2 845.45 792.3 844.05 797.05 839.2 801.95 833.85 809.3 817.35
L 860.75 702.55 862.75 702.55 914.75 820.6
Q 922.1 837.3 926.85 841.7 930.5 844.95 937.1 845.55
L 937.1 849.45 867.5 849.45 867.5 845.55 870.4 845.55
Q 878.75 845.55 882.15 843.2 884.5 841.45 884.5 838.3 884.5 836.3 883.9 834.35 883.65 833.45 880.65 826.45
L 873 808.45 Z
M 1052.05 702.3
L 1052.05 753 1048.15 753
Q 1041.05 732.15 1026.8 721.4 1012.55 710.5 995.7 710.5 979.6 710.5 968.85 719.65 958.2 728.65 953.7 744.9 949.2 761.1 949.2 778.25 949.2 798.95 954.1 814.45 958.95 830.1 969.95 837.45 980.85 844.8 995.7 844.8 1000.95 844.8 1006.45 843.7 1011.8 842.55 1017.55 840.45
L 1017.55 810.45
Q 1017.55 801.95 1016.45 799.6 1015.3 796.95 1011.7 794.95 1007.95 793 1002.7 793
L 999.05 793 999.05 789.1 1069.05 789.1 1069.05 793
Q 1061.05 793.5 1057.9 795.2 1054.8 796.85 1053.05 800.6 1052.05 802.6 1052.05 810.45
L 1052.05 840.45
Q 1038.3 846.55 1023.45 849.8 1008.45 852.8 992.45 852.8 971.95 852.8 958.45 847.3 944.85 841.7 934.6 832.7 924.25 823.6 918.35 812.2 911 797.6 911 779.35 911 746.9 933.75 724.5 947.85 710.65 966.6 705.4 977.95 702.15 991.2 702.15 1001.95 702.15 1010.45 703.8 1012.8 704.15 1016.55 705.4 1020.3 706.65 1025.7 708.65 1036.05 712.65 1038.05 712.65 1040.9 712.65 1043.55 710.5 1045.3 708.9 1046.9 705.4 1047.55 704.05 1048.15 702.3
L 1052.05 702.3 Z
M 1135.35 808.45
L 1084.5 808.45 1078.4 822.45
Q 1075.5 829.45 1075.5 834.1 1075.5 840.05 1080.4 842.95 1083.25 844.7 1094.5 845.55
L 1094.5 849.45 1046.65 849.45 1046.65 845.55
Q 1054.4 844.3 1059.4 839.2 1064.3 833.85 1071.65 817.35
L 1123.1 702.55 1125.1 702.55 1177.1 820.6
Q 1184.45 837.3 1189.2 841.7 1192.85 844.95 1199.45 845.55
L 1199.45 849.45 1129.85 849.45 1129.85 845.55 1132.75 845.55
Q 1141.1 845.55 1144.5 843.2 1146.85 841.45 1146.85 838.3 1146.85 836.3 1146.25 834.35 1146 833.45 1143 826.45
L 1135.35 808.45 Z
M 1063.55 991.25
L 1012.7 991.25 1006.55 1005.2
Q 1003.7 1012.2 1003.7 1016.85 1003.7 1022.85 1008.55 1025.7 1011.45 1027.45 1022.7 1028.35
L 1022.7 1032.2 974.85 1032.2 974.85 1028.35
Q 982.6 1027.1 987.55 1021.95 992.45 1016.6 999.8 1000.1
L 1051.3 885.3 1053.3 885.3 1105.25 1003.35
Q 1112.6 1020.1 1117.35 1024.45 1118.6 1025.6 1120.35 1026.45
L 1120.35 981.1 1124.25 981.1
Q 1129 1004.1 1142.35 1016.2 1155.6 1028.2 1170.95 1028.2 1182.85 1028.2 1189.95 1021.7 1196.95 1015.2 1196.95 1006.6 1196.95 1001.5 1194.35 996.75 1191.6 992 1186.1 987.75 1180.6 983.35 1166.6 976.5 1149.5 968.1 1140.85 961.9 1139.5 960.9 1138.35 960 1129.75 953.25 1125.1 944.9 1120.5 936.5 1120.5 926.4 1120.5 909.15 1133.1 897.05 1145.75 885.05 1164.95 885.05 1171.95 885.05 1178.6 886.65 1183.6 887.9 1190.7 891.4 1197.8 894.9 1200.7 894.9 1203.45 894.9 1205.05 893.15 1206.7 891.4 1208.05 885.05
L 1211.2 885.05 1212.45 933 1208.05 933
Q 1204.95 914.9 1192.95 904.05 1180.85 892.9 1166.85 892.9 1156.1 892.9 1149.75 898.8 1143.35 904.55 1143.35 912.05 1143.35 916.8 1145.6 920.5 1148.75 925.5 1155.45 930.4 1160.45 933.9 1178.6 942.9 1198.8 952.9 1208.55 961.9 1210.8 964.1 1212.55 966.25 1221.3 977.35 1221.3 991.6 1221.3 1009.6 1207.3 1022.7 1193.2 1035.6 1171.6 1035.6 1164.7 1035.6 1158.7 1034.2 1152.6 1032.85 1143.5 1029.1 1138.35 1026.95 1135.1 1026.95 1132.35 1026.95 1129.25 1029.1 1128.35 1029.7 1127.6 1030.45
L 1127.6 1032.2 1126.1 1032.2
Q 1125.1 1033.6 1124.25 1035.45
L 1120.35 1035.45 1120.35 1032.2 1058.05 1032.2 1058.05 1028.35 1060.9 1028.35
Q 1069.3 1028.35 1072.65 1025.95 1075 1024.2 1075 1021.1 1075 1019.1 1074.4 1017.1 1074.15 1016.2 1071.15 1009.2
L 1063.55 991.25 Z
M 1307.15 983.35
L 1285.65 933.75 1263.65 983.35 1307.15 983.35 Z
M 1131.75 800.6
L 1110.25 751 1088.25 800.6 1131.75 800.6 Z
M 983.6 885.05
L 983.6 934.9 979.45 934.9
Q 974.85 915.4 962.1 904.9 949.35 894.55 933.25 894.55 919.75 894.55 908.5 902.3 897.25 910.05 892 922.5 885.4 938.65 885.4 958.25 885.4 960.15 885.5 961.9 885.9 979 890.25 993.5 895.15 1009.2 905.5 1017.45 915.85 1025.45 932.5 1025.45 946.1 1025.45 957.45 1019.6 968.7 1013.6 981.2 999.1
L 981.2 1011.45
Q 969.1 1024.1 956.1 1029.85 942.85 1035.45 925.35 1035.45 902.35 1035.45 884.5 1026.2 866.5 1017.1 856.9 999.75 847.15 982.5 847.15 962.85 847.15 962.4 847.15 961.9 847.4 941.75 857.9 923.9 868.65 905.4 887 895.15 905.25 885.05 925.85 885.05 941.1 885.05 957.95 891.55 967.7 895.4 970.35 895.4 973.7 895.4 976.35 892.9 978.7 890.4 979.45 885.05
L 983.6 885.05 Z
M 1059.9 983.35
L 1038.4 933.75 1016.45 983.35 1059.9 983.35 Z
M 869.4 800.6
L 847.9 751 825.9 800.6 869.4 800.6 Z"/>

<path id="Layer2_0_MEMBER_0_MEMBER_0_1_STROKES" stroke="#000000" stroke-width="1" stroke-linejoin="round" stroke-linecap="round" fill="none" d="
M 1198.65 707.05
L 1198.65 750.15 1244.75 750.15 1194.15 849.2 1326.55 849.2 1326.55 807.35 1280.7 807.35 1332.15 707.05 1198.65 707.05 Z"/>

<path id="Layer2_1_MEMBER_0_1_STROKES" stroke="#000000" stroke-width="1" stroke-linejoin="round" stroke-linecap="round" fill="none" d="
M 261.2 83.85
L 261.2 294.6 1990.4 294.6 1990.4 83.85 261.2 83.85 Z
M 250.7 73.35
L 2000.9 73.35 2000.9 305.1 250.7 305.1 250.7 73.35 Z"/>

<path id="Layer2_1_MEMBER_1_1_STROKES" stroke="#000000" stroke-width="1" stroke-linejoin="round" stroke-linecap="round" fill="none" d="
M 1379.5 97.2
L 1976.9 97.2 1976.9 281.35 1379.5 281.35 1379.5 97.2 Z"/>

<path id="Layer2_1_MEMBER_2_1_STROKES" stroke="#000000" stroke-width="1" stroke-linejoin="round" stroke-linecap="round" fill="none" d="
M 1248.6 115.7
L 1321.45 207.1 1321.45 143.7
Q 1321.45 130.4 1317.6 125.8 1312.35 119.55 1300.1 119.65
L 1300.1 115.7 1348.85 115.7 1348.85 119.65
Q 1339.5 120.95 1336.3 122.85 1333.1 124.65 1331.3 129 1329.55 133.35 1329.55 143.7
L 1329.55 266.5 1325.8 266.5 1226.1 143.7 1226.1 237.45
Q 1226.1 250.25 1231.85 254.7 1237.6 259.2 1245.15 259.2
L 1248.6 259.2 1248.6 263.15 1127 263.15 1127 259.2 1129.95 259.2
Q 1138.5 259.2 1142 256.75 1144.4 254.95 1144.4 251.75 1144.4 249.7 1143.75 247.65 1143.5 246.8 1140.45 239.6
L 1132.65 221.15 1080.55 221.15 1074.25 235.5
Q 1071.3 242.7 1071.3 247.4 1071.3 253.55 1076.3 256.5 1079.25 258.3 1090.75 259.2
L 1090.75 263.15 1041.75 263.15 1041.75 259.2
Q 1049.7 257.9 1054.8 252.65 1059.8 247.15 1067.35 230.25
L 1120.1 112.6 1122.15 112.6 1175.4 233.6
Q 1182.95 250.75 1187.8 255.25 1191.4 258.45 1197.9 259.2 1208.8 258.7 1213.3 254.1 1218.15 249.2 1218.15 237.45
L 1218.15 133.35 1214.95 129.5
Q 1210.2 123.65 1206.65 121.85 1203.05 119.9 1196.4 119.65
L 1196.4 115.7 1248.6 115.7 Z
M 1128.9 213.1
L 1106.9 162.3 1084.35 213.1 1128.9 213.1 Z
M 846.9 221.15
L 794.8 221.15 788.5 235.5
Q 785.6 242.7 785.6 247.4 785.6 253.55 790.55 256.5 793.5 258.3 805.05 259.2
L 805.05 263.15 756 263.15 756 259.2
Q 763.95 257.9 769.05 252.65 774.05 247.15 781.6 230.25
L 834.35 112.6 836.4 112.6 889.65 233.6
Q 897.2 250.75 902.1 255.25 905.8 258.55 912.55 259.2
L 912.55 263.15 841.25 263.15 841.25 259.2 844.2 259.2
Q 852.8 259.2 856.25 256.75 858.7 254.95 858.7 251.75 858.7 249.7 858.05 247.65 857.8 246.8 854.7 239.6
L 846.9 221.15 Z
M 761.5 112.35
L 761.5 164.35 757.55 164.35
Q 750.25 142.95 735.65 131.95 721.05 120.8 703.8 120.8 687.25 120.8 676.25 130.15 665.35 139.35 660.75 156 656.15 172.65 656.15 190.2 656.15 211.45 661.15 227.3 666.15 243.3 677.4 250.85 688.55 258.45 703.8 258.45 709.15 258.45 714.8 257.3 720.3 256.1 726.2 253.95
L 726.2 223.2
Q 726.2 214.5 725.05 212.1 723.9 209.4 720.15 207.35 716.3 205.3 710.95 205.3
L 707.25 205.3 707.25 201.35 778.9 201.35 778.9 205.3
Q 770.75 205.8 767.55 207.6 764.35 209.25 762.55 213.1 761.5 215.15 761.5 223.2
L 761.5 253.95
Q 747.45 260.2 732.2 263.55 716.85 266.6 700.45 266.6 679.45 266.6 665.65 261 651.65 255.25 641.2 246 630.55 236.65 624.55 225 617 210.05 617 191.35 617 158.05 640.3 135.15 654.75 120.95 673.95 115.55 685.6 112.25 699.15 112.25 710.2 112.25 718.9 113.9 721.3 114.3 725.15 115.55 729 116.85 734.5 118.9 745.15 123 747.2 123 750.1 123 752.8 120.8 754.6 119.15 756.25 115.55 756.9 114.15 757.55 112.35
L 761.5 112.35 Z
M 843.2 213.1
L 821.15 162.3 798.65 213.1 843.2 213.1 Z
M 578.05 221.15
L 525.95 221.15 519.7 235.5
Q 516.75 242.7 516.75 247.4 516.75 253.55 521.75 256.5 524.7 258.3 536.2 259.2
L 536.2 263.15 418.95 263.15 418.95 259.2 423.8 259.2
Q 430.35 259.2 434.15 256.9 437 255.35 438.55 251.65 439.8 249.1 439.8 237.95
L 439.8 128.6 383.2 263.15 380.55 263.15 323.2 129.65 323.2 233.45
Q 323.2 244.35 323.7 246.9 325.1 252.3 329.95 255.75 334.55 259.2 344.7 259.2
L 344.7 263.15 294.25 263.15 294.25 259.2 295.8 259.2
Q 300.65 259.2 304.85 257.65 309.1 255.85 311.3 253.05 313.45 250.25 314.75 245.1 314.85 243.95 314.85 234
L 314.85 140.65
Q 314.85 129.5 313.7 126.85 312.55 124 308.85 121.85 305.15 119.65 298.85 119.65
L 294.25 119.65 294.25 115.7 354.55 115.7 395.9 212.85 435.95 115.7 496 115.7 496 119.65 491.15 119.65
Q 484.75 119.65 480.75 121.95 478.1 123.5 476.4 127.1 475.25 129.75 475.25 140.65
L 475.25 237.95
Q 475.25 249.2 476.4 252.05 477.55 254.85 481.3 257 483.95 258.55 488.05 259.05 495.35 257.65 500.25 252.65 505.2 247.15 512.8 230.25
L 565.5 112.6 567.55 112.6 620.8 233.6
Q 628.35 250.75 633.25 255.25 636.95 258.55 643.75 259.2
L 643.75 263.15 572.45 263.15 572.45 259.2 575.4 259.2
Q 583.95 259.2 587.4 256.75 589.85 254.95 589.85 251.75 589.85 249.7 589.2 247.65 588.95 246.8 585.85 239.6
L 578.05 221.15 Z
M 574.35 213.1
L 552.35 162.3 529.8 213.1 574.35 213.1 Z"/>

<path id="Layer2_1_MEMBER_2_MEMBER_0_1_STROKES" stroke="#000000" stroke-width="1" stroke-linejoin="round" stroke-linecap="round" fill="none" d="
M 911.7 117.2
L 911.7 161.4 958.9 161.4 907.05 262.9 1042.75 262.9 1042.75 220 995.8 220 1048.55 117.2 911.7 117.2 Z"/>

<path id="Layer2_1_MEMBER_3_1_STROKES" stroke="#000000" stroke-width="1" stroke-linejoin="round" stroke-linecap="round" fill="none" d="
M 1878 220.15
L 1827.15 220.15 1821 234.15
Q 1818.15 241.15 1818.15 245.75 1818.15 251.75 1823 254.6 1825.9 256.35 1837.15 257.25
L 1837.15 261.1 1789.3 261.1 1789.3 257.25
Q 1797.05 256 1802.05 250.85 1806.9 245.5 1814.25 229
L 1865.75 114.2 1867.75 114.2 1919.7 232.25
Q 1927.1 249 1931.85 253.35 1935.45 256.6 1942.05 257.25
L 1942.05 261.1 1872.5 261.1 1872.5 257.25 1875.35 257.25
Q 1883.75 257.25 1887.1 254.85 1889.5 253.1 1889.5 250 1889.5 248 1888.85 246 1888.6 245.1 1885.6 238.15
L 1878 220.15 Z
M 1630.75 220.15
L 1579.9 220.15 1573.8 234.15
Q 1570.9 241.15 1570.9 245.75 1570.9 251.75 1575.8 254.6 1578.65 256.35 1589.9 257.25
L 1589.9 261.1 1542.05 261.1 1542.05 257.25
Q 1549.8 256 1554.8 250.85 1559.65 245.5 1567.05 229
L 1618.5 114.2 1620.5 114.2 1672.5 232.25
Q 1679.85 249 1684.6 253.35 1685.85 254.5 1687.6 255.35
L 1687.6 210 1691.45 210
Q 1696.2 233 1709.6 245.1 1722.85 257.1 1738.2 257.1 1750.05 257.1 1757.2 250.6 1764.2 244.1 1764.2 235.5 1764.2 230.4 1761.55 225.65 1758.8 220.9 1753.3 216.65 1747.8 212.25 1733.8 205.4 1716.7 197.05 1708.1 190.8 1706.7 189.8 1705.6 188.9 1696.95 182.15 1692.35 173.8 1687.7 165.4 1687.7 155.3 1687.7 138.05 1700.35 125.95 1712.95 113.95 1732.2 113.95 1739.2 113.95 1745.8 115.55 1750.8 116.8 1757.95 120.3 1765.05 123.8 1767.9 123.8 1770.65 123.8 1772.3 122.05 1773.9 120.3 1775.3 113.95
L 1778.4 113.95 1779.65 161.9 1775.3 161.9
Q 1772.15 143.8 1760.2 132.95 1748.05 121.8 1734.05 121.8 1723.35 121.8 1716.95 127.7 1710.6 133.45 1710.6 140.95 1710.6 145.7 1712.85 149.45 1715.95 154.45 1722.7 159.3 1727.7 162.8 1745.8 171.8 1766.05 181.8 1775.8 190.8 1778.05 193.05 1779.8 195.15 1788.55 206.25 1788.55 220.5 1788.55 238.5 1774.55 251.6 1760.45 264.5 1738.8 264.5 1731.95 264.5 1725.95 263.1 1719.85 261.75 1710.7 258 1705.6 255.85 1702.35 255.85 1699.6 255.85 1696.45 258 1695.6 258.6 1694.85 259.35
L 1693.45 261 1693.35 261.1
Q 1692.35 262.5 1691.45 264.35
L 1687.6 264.35 1687.6 261.1 1625.25 261.1 1625.25 257.25 1628.15 257.25
Q 1636.5 257.25 1639.9 254.85 1642.25 253.1 1642.25 250 1642.25 248 1641.6 246 1641.35 245.1 1638.4 238.15
L 1630.75 220.15 Z
M 1874.35 212.25
L 1852.85 162.65 1830.9 212.25 1874.35 212.25 Z
M 1550.8 113.95
L 1550.8 163.8 1546.7 163.8
Q 1542.05 144.3 1529.3 133.8 1516.55 123.45 1500.45 123.45 1486.95 123.45 1475.7 131.2 1464.5 138.95 1459.25 151.45 1452.6 167.55 1452.6 187.15 1452.6 189.05 1452.75 190.8 1453.1 207.9 1457.5 222.4 1462.35 238.15 1472.7 246.35 1483.1 254.35 1499.7 254.35 1513.35 254.35 1524.7 248.5 1535.95 242.5 1548.45 228
L 1548.45 240.4
Q 1536.3 253 1523.3 258.75 1510.1 264.35 1492.6 264.35 1469.6 264.35 1451.75 255.1 1433.75 246 1424.15 228.65 1414.4 211.4 1414.4 191.8 1414.4 191.3 1414.4 190.8 1414.65 170.65 1425.15 152.8 1435.85 134.3 1454.25 124.05 1472.45 113.95 1493.1 113.95 1508.35 113.95 1525.2 120.45 1534.95 124.3 1537.55 124.3 1540.95 124.3 1543.55 121.8 1545.95 119.3 1546.7 113.95
L 1550.8 113.95 Z
M 1627.15 212.25
L 1605.65 162.65 1583.65 212.25 1627.15 212.25 Z"/>

<path id="Layer2_1_MEMBER_4_1_STROKES" stroke="#000000" stroke-width="1" stroke-linejoin="round" stroke-linecap="round" fill="none" d="
M 1329.55 392.35
Q 1328.2 390.25 1325.45 388.85 1319.8 386.1 1314.95 390.75 1310.2 395.6 1317.8 408.6 1329.8 424.85 1324.05 437.35 1322.45 441.35 1317.8 446.35 1310.7 453.45 1300.3 453.1 1299.95 453.1 1299.45 453.1 1296.2 452.95 1293.85 451.6 1286.45 447.45 1290.2 440.1 1293.45 434.85 1297.95 440.1 1303.45 445.7 1309.05 445.2 1311.55 444.95 1313.55 442.7 1314.95 441.35 1315.7 438.95 1317.2 434.2 1315.2 429.7 1313.05 425 1311.2 422.5 1309.45 420.1 1306.3 414 1303.2 408 1304.2 401 1305.05 393.85 1311.05 388.35 1317.05 382.75 1321.55 380.9 1329.95 377.4 1334.95 383.5 1338.4 388.75 1336.2 393 1334.55 395.75 1332.7 395.1 1330.8 394.5 1329.55 392.35 Z
M 1405.75 381.15
Q 1384.5 425.25 1359.4 441.2 1353.9 443.7 1355.4 437.35
L 1374.55 386.6
Q 1376.55 381.25 1370.65 379.9 1366.15 379 1353.9 387.5 1347.55 392.35 1343.05 397.25 1341.65 398.6 1340.65 399.85 1339.65 401.1 1341.3 402.1 1342.8 403.1 1343.8 402.35 1344.55 401.85 1345.15 401.25 1354.8 392.75 1357.65 391.35 1361.9 389.6 1360.05 394.85
L 1346.4 431.35
Q 1341.4 443.2 1343.05 449.2 1345.05 457.1 1356.9 449.95 1366.65 444.1 1376.4 432.85 1392.15 415.1 1391.9 415.6
L 1381.25 444.85
Q 1380 448.45 1380.4 449.85 1381.5 454.7 1388.5 452.85 1395.4 450.85 1401.9 445.35 1408.25 439.7 1412.75 433.7 1414.75 431.45 1414.15 430.6 1412.9 428.45 1411.5 429.7 1408.9 432.2 1406.75 434.2 1398.75 441.7 1395.9 442.35 1392.4 443.1 1393.9 438.45
L 1414.15 384.35
Q 1413.65 383.25 1413 382.65 1411 380.5 1405.75 381.15 Z
M 1476.2 386.75
Q 1470.85 378.4 1456.5 385.5 1436.35 395.5 1422.75 422.1 1409.15 448.35 1420.65 452.85 1424.75 454.45 1434.5 449.1 1448 441.45 1460.1 426.95 1461.6 425.1 1461.1 427.2
L 1455.6 442.2
Q 1451 455.6 1462.85 452.85 1469.6 451.1 1477.2 444.85 1481.2 441.6 1486.2 435.95 1488.35 433.95 1487.7 432.95 1486.7 430.85 1485.2 431.95 1464.2 449.7 1466.1 440.45
L 1489.35 379
Q 1489.1 378 1488.45 377.4 1486.45 375.25 1481.2 375.75
L 1476.2 386.75 Z
M 1467.35 390
Q 1461 387 1452.1 394.6 1442.5 402.85 1435.25 419.6 1428.85 433.95 1429.25 440.6 1429.6 448.1 1440.25 439.95 1459.1 426.35 1467.45 407.6 1472.35 397.5 1471.85 394.5 1470.35 391.6 1467.35 390 Z
M 1030.25 386.75
Q 1024.85 378.4 1010.5 385.5 990.4 395.5 976.75 422.1 963.15 448.35 974.65 452.85 978.75 454.45 988.5 449.1 1002 441.45 1014.1 426.95 1015.6 425.1 1015.1 427.2
L 1009.6 442.2
Q 1005 455.6 1016.85 452.85 1023.6 451.1 1031.25 444.85 1035.25 441.6 1040.25 435.95 1042.35 433.95 1041.7 432.95 1040.75 430.85 1039.25 431.95 1018.25 449.7 1020.1 440.45
L 1043.35 379
Q 1043.1 378 1042.45 377.4 1040.5 375.25 1035.25 375.75
L 1030.25 386.75 Z
M 1021.35 390
Q 1015 387 1006.1 394.6 996.5 402.85 989.25 419.6 982.9 433.95 983.25 440.6 983.65 448.1 994.25 439.95 1013.1 426.35 1021.5 407.6 1026.35 397.5 1025.85 394.5 1024.35 391.6 1021.35 390 Z
M 1080.2 392.35
Q 1078.85 390.25 1076.1 388.85 1070.45 386.1 1065.6 390.75 1060.85 395.6 1068.45 408.6 1080.45 424.85 1074.7 437.35 1073.1 441.35 1068.45 446.35 1061.35 453.45 1050.95 453.1 1050.6 453.1 1050.1 453.1 1046.85 452.95 1044.45 451.6 1037.1 447.45 1040.85 440.1 1044.1 434.85 1048.6 440.1 1054.1 445.7 1059.7 445.2 1062.2 444.95 1064.2 442.7 1065.6 441.35 1066.35 438.95 1067.85 434.2 1065.85 429.7 1063.7 425 1061.85 422.5 1060.1 420.1 1056.95 414 1053.85 408 1054.85 401 1055.7 393.85 1061.7 388.35 1067.7 382.75 1072.2 380.9 1080.6 377.4 1085.55 383.5 1089.05 388.75 1086.8 393 1085.2 395.75 1083.35 395.1 1081.45 394.5 1080.2 392.35 Z
M 1144.55 386.75
Q 1139.15 378.4 1124.8 385.5 1104.7 395.5 1091.05 422.1 1077.45 448.35 1088.95 452.85 1093.05 454.45 1102.8 449.1 1116.3 441.45 1128.4 426.95 1129.9 425.1 1129.4 427.2
L 1123.95 442.2
Q 1119.3 455.6 1131.15 452.85 1137.9 451.1 1145.55 444.85 1148.65 442.2 1152.55 438.2 1153.55 437.1 1154.55 435.95 1156.65 433.95 1156.05 432.95 1155.05 430.85 1153.55 431.95 1151.8 433.45 1150.15 434.85 1132.65 448.95 1134.4 440.45
L 1157.65 379
Q 1157.4 378 1156.8 377.4 1154.8 375.25 1149.55 375.75
L 1144.55 386.75 Z
M 1135.65 390
Q 1129.3 387 1120.45 394.6 1110.8 402.85 1103.55 419.6 1097.2 433.95 1097.55 440.6 1097.95 448.1 1108.55 439.95 1127.4 426.35 1135.8 407.6 1140.65 397.5 1140.15 394.5 1138.65 391.6 1135.65 390 Z
M 1253.95 343.9
L 1237.85 368.5
Q 1237.25 369.15 1237.85 370
L 1238.6 370.75
Q 1239.6 371.75 1240.5 371.15
L 1263.35 350.65
Q 1265.7 348.5 1264.45 345.9 1263.1 343 1260.2 341.15 1257.2 339.3 1253.95 343.9 Z
M 1215.25 419.35
Q 1209.5 441.7 1219.35 444.6 1227.75 446.2 1237.6 436.2 1238.25 435.45 1238.85 434.85 1240.25 433.7 1241.35 435.35 1242.1 436.85 1241.35 437.85 1240.85 438.6 1240.25 439.2 1228.25 453.7 1213.6 453.35 1206.65 452.85 1202.15 444.95 1196.75 434.6 1206 413.1 1214.85 395.5 1228.1 386.25 1231.35 384.25 1233.75 383.15 1239.25 380.65 1244.25 380 1254.35 379.15 1257.1 388.5 1260.6 407.1 1215.25 419.35 Z
M 1225.75 398.85
Q 1235.25 385.6 1243.75 385.35 1246 385.5 1246.85 387.85 1248.85 393 1241.35 400.35 1236.75 405 1231 408.35 1215.75 416.5 1217.6 412.35 1220.6 406.1 1225.75 398.85 Z
M 762.75 451.35
L 798.85 451.35
Q 800.35 451.45 800.6 449.35 800.75 447.7 799.75 447.1
L 793.75 446.35
Q 789.85 445.85 788.85 444.95 787.75 443.95 789.25 441.2
L 810.35 409.1
Q 813.1 404.75 816.6 404.75
L 844.7 404.75
Q 847.2 404.75 847.35 406.85
L 845.35 439.7
Q 844.7 443.2 842.6 445.1 841.1 446.35 837.95 446.7 834.7 446.95 832.1 446.85 830.85 446.95 830.85 448.85 830.7 450.45 831.2 451.2
L 831.35 451.35 870.2 451.35
Q 871.7 451.45 871.95 449.35 872.1 447.7 871.1 447.1
L 864.45 446.45
Q 857.95 445.7 858.2 439.95
L 863.45 336.8
Q 863.7 334.55 862.45 334.15 861.6 333.65 858.1 336.4 853.85 338.8 849.45 339.65 845.2 350 834.7 363.4
L 782.15 437.2
Q 778.65 442.6 773.65 444.95 769.15 447.1 763.5 446.85 762.25 446.95 762.25 448.85 762.15 450.45 762.65 451.2
L 762.75 451.35 Z
M 845.45 398.1
L 823.6 398.1
Q 817.6 398.35 819.6 395.5 823.6 390 828.85 382.25 833.95 374.4 842.2 362.75 850.35 351 850.45 353.25
L 847.85 395.6
Q 847.7 398 845.45 398.1 Z
M 933.4 419.35
Q 927.65 441.7 937.55 444.6 945.9 446.2 955.8 436.2 956.4 435.45 957.05 434.85 958.4 433.7 959.5 435.35 960.25 436.85 959.5 437.85 959 438.6 958.4 439.2 946.4 453.7 931.8 453.35 924.8 452.85 920.3 444.95 914.95 434.6 924.15 413.1 933.05 395.5 946.3 386.25 949.55 384.25 951.9 383.15 957.4 380.65 962.4 380 972.5 379.15 975.25 388.5 977 396.1 968.5 398 962.75 398.35 963.4 390.6 963.65 387 959.5 385.75 947.8 384.6 936.65 409.75 934.8 413.6 933.4 419.35 Z"/>
</defs>

<g transform="matrix( 1, 0, 0, 1, 0,0) ">
<use xlink:href="#Layer2_0_1_STROKES"/>
</g>

<g transform="matrix( 1, 0, 0, 1, 0,0) ">
<use xlink:href="#Layer2_0_MEMBER_0_1_STROKES"/>
</g>

<g transform="matrix( 1, 0, 0, 1, 0,0) ">
<use xlink:href="#Layer2_0_MEMBER_0_MEMBER_0_1_STROKES"/>
</g>

<g transform="matrix( 1, 0, 0, 1, 0,0) ">
<use xlink:href="#Layer2_1_MEMBER_0_1_STROKES"/>
</g>

<g transform="matrix( 1, 0, 0, 1, 0,0) ">
<use xlink:href="#Layer2_1_MEMBER_1_1_STROKES"/>
</g>

<g transform="matrix( 1, 0, 0, 1, 0,0) ">
<use xlink:href="#Layer2_1_MEMBER_2_1_STROKES"/>
</g>

<g transform="matrix( 1, 0, 0, 1, 0,0) ">
<use xlink:href="#Layer2_1_MEMBER_2_MEMBER_0_1_STROKES"/>
</g>

<g transform="matrix( 1, 0, 0, 1, 0,0) ">
<use xlink:href="#Layer2_1_MEMBER_3_1_STROKES"/>
</g>

<g transform="matrix( 1, 0, 0, 1, 0,0) ">
<use xlink:href="#Layer2_1_MEMBER_4_1_STROKES"/>
</g>

<g transform="matrix( 1.766693115234375, 0, 0, 1.766693115234375, 1757.2,198.8) ">
<g transform="matrix( 1, 0, 0, 1, 0,0) ">
<use xlink:href="#magazancasa___limpo_0_Layer0_0_FILL"/>
</g>

<g transform="matrix( 1, 0, 0, 1, 0,0) ">
<use xlink:href="#magazancasa___limpo_0_Layer0_1_FILL"/>
</g>

<g transform="matrix( 1, 0, 0, 1, -371.1,-370.7) ">
<use xlink:href="#magazancasa___limpo_0_Layer0_2_MEMBER_0_FILL"/>
</g>

<g transform="matrix( 1, 0, 0, 1, 0,0) ">
<use xlink:href="#magazancasa___limpo_0_Layer0_2_MEMBER_1_FILL"/>
</g>

<g transform="matrix( 1, 0, 0, 1, -502.8,-471.45) ">
<use xlink:href="#magazancasa___limpo_0_Layer0_2_MEMBER_2_FILL"/>
</g>
</g>

<g transform="matrix( 1.766693115234375, 0, 0, 1.766693115234375, 441.75,249.2) ">
<g transform="matrix( 1, 0, 0, 1, 0,0) ">
<use xlink:href="#magazancasa_2_limpo_0_Layer0_0_FILL"/>
</g>

<g transform="matrix( 1, 0, 0, 1, 352.7,-38.05) ">
<g transform="matrix( 1, 0, 0, 1, 0,0) ">
<use filter="url(#Filter_1)" xlink:href="#magazancasa_barra_horizontal_0_Layer0_0_FILL"/>
</g>
</g>

<g transform="matrix( 1, 0, 0, 1, 0,0) ">
<use xlink:href="#magazancasa_2_limpo_0_Layer0_2_FILL"/>
</g>

<g transform="matrix( 1.024688720703125, 0, 0, 1.024688720703125, -505.1,-480.75) ">
<use xlink:href="#magazancasa_2_limpo_0_Layer0_3_FILL"/>
</g>

<g transform="matrix( 1, 0, 0, 1, 0,0) ">
<use xlink:href="#magazancasa_2_limpo_0_Layer0_4_FILL"/>
</g>

<g transform="matrix( 1, 0, 0, 1, 131.7,-78.25) ">
<use xlink:href="#magazancasa_2_limpo_0_Layer0_5_FILL"/>
</g>
</g>

<g transform="matrix( 1.766693115234375, 0, 0, 1.766693115234375, 1757.2,198.8) ">
<g transform="matrix( 1, 0, 0, 1, 0,0) ">
<use xlink:href="#magazancasa_0_Layer0_0_FILL"/>
</g>

<g transform="matrix( 1, 0, 0, 1, 0,0) ">
<use xlink:href="#magazancasa_0_Layer0_1_FILL"/>
</g>

<g transform="matrix( 1, 0, 0, 1, 0.05,33.75) ">
<g transform="matrix( 1, 0, 0, 1, -0.05,-33.75) ">
<use filter="url(#Filter_1)" xlink:href="#Magazancasa_barra_vertical_0_Layer0_0_FILL"/>
</g>
</g>

<g transform="matrix( 1, 0, 0, 1, -0.25,-39.45) ">
<g transform="matrix( 1, 0, 0, 1, -502.55,-432.1) ">
<use filter="url(#Filter_1)" xlink:href="#magazancasa_letra___escura_0_Layer0_0_FILL"/>
</g>
</g>

<g transform="matrix( 1, 0, 0, 1, 0,0) ">
<use xlink:href="#magazancasa_0_Layer0_2_MEMBER_2_FILL"/>
</g>

<g transform="matrix( 1, 0, 0, 1, -502.8,-471.45) ">
<use xlink:href="#magazancasa_0_Layer0_2_MEMBER_3_FILL"/>
</g>
</g>

<g transform="matrix( 1.766693115234375, 0, 0, 1.766693115234375, 441.75,249.2) ">
<g transform="matrix( 1, 0, 0, 1, 0,0) ">
<use xlink:href="#magazancasa_2_0_Layer0_0_FILL"/>
</g>

<g transform="matrix( 1, 0, 0, 1, 352.7,-38.05) ">
<g transform="matrix( 1, 0, 0, 1, 0,0) ">
<use filter="url(#Filter_1)" xlink:href="#magazancasa_barra_horizontal_0_Layer0_0_FILL"/>
</g>
</g>

<g transform="matrix( 1, 0, 0, 1, 9.75,-38.15) ">
<g transform="matrix( 1.024688720703125, 0, 0, 1.024688720703125, -514.95,-442.75) ">
<use filter="url(#Filter_1)" xlink:href="#magazancasa_letra___escura_horizontal_0_Layer0_0_FILL"/>
</g>
</g>

<g transform="matrix( 1.024688720703125, 0, 0, 1.024688720703125, -505.1,-480.75) ">
<use xlink:href="#magazancasa_2_0_Layer0_2_MEMBER_1_FILL"/>
</g>

<g transform="matrix( 1, 0, 0, 1, 0,0) ">
<use xlink:href="#magazancasa_2_0_Layer0_3_FILL"/>
</g>

<g transform="matrix( 1, 0, 0, 1, 131.7,-78.25) ">
<use xlink:href="#magazancasa_2_0_Layer0_4_FILL"/>
</g>
</g>
</svg>
