
<svg xmlns="http://www.w3.org/2000/svg" version="1.1" xmlns:xlink="http://www.w3.org/1999/xlink" preserveAspectRatio="none" x="0px" y="0px" width="105px" height="50px" viewBox="0 0 105 50">
<defs>
<g id="S_mbolo_2_C_pia_3_C_pia_C_pia_C_pia_3_C_pia_C_pia_2_0_Layer0_0_FILL">
<path fill="#EF0C19" stroke="none" d="
M -385.6 -236.05
L -418.85 -108.05 -46.7 -110.5 -12.7 -241.3 -385.6 -236.05 Z"/>
</g>

<g id="S_mbolo_2_C_pia_3_C_pia_C_pia_C_pia_3_C_pia_C_pia_2_0_Layer0_1_FILL">
<path fill="#EF0C19" stroke="none" d="
M 397.35 -80.85
Q 391.5 -81.35 385 -81.35
L 269.6 -81.35 221.4 150.3 302.6 150.35 319.85 68.2 333 68.2 349.8 150.3 428.8 150.3 402.15 49.75
Q 451.75 39.25 453.9 -21.15 455.8 -76.05 397.35 -80.85
M 368.7 -18.4
Q 373.05 -13.1 370.8 -2.95 370 -0.35 368.7 1.9 360.4 15.9 331.25 13.85
L 339.05 -23.3
Q 361.9 -26.7 368.7 -18.4
M -127.55 -58.5
L -214.85 -39.1 -253.85 150.35 -170.55 150.35 -127.55 -58.5
M -130.6 -95.85
Q -133.05 -96.5 -134.05 -96.5 -135.45 -96.5 -135.45 -95.85 -135.65 -94.95 -135.1 -94.3 -134.25 -93.25 -133.2 -92.9 -95.75 -70.95 -76.05 -41.6 -54.95 -10.35 -57.05 24.85 -59.3 62.5 -87.8 101 -118.55 142.45 -177.4 182
L -178.65 183.05
Q -179 183.55 -179 184.4 -179 185.1 -177.75 185.45 -176.75 185.65 -175.35 185.1
L 31.45 100.1 21.15 150.3 204.85 150.3 216.95 91.6 111.75 91.6 117.25 64.85 241.05 14
Q 242.25 13.45 242.25 12.8 242.25 11.9 241.05 11.4
L 134.55 -19.35 135.25 -22.65 240.45 -22.65 252.5 -81.35 68.8 -81.35 60.45 -40.75 -130.6 -95.85
M -206.2 -81.3
L -213.15 -47.45 -125.85 -66.85 -122.9 -81.3 -206.2 -81.3
M -324.4 -81.35
L -406.25 -81.35 -453.9 150.3 -270.45 150.3 -258.4 91.8 -360 91.8 -324.4 -81.35 Z"/>
</g>

<g id="S_mbolo_2_C_pia_3_C_pia_C_pia_C_pia_3_C_pia_C_pia_2_0_Layer0_2_FILL">
<path fill="#FFFFFF" stroke="none" d="
M -101.7 -225.2
L -129.1 -225.15 -146.85 -158.35
Q -148.55 -151.8 -149.25 -146.65 -149.85 -141.6 -149.4 -137.65 -148.95 -133.75 -147.4 -131.15 -145.75 -128.6 -143.15 -127.4 -140.6 -126.2 -137.2 -125.3 -133.85 -124.35 -129.7 -123.75 -125.6 -123.3 -120.75 -123.1 -116 -122.85 -110.5 -122.7
L -106.85 -122.85
Q -105.1 -122.85 -103.55 -122.95 -101.9 -123.05 -100.25 -123.2 -98.7 -123.35 -97.05 -123.4 -95.35 -123.5 -93.85 -123.65 -92.3 -123.95 -90.7 -124.25 -89.1 -124.55 -87.6 -124.85 -86 -125.35 -84.45 -125.8 -82.8 -126.25 -81.35 -126.7 -78.25 -127.75 -75.5 -129.45 -72.75 -131.1 -70.45 -133.55 -68.05 -136.05 -66.05 -139.15 -64.05 -142.3 -62.6 -146.1 -62.45 -146.25 -62.45 -146.4 -62.45 -146.55 -62.45 -146.7
L -62.35 -146.75 -62.3 -146.85
Q -62.3 -147 -62.2 -147.05 -62.15 -147.15 -62 -147.35 -62 -147.5 -62 -147.65 -62 -147.8 -61.85 -147.95 -61.85 -148.1 -61.85 -148.25 -61.85 -148.4 -61.7 -148.55 -61.7 -148.7 -61.7 -148.85 -61.7 -149 -61.55 -149.15 -61.55 -149.3 -61.45 -149.45 -61.4 -149.6 -61.25 -149.75 -61.25 -149.9 -61.25 -150.05 -61.25 -150.2 -61 -150.35 -61 -150.55 -61 -150.7 -61 -150.85 -60.85 -151.05
L -60.85 -151.15
Q -60.85 -151.2 -60.7 -151.35
L -60.7 -151.45
Q -60.7 -151.5 -60.55 -151.65
L -60.55 -151.75
Q -60.55 -151.8 -60.4 -151.95
L -60.4 -152.05
Q -60.4 -152.1 -60.4 -152.25
L -60.4 -152.35
Q -60.4 -152.4 -60.25 -152.55
L -60.25 -152.65
Q -60.25 -152.7 -60.25 -152.85 -60.25 -153 -60.2 -153.15 -60.1 -153.3 -59.95 -153.45 -59.95 -153.6 -59.9 -153.75 -59.8 -153.85 -59.8 -153.95
L -59.75 -154.05
Q -59.7 -154.1 -59.7 -154.25 -59.7 -154.55 -59.6 -154.8 -59.55 -155 -59.4 -155.15 -59.4 -155.3 -59.3 -155.4 -59.25 -155.45 -59.25 -155.6 -59.25 -155.75 -59.15 -155.85 -59.1 -155.9 -59.1 -156.05 -59.1 -156.2 -59.1 -156.3 -59.1 -156.35 -58.95 -156.5 -58.95 -156.65 -58.95 -156.75 -58.95 -156.9 -58.95 -157.05 -58.8 -157.35 -58.7 -157.55 -58.65 -157.8 -58.65 -157.95 -58.65 -158.1 -58.55 -158.1 -58.5 -158.1 -58.5 -158.25 -58.5 -158.35 -58.4 -158.5 -58.35 -158.65 -58.2 -158.8 -58.2 -158.95 -58.2 -159.05 -58.2 -159.1 -58.05 -159.25 -58.05 -159.4 -58.05 -159.5 -58.05 -159.55 -58.05 -159.7 -57.8 -160.1 -57.75 -160.4 -57.65 -160.7 -57.65 -161
L -40.5 -225.25 -67.85 -225.2 -85.2 -160.05
Q -85.8 -157.45 -86.75 -155.35 -87.65 -153.25 -88.55 -151.75 -89.3 -150.2 -90.4 -149.25 -91.45 -148.25 -92.65 -147.8 -93.75 -147.15 -95.15 -146.85 -96.65 -146.55 -98.3 -146.25 -100.15 -146.1 -102.2 -145.95 -104.25 -145.75 -106.75 -145.75 -108.65 -145.75 -110.4 -145.9 -112.1 -146.05 -113.45 -146.2 -114.95 -146.5 -116.2 -146.8 -117.4 -147.1 -118.3 -147.6 -119.25 -148.05 -119.8 -148.95 -120.3 -149.85 -120.3 -151.25 -120.45 -152.6 -120.25 -154.45 -120 -156.25 -119.4 -158.7
L -101.7 -225.2
M -149.85 -202.65
L -143.9 -225.15 -217.65 -225.05 -244.65 -123.15 -170.05 -123.25 -164.1 -145.7 -211.45 -145.65 -206.25 -165.35 -162.9 -165.4 -157.7 -184.35 -201.1 -184.3 -196.25 -202.6 -149.85 -202.65
M -341.95 -201.15
L -341.05 -201.15 -335.7 -123.05 -312.25 -123.1 -266.15 -201.25 -265.4 -201.25 -288.05 -123.15 -261.2 -123.15 -234.1 -225.05 -278.25 -225 -313.6 -161 -314.75 -161 -317 -224.95 -360.15 -224.9 -387.15 -123 -360.35 -123.05 -341.95 -201.15 Z"/>
</g>
</defs>

<g transform="matrix( 0.12847900390625, 0, 0, 0.12847900390625, 52.5,25) ">
<g transform="matrix( 0.883056640625, 0, 0, 0.882781982421875, 0,24.65) ">
<g transform="matrix( 1, 0, 0, 1, 0,0) ">
<use xlink:href="#S_mbolo_2_C_pia_3_C_pia_C_pia_C_pia_3_C_pia_C_pia_2_0_Layer0_0_FILL"/>
</g>

<g transform="matrix( 1, 0, 0, 1, 0,0) ">
<use xlink:href="#S_mbolo_2_C_pia_3_C_pia_C_pia_C_pia_3_C_pia_C_pia_2_0_Layer0_1_FILL"/>
</g>

<g transform="matrix( 1, 0, 0, 1, -1.95,0) ">
<use xlink:href="#S_mbolo_2_C_pia_3_C_pia_C_pia_C_pia_3_C_pia_C_pia_2_0_Layer0_2_FILL"/>
</g>
</g>
</g>
</svg>
