
<svg xmlns="http://www.w3.org/2000/svg" version="1.1" xmlns:xlink="http://www.w3.org/1999/xlink" preserveAspectRatio="none" x="0px" y="0px" width="2200px" height="500px" viewBox="0 0 2200 500">
<defs>
<g id="Layer0_0_MEMBER_0_FILL">
<path fill="#009E32" stroke="none" d="
M 1170.5 193.2
Q 1170.7 178.75 1155.35 177.65
L 1092.75 177.65 1089.25 193.2 1138.5 192.95
Q 1154.35 193.85 1148.25 211.55
L 1124.3 211.55
Q 1088.2 209.5 1080 227.95 1071.75 246.4 1076.85 256.65 1081.9 266.9 1094.3 268.95
L 1154.25 268.95 1169.85 199.2
Q 1170.45 195.95 1170.5 193.2
M 1095.1 241.55
Q 1096.75 225.2 1124.3 226.25
L 1145 226.25 1138.9 253.2 1114.95 253.2
Q 1092.55 254.85 1095.1 241.55 Z"/>
</g>

<g id="Layer0_0_MEMBER_1_FILL">
<path fill="#009E32" stroke="none" d="
M 973.5 193.2
L 1005.6 193.2 988.4 268.95 1007.35 268.95 1024.55 193.2 1045.1 193.2
Q 1055.1 194.35 1054.4 204.2
L 1039.7 268.95 1058.65 268.95 1072.95 211.05
Q 1082.15 178.95 1051.4 177.65
L 958.05 177.65 937.35 268.95 956.3 268.95 973.5 193.2 Z"/>
</g>

<g id="Layer0_0_MEMBER_2_FILL">
<path fill="#009E32" stroke="none" d="
M 926.7 177.7
L 892.8 177.65 872.1 268.95 891.55 268.95 908.75 193.2 919.4 193.2
Q 933.2 192.95 925.1 214.1
L 941.75 214.3
Q 945.25 204.9 946.25 193.2 946.5 178.3 926.7 177.7 Z"/>
</g>

<g id="Layer0_0_MEMBER_3_FILL">
<path fill="#009E32" stroke="none" d="
M 872.1 193.2
Q 872.3 178.75 856.95 177.65
L 794.35 177.65 790.85 193.2 840.1 192.95
Q 855.95 193.85 849.85 211.55
L 825.9 211.55
Q 789.8 209.5 781.6 227.95 773.35 246.4 778.45 256.65 783.5 266.9 795.9 268.95
L 855.85 268.95 871.45 199.2
Q 872.05 195.95 872.1 193.2
M 825.9 226.25
L 846.6 226.25 840.5 253.2 816.55 253.2
Q 794.15 254.85 796.7 241.55 798.35 225.2 825.9 226.25 Z"/>
</g>

<g id="Layer0_0_MEMBER_4_FILL">
<path fill="#009E32" stroke="none" d="
M 706.7 188.7
L 709.65 177.65
Q 719.35 149.4 750 148.5
L 801.05 148.5 807.1 128.3 739.45 128.3
Q 698.5 132.55 687 177.65
L 662.7 268.95 685.35 268.95 701.35 208.9 783.15 208.9 789.2 188.7 706.7 188.7 Z"/>
</g>

<g id="Layer0_0_MEMBER_5_FILL">
<path fill="#EF0C19" stroke="none" d="
M 1305.5 337.15
Q 1419.7 317.9 1495.1 293.2 1354.8 330.4 1182.2 342.9 1009.55 355.4 847.15 354.3 574.55 348.05 550.9 297.25 543.25 274.65 593.6 247.7 619.4 234.1 667.75 216.4 661 218.55 651.6 222.15 634.8 228.5 615.55 236.5 594.25 245.2 573.5 256.2 529 280.15 522.5 300.2 511.5 338.2 637.45 358.25 754.95 377.25 975.25 369.45 1164.5 361.25 1305.5 337.15 Z"/>
</g>

<g id="Layer0_0_MEMBER_6_FILL">
<path fill="#EF0C19" stroke="none" d="
M 1369.1 355.65
L 1381.15 297.15 1279.55 297.15 1315.15 124 1233.3 124 1185.65 355.65 1369.1 355.65 Z"/>
</g>

<g id="Layer0_0_MEMBER_7_FILL">
<path fill="#EF0C19" stroke="none" d="
M 1941.8 937.05
Q 1935.9 936.55 1929.4 936.55
L 1814 936.55 1765.8 1168.25 1847 1168.3 1864.25 1086.15 1877.4 1086.15 1894.2 1168.25 1973.25 1168.25 1946.6 1067.65
Q 1996.2 1057.15 1998.35 996.75 2000.25 941.85 1941.8 937.05
M 1915.2 1014.95
Q 1914.4 1017.55 1913.1 1019.8 1904.8 1033.8 1875.65 1031.75
L 1883.45 994.6
Q 1906.3 991.2 1913.1 999.5 1917.45 1004.8 1915.2 1014.95 Z"/>
</g>

<g id="Layer0_0_MEMBER_8_FILL">
<path fill="#EF0C19" stroke="none" d="
M 1744.1 1168.25
L 1756.2 1109.55 1651 1109.55 1674.5 995.25 1779.7 995.25 1791.75 936.55 1608 936.55 1560.35 1168.25 1744.1 1168.25 Z"/>
</g>

<g id="Layer0_0_MEMBER_9_FILL">
<path fill="#EF0C19" stroke="none" d="
M 1557.65 190.6
Q 1557.65 190.1 1556.95 189.8
L 1345.1 128.65
Q 1343.7 128.3 1343.15 128.3 1342.35 128.3 1342.35 128.65 1342.25 129.2 1342.55 129.55 1343.05 130.15 1343.65 130.35 1365 142.85 1376.2 159.6 1388.25 177.4 1387.05 197.45 1385.75 218.95 1369.5 240.9 1352 264.5 1318.45 287.05
L 1317.75 287.65
Q 1317.55 287.95 1317.55 288.4 1317.55 288.8 1318.25 289 1318.8 289.15 1319.6 288.8
L 1556.95 191.3
Q 1557.65 190.95 1557.65 190.6 Z"/>
</g>

<g id="Layer0_0_MEMBER_10_FILL">
<path fill="#EF0C19" stroke="none" d="
M 1396.6 355.65
L 1479.9 355.65 1522.9 146.8 1435.6 166.2 1396.6 355.65
M 1524.6 138.45
L 1527.55 124 1444.25 124 1437.3 157.85 1524.6 138.45 Z"/>
</g>

<path id="Layer1_0_MEMBER_0_1_STROKES" stroke="#000000" stroke-width="1" stroke-linejoin="round" stroke-linecap="round" fill="none" d="
M 1442.4 160.05
L 1488.4 160.1 1498.2 113.55 1505.65 113.55 1515.15 160.05 1560 160.05 1544.9 103.05
Q 1573 97.1 1574.2 62.85 1575.3 31.75 1542.15 29.05 1538.8 28.75 1535.1 28.75
L 1469.75 28.75 1442.4 160.05 Z
M 1527.05 73.2
Q 1528.35 67.4 1525.9 64.4 1522.05 59.7 1509.05 61.65
L 1504.65 82.7
Q 1521.2 83.85 1525.9 75.95 1526.65 74.65 1527.05 73.2 Z
M 1326 160.05
L 1353 28.75 1457.1 28.75 1450.3 62.05 1390.65 62.05 1377.35 126.8 1436.95 126.8 1430.1 160.05 1326 160.05 Z
M 1244.35 28.75
L 1197.1 28.75 1193.15 47.95 1242.65 36.95 1244.35 28.75 Z
M 1109.95 126.9
L 1167.5 126.9 1160.65 160.05 1056.7 160.05 1083.7 28.75 1130.1 28.75 1109.95 126.9 Z
M 1217.3 160.05
L 1242.05 40 1192.55 51 1170.1 160.05 1217.3 160.05 Z"/>

<path id="Layer1_0_MEMBER_0_MEMBER_0_1_STROKES" stroke="#000000" stroke-width="1" stroke-linejoin="round" stroke-linecap="round" fill="none" d="
M 1449.7 82.75
L 1214.9 177.5
Q 1209.75 179.6 1214.9 176.3 1217.6 174.45 1220.2 172.55 1253 149 1269 126.3 1280.8 109.45 1281 87.05 1281.15 65.65 1271.05 50.35 1265.35 41.7 1258.1 35.1 1249.9 27.55 1239.3 22.2 1236.95 20.95 1242.9 22.2
L 1449.7 80.65
Q 1452.6 81.45 1449.7 82.75 Z"/>

<path id="Layer1_0_MEMBER_1_1_STROKES" stroke="#000000" stroke-width="1" stroke-linejoin="round" stroke-linecap="round" fill="none" d="
M 1390.95 184.25
Q 1250.6654296875 221.460546875 1078.025 233.95 905.3947265625 246.446484375 743 245.35 470.4 239.1 446.75 188.3 439.1 165.7 489.45 138.75 515.25 125.15 563.6 107.45 556.85 109.6 547.45 113.2 530.65 119.55 511.4 127.55 490.1 136.25 469.35 147.25 424.85 171.2 418.35 191.25 407.35 229.25 533.3 249.3 650.8 268.3 871.1 260.5 1060.35 252.3 1201.35 228.2 1315.55 208.95 1390.95 184.25 Z"/>

<path id="Layer1_0_MEMBER_2_1_STROKES" stroke="#000000" stroke-width="1" stroke-linejoin="round" stroke-linecap="round" fill="none" d="
M 1065.7 90.25
L 1050.1 160 990.15 160
Q 977.75 157.95 972.7 147.7 967.6 137.45 975.85 119 984.05 100.55 1020.15 102.6
L 1044.1 102.6
Q 1050.2 84.9 1034.35 84
L 985.1 84.25 988.6 68.7 1051.2 68.7
Q 1066.55 69.8 1066.35 84.25 1066.3 87 1065.7 90.25 Z
M 1040.85 117.3
L 1034.75 144.25 1010.8 144.25
Q 988.4 145.9 990.95 132.6 992.6 116.25 1020.15 117.3
L 1040.85 117.3 Z
M 853.9 68.7
L 833.2 160 852.15 160 869.35 84.25 901.45 84.25 884.25 160 903.2 160 920.4 84.25 940.95 84.25
Q 950.95 85.4 950.25 95.25
L 935.55 160 954.5 160 968.8 102.1
Q 978 70 947.25 68.7
L 853.9 68.7 Z
M 788.65 68.7
L 767.95 160 787.4 160 804.6 84.25 815.25 84.25
Q 829.0337890625 83.9767578125 820.925 105.125
L 837.6 105.35
Q 841.076953125 95.9546875 842.1 84.25 842.35 69.35 822.55 68.75
L 788.65 68.7 Z
M 767.3 90.25
L 751.7 160 691.75 160
Q 679.35 157.95 674.3 147.7 669.2 137.45 677.45 119 685.65 100.55 721.75 102.6
L 745.7 102.6
Q 751.8 84.9 735.95 84
L 686.7 84.25 690.2 68.7 752.8 68.7
Q 768.15 69.8 767.95 84.25 767.9 87 767.3 90.25 Z
M 582.85 68.7
L 558.55 160 581.2 160 597.2 99.95 679 99.95 685.05 79.75 602.55 79.75 605.5 68.7
Q 615.2 40.45 645.85 39.55
L 696.9 39.55 702.95 19.35 635.3 19.35
Q 594.35 23.6 582.85 68.7 Z
M 742.45 117.3
L 736.35 144.25 712.4 144.25
Q 690 145.9 692.55 132.6 694.2 116.25 721.75 117.3
L 742.45 117.3 Z"/>

<path id="Layer1_1_MEMBER_0_1_STROKES" stroke="#000000" stroke-width="1" stroke-linejoin="round" stroke-linecap="round" fill="none" d="
M 1169.85 199.2
L 1154.25 268.95 1094.3 268.95
Q 1081.9 266.9 1076.85 256.65 1071.75 246.4 1080 227.95 1088.2 209.5 1124.3 211.55
L 1148.25 211.55
Q 1154.35 193.85 1138.5 192.95
L 1089.25 193.2 1092.75 177.65 1155.35 177.65
Q 1170.7 178.75 1170.5 193.2 1170.45 195.95 1169.85 199.2 Z
M 1145 226.25
L 1138.9 253.2 1114.95 253.2
Q 1092.55 254.85 1095.1 241.55 1096.75 225.2 1124.3 226.25
L 1145 226.25 Z"/>

<path id="Layer1_1_MEMBER_1_1_STROKES" stroke="#000000" stroke-width="1" stroke-linejoin="round" stroke-linecap="round" fill="none" d="
M 958.05 177.65
L 937.35 268.95 956.3 268.95 973.5 193.2 1005.6 193.2 988.4 268.95 1007.35 268.95 1024.55 193.2 1045.1 193.2
Q 1055.1 194.35 1054.4 204.2
L 1039.7 268.95 1058.65 268.95 1072.95 211.05
Q 1082.15 178.95 1051.4 177.65
L 958.05 177.65 Z"/>

<path id="Layer1_1_MEMBER_2_1_STROKES" stroke="#000000" stroke-width="1" stroke-linejoin="round" stroke-linecap="round" fill="none" d="
M 892.8 177.65
L 872.1 268.95 891.55 268.95 908.75 193.2 919.4 193.2
Q 933.2 192.95 925.1 214.1
L 941.75 214.3
Q 945.25 204.9 946.25 193.2 946.5 178.3 926.7 177.7
L 892.8 177.65 Z"/>

<path id="Layer1_1_MEMBER_3_1_STROKES" stroke="#000000" stroke-width="1" stroke-linejoin="round" stroke-linecap="round" fill="none" d="
M 871.45 199.2
L 855.85 268.95 795.9 268.95
Q 783.5 266.9 778.45 256.65 773.35 246.4 781.6 227.95 789.8 209.5 825.9 211.55
L 849.85 211.55
Q 855.95 193.85 840.1 192.95
L 790.85 193.2 794.35 177.65 856.95 177.65
Q 872.3 178.75 872.1 193.2 872.05 195.95 871.45 199.2 Z
M 846.6 226.25
L 840.5 253.2 816.55 253.2
Q 794.15 254.85 796.7 241.55 798.35 225.2 825.9 226.25
L 846.6 226.25 Z"/>

<path id="Layer1_1_MEMBER_4_1_STROKES" stroke="#000000" stroke-width="1" stroke-linejoin="round" stroke-linecap="round" fill="none" d="
M 687 177.65
L 662.7 268.95 685.35 268.95 701.35 208.9 783.15 208.9 789.2 188.7 706.7 188.7 709.65 177.65
Q 719.35 149.4 750 148.5
L 801.05 148.5 807.1 128.3 739.45 128.3
Q 698.5 132.55 687 177.65 Z"/>

<path id="Layer1_1_MEMBER_5_1_STROKES" stroke="#000000" stroke-width="1" stroke-linejoin="round" stroke-linecap="round" fill="none" d="
M 1495.1 293.2
Q 1354.8 330.4 1182.2 342.9 1009.55 355.4 847.15 354.3 574.55 348.05 550.9 297.25 543.25 274.65 593.6 247.7 619.4 234.1 667.75 216.4 661 218.55 651.6 222.15 634.8 228.5 615.55 236.5 594.25 245.2 573.5 256.2 529 280.15 522.5 300.2 511.5 338.2 637.45 358.25 754.95 377.25 975.25 369.45 1164.5 361.25 1305.5 337.15 1419.7 317.9 1495.1 293.2 Z"/>

<path id="Layer1_1_MEMBER_6_1_STROKES" stroke="#000000" stroke-width="1" stroke-linejoin="round" stroke-linecap="round" fill="none" d="
M 1214.3528717041015 235.63221054077147
L 1272.2656158447267 235.63221054077147 1265.3970275878905 268.97853164672847 1160.829183959961 268.97853164672847 1187.9900329589843 136.93280029296875 1234.6451324462892 136.93280029296875 1214.3528717041015 235.63221054077147 Z"/>

<path id="Layer1_1_MEMBER_7_1_STROKES" stroke="#000000" stroke-width="1" stroke-linejoin="round" stroke-linecap="round" fill="none" d="
M 1545.780325317383 269.02931747436526
L 1592.0562469482422 269.0578079223633 1601.8870307922364 222.24800186157233 1609.3812225341799 222.24800186157233 1618.955551147461 269.02931747436526 1664.0061866760254 269.02931747436526 1648.8183380126952 211.706536102295
Q 1677.0854034423828 205.72354202270515 1678.3106895446776 171.30708084106448 1679.3935005187989 140.02456893920908 1646.082815551758 137.28948593139648 1642.7204025268557 137.00458145141602 1639.0160491943361 137.00458145141602
L 1573.249530029297 137.00458145141602 1545.780325317383 269.02931747436526 Z
M 1630.9234619140625 181.67760391235356
Q 1632.205738067627 175.89404296875 1629.7266708374023 172.87405548095705 1625.8513473510743 168.1446411132813 1612.8291206359863 170.08199157714853
L 1608.383896636963 191.2503944396973
Q 1624.9964965820313 192.4185028076172 1629.7266708374023 184.44117736816406 1630.4675415039064 183.15910720825195 1630.9234619140625 181.67760391235356 Z"/>

<path id="Layer1_1_MEMBER_8_1_STROKES" stroke="#000000" stroke-width="1" stroke-linejoin="round" stroke-linecap="round" fill="none" d="
M 1431.5942649841309 269.02931747436526
L 1458.7500244140624 137.00458145141602 1563.469243621826 137.00458145141602 1556.6019424438477 170.45236740112307 1496.6484085083007 170.45236740112307 1483.2557464599608 235.5815315246582 1543.209280395508 235.5815315246582 1536.3134841918945 269.02931747436526 1431.5942649841309 269.02931747436526 Z"/>

<path id="Layer1_1_MEMBER_9_1_STROKES" stroke="#000000" stroke-width="1" stroke-linejoin="round" stroke-linecap="round" fill="none" d="
M 1376.2 159.6
Q 1388.25 177.4 1387.05 197.45 1385.75 218.95 1369.5 240.9 1352 264.5 1318.45 287.05
L 1317.75 287.65
Q 1317.55 287.95 1317.55 288.4 1317.55 288.8 1318.25 289 1318.8 289.15 1319.6 288.8
L 1556.95 191.3
Q 1557.65 190.95 1557.65 190.6 1557.65 190.1 1556.95 189.8
L 1345.1 128.65
Q 1343.7 128.3 1343.15 128.3 1342.35 128.3 1342.35 128.65 1342.25 129.2 1342.55 129.55 1343.05 130.15 1343.65 130.35 1365 142.85 1376.2 159.6 Z"/>

<path id="Layer1_1_MEMBER_10_1_STROKES" stroke="#000000" stroke-width="1" stroke-linejoin="round" stroke-linecap="round" fill="none" d="
M 1349.5146881103515 136.98280029296876
L 1302.0330780029296 136.98280029296876 1298.0715270996093 156.2780647277832 1347.833166503906 145.21962661743163 1349.5146881103515 136.98280029296876 Z
M 1322.3538391113282 269.0285316467285
L 1346.8641540527344 149.97931518554688 1297.1025146484374 161.03775329589843 1274.872229003906 269.0285316467285 1322.3538391113282 269.0285316467285 Z"/>
</defs>

<g transform="matrix( 1, 0, 0, 1, 100,-349.3) ">
<use xlink:href="#Layer1_0_MEMBER_0_1_STROKES"/>
</g>

<g transform="matrix( 1, 0, 0, 1, 100,-349.3) ">
<use xlink:href="#Layer1_0_MEMBER_0_MEMBER_0_1_STROKES"/>
</g>

<g transform="matrix( 1, 0, 0, 1, 100,-349.3) ">
<use xlink:href="#Layer1_0_MEMBER_1_1_STROKES"/>
</g>

<g transform="matrix( 1, 0, 0, 1, 100,-349.3) ">
<use xlink:href="#Layer1_0_MEMBER_2_1_STROKES"/>
</g>

<g transform="matrix( 1, 0, 0, 1, 0,0) ">
<use xlink:href="#Layer1_1_MEMBER_0_1_STROKES"/>
</g>

<g transform="matrix( 1, 0, 0, 1, 0,0) ">
<use xlink:href="#Layer1_1_MEMBER_1_1_STROKES"/>
</g>

<g transform="matrix( 1, 0, 0, 1, 0,0) ">
<use xlink:href="#Layer1_1_MEMBER_2_1_STROKES"/>
</g>

<g transform="matrix( 1, 0, 0, 1, 0,0) ">
<use xlink:href="#Layer1_1_MEMBER_3_1_STROKES"/>
</g>

<g transform="matrix( 1, 0, 0, 1, 0,0) ">
<use xlink:href="#Layer1_1_MEMBER_4_1_STROKES"/>
</g>

<g transform="matrix( 1, 0, 0, 1, 0,0) ">
<use xlink:href="#Layer1_1_MEMBER_5_1_STROKES"/>
</g>

<g transform="matrix( 0.57000732421875, 0, 0, 0.5700225830078125, 485,66.25) ">
<use xlink:href="#Layer1_1_MEMBER_6_1_STROKES" transform="matrix( 1.7543487548828125, 0, 0, 1.754302978515625, -850.85,-116.2) "/>
</g>

<g transform="matrix( 0.5699005126953125, 0, 0, 0.5698089599609375, 539.45,-396.65) ">
<use xlink:href="#Layer1_1_MEMBER_7_1_STROKES" transform="matrix( 1.7546844482421875, 0, 0, 1.7549591064453125, -946.55,696.1) "/>
</g>

<g transform="matrix( 0.5699005126953125, 0, 0, 0.5698089599609375, 542.35,-396.65) ">
<use xlink:href="#Layer1_1_MEMBER_8_1_STROKES" transform="matrix( 1.7546844482421875, 0, 0, 1.7549591064453125, -951.65,696.1) "/>
</g>

<g transform="matrix( 1, 0, 0, 1, 0,0) ">
<use xlink:href="#Layer1_1_MEMBER_9_1_STROKES"/>
</g>

<g transform="matrix( 0.57000732421875, 0, 0, 0.5700225830078125, 478.8,66.3) ">
<use xlink:href="#Layer1_1_MEMBER_10_1_STROKES" transform="matrix( 1.7543487548828125, 0, 0, 1.754302978515625, -839.95,-116.3) "/>
</g>

<g transform="matrix( 1, 0, 0, 1, 0,0) ">
<use xlink:href="#Layer0_0_MEMBER_0_FILL"/>
</g>

<g transform="matrix( 1, 0, 0, 1, 0,0) ">
<use xlink:href="#Layer0_0_MEMBER_1_FILL"/>
</g>

<g transform="matrix( 1, 0, 0, 1, 0,0) ">
<use xlink:href="#Layer0_0_MEMBER_2_FILL"/>
</g>

<g transform="matrix( 1, 0, 0, 1, 0,0) ">
<use xlink:href="#Layer0_0_MEMBER_3_FILL"/>
</g>

<g transform="matrix( 1, 0, 0, 1, 0,0) ">
<use xlink:href="#Layer0_0_MEMBER_4_FILL"/>
</g>

<g transform="matrix( 1, 0, 0, 1, 0,0) ">
<use xlink:href="#Layer0_0_MEMBER_5_FILL"/>
</g>

<g transform="matrix( 0.57000732421875, 0, 0, 0.5700225830078125, 485,66.25) ">
<use xlink:href="#Layer0_0_MEMBER_6_FILL"/>
</g>

<g transform="matrix( 0.5699005126953125, 0, 0, 0.5698089599609375, 539.45,-396.65) ">
<use xlink:href="#Layer0_0_MEMBER_7_FILL"/>
</g>

<g transform="matrix( 0.5699005126953125, 0, 0, 0.5698089599609375, 542.35,-396.65) ">
<use xlink:href="#Layer0_0_MEMBER_8_FILL"/>
</g>

<g transform="matrix( 1, 0, 0, 1, 0,0) ">
<use xlink:href="#Layer0_0_MEMBER_9_FILL"/>
</g>

<g transform="matrix( 0.57000732421875, 0, 0, 0.5700225830078125, 478.8,66.3) ">
<use xlink:href="#Layer0_0_MEMBER_10_FILL"/>
</g>
</svg>
